<svg width="32" height="32" viewBox="0 0 32 32" fill="none" xmlns="http://www.w3.org/2000/svg">
<g id="User Interface / Bank Cards">
<path id="Shape" d="M8 9.59967C8 8.1062 8 7.35946 8.29065 6.78903C8.54631 6.28727 8.95426 5.87932 9.45603 5.62366C10.0265 5.33301 10.7732 5.33301 12.2667 5.33301H25.0667C26.5601 5.33301 27.3069 5.33301 27.8773 5.62366C28.3791 5.87932 28.787 6.28727 29.0427 6.78903C29.3333 7.35946 29.3333 8.1062 29.3333 9.59968V17.0663C29.3333 18.5598 29.3333 19.3066 29.0427 19.877C28.787 20.3787 28.3791 20.7867 27.8773 21.0424C27.3069 21.333 26.5601 21.333 25.0667 21.333H12.2667C10.7732 21.333 10.0265 21.333 9.45603 21.0424C8.95426 20.7867 8.54631 20.3787 8.29065 19.877C8 19.3066 8 18.5598 8 17.0663V9.59967Z" fill="#90ECF4"/>
<path id="Shape_2" fill-rule="evenodd" clip-rule="evenodd" d="M2.95764 12.123C2.7702 12.4909 2.70364 12.9321 2.68001 13.5996C2.66724 13.9602 2.66086 14.1404 2.73158 14.2882C2.7924 14.4152 2.89913 14.5258 3.02395 14.5911C3.1691 14.667 3.35759 14.667 3.73456 14.667H22.9328C23.3097 14.667 23.4982 14.667 23.6434 14.5911C23.7682 14.5258 23.8749 14.4152 23.9357 14.2882C24.0065 14.1404 24.0001 13.9602 23.9873 13.5996C23.9637 12.9321 23.8971 12.4909 23.7097 12.123C23.454 11.6213 23.0461 11.2133 22.5443 10.9576C21.9739 10.667 21.2271 10.667 19.7337 10.667H6.93366C5.44019 10.667 4.69345 10.667 4.12302 10.9576C3.62125 11.2133 3.2133 11.6213 2.95764 12.123ZM24.0003 18.4003C24.0003 18.027 24.0003 17.8403 23.9277 17.6977C23.8637 17.5722 23.7618 17.4702 23.6363 17.4063C23.4937 17.3337 23.307 17.3337 22.9337 17.3337H3.73366C3.36029 17.3337 3.17361 17.3337 3.031 17.4063C2.90556 17.4702 2.80357 17.5722 2.73965 17.6977C2.66699 17.8403 2.66699 18.027 2.66699 18.4003V22.4003C2.66699 23.8938 2.66699 24.6405 2.95764 25.211C3.2133 25.7127 3.62125 26.1207 4.12302 26.3763C4.69345 26.667 5.44019 26.667 6.93366 26.667H19.7337C21.2271 26.667 21.9739 26.667 22.5443 26.3763C23.0461 26.1207 23.454 25.7127 23.7097 25.211C24.0003 24.6405 24.0003 23.8938 24.0003 22.4003V18.4003Z" fill="#6068DB"/>
</g>
</svg>
