<svg width="32" height="32" viewBox="0 0 32 32" fill="none" xmlns="http://www.w3.org/2000/svg">
<g id="User Interface / Coin Dollar">
<path id="Shape" d="M29.3337 16.0003C29.3337 23.3641 23.3641 29.3337 16.0003 29.3337C8.63653 29.3337 2.66699 23.3641 2.66699 16.0003C2.66699 8.63653 8.63653 2.66699 16.0003 2.66699C23.3641 2.66699 29.3337 8.63653 29.3337 16.0003Z" fill="#90ECF4"/>
<path id="Shape_2" fill-rule="evenodd" clip-rule="evenodd" d="M14.667 6.66634C14.667 5.92996 15.2639 5.33301 16.0003 5.33301C16.7367 5.33301 17.3337 5.92996 17.3337 6.66634V7.99967C19.5428 7.99967 21.3337 9.79054 21.3337 11.9997C21.3337 12.7361 20.7367 13.333 20.0003 13.333C19.2639 13.333 18.667 12.7361 18.667 11.9997C18.667 11.2633 18.07 10.6663 17.3337 10.6663H14.667C13.9306 10.6663 13.3337 11.2633 13.3337 11.9997V12.7443C13.3337 13.3182 13.7009 13.8277 14.2454 14.0092L18.5986 15.4603C20.2319 16.0048 21.3337 17.5333 21.3337 19.255V19.9997C21.3337 22.2088 19.5428 23.9997 17.3337 23.9997V25.333C17.3337 26.0694 16.7367 26.6663 16.0003 26.6663C15.2639 26.6663 14.667 26.0694 14.667 25.333V23.9997C12.4579 23.9997 10.667 22.2088 10.667 19.9997C10.667 19.2633 11.2639 18.6663 12.0003 18.6663C12.7367 18.6663 13.3337 19.2633 13.3337 19.9997C13.3337 20.7361 13.9306 21.333 14.667 21.333H17.3337C18.07 21.333 18.667 20.7361 18.667 19.9997V19.255C18.667 18.6811 18.2998 18.1716 17.7553 17.9901L13.4021 16.539C11.7687 15.9946 10.667 14.466 10.667 12.7443V11.9997C10.667 9.79054 12.4579 7.99967 14.667 7.99967V6.66634Z" fill="#6068DB"/>
</g>
</svg>
