<svg width="32" height="32" viewBox="0 0 32 32" fill="none" xmlns="http://www.w3.org/2000/svg">
<g id="User Interface / Eye Off">
<path id="Shape" d="M25.1324 23.2463L9.05115 7.16504L8.12956 7.83621C5.28446 9.90825 3.72818 12.746 3.02735 14.3199C2.54948 15.3931 2.54948 16.6071 3.02735 17.6803C4.18645 20.2833 7.85595 26.6668 16.0009 26.6668C19.2915 26.6668 21.885 25.6112 23.8718 24.1642L25.1324 23.2463Z" fill="#90ECF4"/>
<path id="Shape_2" fill-rule="evenodd" clip-rule="evenodd" d="M13.1716 13.1719C12.4477 13.8957 12 14.8957 12 16.0003C12 18.2094 13.7909 20.0003 16 20.0003C17.1046 20.0003 18.1046 19.5526 18.8284 18.8287L13.1716 13.1719Z" fill="#6068DB"/>
<path id="Shape_3" d="M16 5.33301C24.1453 5.33301 27.8144 11.7168 28.9733 14.3197C29.4511 15.3928 29.4511 16.6066 28.9733 17.6796C28.7658 18.1457 28.4874 18.7133 28.1281 19.3342C27.7593 19.9715 26.9436 20.1892 26.3063 19.8204C25.6689 19.4515 25.4512 18.6359 25.82 17.9985C26.1261 17.4696 26.3626 16.9873 26.5372 16.595C26.7076 16.2124 26.7076 15.787 26.5372 15.4044C25.4801 13.03 22.4738 7.99967 16 7.99967L14.6664 7.99968C13.93 7.99969 13.333 7.40274 13.333 6.66636C13.333 5.92998 13.93 5.33302 14.6663 5.33302L16 5.33301Z" fill="#90ECF4"/>
<path id="Shape_4" fill-rule="evenodd" clip-rule="evenodd" d="M3.05752 3.05752C3.57822 2.53682 4.42244 2.53682 4.94313 3.05752L28.9431 27.0575C29.4638 27.5782 29.4638 28.4224 28.9431 28.9431C28.4224 29.4638 27.5782 29.4638 27.0575 28.9431L3.05752 4.94313C2.53682 4.42244 2.53682 3.57822 3.05752 3.05752Z" fill="#444BD3"/>
</g>
</svg>
