<svg width="32" height="32" viewBox="0 0 32 32" fill="none" xmlns="http://www.w3.org/2000/svg">
<g id="Vector">
<path fill-rule="evenodd" clip-rule="evenodd" d="M15.2778 0.152778C15.5071 0.0505556 15.7538 0 16 0C16.2462 0 16.4929 0.0505556 16.7222 0.152778L29.8889 6.00694C31.1742 6.57761 32 7.84903 32 9.25347V28.4444C32 30.4089 30.4089 32 28.4444 32H26.6667V16C26.6667 14.0356 25.0756 12.4444 23.1111 12.4444H8.88889C6.92444 12.4444 5.33333 14.0356 5.33333 16V32H3.55556C1.59111 32 0 30.4089 0 28.4444V9.25347C0 7.84725 0.825778 6.57761 2.11111 6.00694L15.2778 0.152778Z" fill="#6068DB"/>
<path d="M8.88889 16V32H14.2222V29.3333C14.2222 28.8427 14.6204 28.4444 15.1111 28.4444H16.8889C17.3796 28.4444 17.7778 28.8427 17.7778 29.3333V32H23.1111V16H8.88889Z" fill="#90ECF4"/>
</g>
</svg>
