<svg width="13" height="13" viewBox="0 0 13 13" fill="none" xmlns="http://www.w3.org/2000/svg">
<path d="M1.63588 0C0.732691 0 0 0.698233 0 1.56037C0 2.42251 0.732101 3.1369 1.63467 3.1369C2.53724 3.1369 3.27055 2.42251 3.27055 1.56037C3.27055 0.698824 2.53907 0 1.63588 0ZM9.617 4.13636C8.24334 4.13636 7.45736 4.82209 7.08036 5.50399H7.04046V4.31987H4.33333V13H7.15411V8.70321C7.15411 7.57103 7.24364 6.47692 8.7114 6.47692C10.1581 6.47692 10.1792 7.76786 10.1792 8.77477V13H12.9964H13V8.23233C13 5.89942 12.4745 4.13636 9.617 4.13636ZM0.224888 4.31987V13H3.04808V4.31987H0.224888Z" fill="white"/>
</svg>
