<svg width="70" height="58" viewBox="0 0 70 58" fill="none" xmlns="http://www.w3.org/2000/svg">
<path fill-rule="evenodd" clip-rule="evenodd" d="M66.2538 58C55.4132 40.3308 44.5726 22.6453 33.7319 4.97609C24.0848 21.748 14.4376 38.5035 4.80701 55.2591C20.5873 55.2591 36.3841 55.2591 52.1809 55.2591C46.0313 44.2464 39.8816 33.2338 33.7319 22.2211C29.588 29.7586 25.4274 37.2799 21.2834 44.8174C28.2453 44.8174 35.1906 44.8174 42.1525 44.8174C42.1525 45.8616 42.1525 46.8895 42.1359 47.9336C33.3175 47.9336 24.5157 47.9499 15.6974 47.9499C21.6978 37.4757 27.7149 26.9851 33.7319 16.5108C41.5889 30.3297 49.4625 44.1648 57.336 57.9837C38.224 57.9837 19.112 58 0 58C11.2385 38.6667 22.4935 19.3333 33.7319 0C45.8158 19.317 57.9162 38.6503 70 57.9837C68.7402 57.9837 67.497 57.9837 66.2538 58Z" fill="url(#paint0_linear_4223_9799)"/>
<defs>
<linearGradient id="paint0_linear_4223_9799" x1="0.000828795" y1="28.9936" x2="69.9968" y2="28.9936" gradientUnits="userSpaceOnUse">
<stop stop-color="#001F3F"/>
<stop offset="0.239216" stop-color="#3D6D9F"/>
<stop offset="1" stop-color="#7ABBFF"/>
</linearGradient>
</defs>
</svg>
