<svg width="131" height="30" viewBox="0 0 131 30" fill="none" xmlns="http://www.w3.org/2000/svg">
<path id="Vector" d="M0 29.5004V0.477915H10.8651C21.7302 0.477915 27.1627 5.19189 27.1627 14.6198C27.1627 19.1383 25.6728 22.7444 22.7158 25.4598C19.7589 28.1535 15.7934 29.5004 10.8651 29.5004H0ZM6.89956 5.80015V24.1999H10.3379C13.3178 24.1999 15.6558 23.3526 17.3521 21.6365C19.0483 19.9421 19.9193 17.6394 19.9193 14.7067C19.9193 11.9479 19.0712 9.77553 17.375 8.18972C15.7017 6.60391 13.3178 5.80015 10.292 5.80015H6.89956ZM39.151 29.5004H32.2514V0.477915H39.151V29.5004ZM73.0299 29.5004H65.5115L63.3339 23.0485H52.4458L50.2912 29.5004H42.8185L53.9587 0.477915H62.1419L73.0299 29.5004ZM61.7522 18.0304L58.4744 8.27661C58.2222 7.53802 58.0388 6.66908 57.9472 5.6698H57.7867C57.7179 6.51702 57.5346 7.36423 57.2595 8.18972L53.9129 18.0304H61.7522ZM98.1297 28.4576C95.9062 29.4786 92.9722 30 89.3734 30C84.6744 30 80.9839 28.6966 78.302 26.0681C75.5972 23.4613 74.2677 19.9638 74.2677 15.6191C74.2677 10.9703 75.7806 7.21217 78.8063 4.32295C81.8091 1.43374 85.7517 0 90.5654 0C93.5682 0 96.0896 0.347574 98.1297 1.06445V7.36423C96.0896 6.21289 93.7515 5.62636 91.1155 5.62636C88.2502 5.62636 85.9351 6.47357 84.1701 8.18972C82.4051 9.90587 81.5111 12.2303 81.5111 15.1629C81.5111 17.9652 82.3592 20.2028 84.0096 21.8537C85.6829 23.5264 87.9293 24.3519 90.7487 24.3519C93.4306 24.3519 95.9062 23.7437 98.1297 22.4837V28.4576ZM115.871 30C111.493 30 107.917 28.6532 105.144 25.9377C102.393 23.244 101.018 19.7248 101.018 15.3802C101.018 10.7965 102.416 7.08183 105.213 4.25778C108.032 1.41202 111.722 0 116.353 0C120.731 0 124.261 1.34685 126.966 4.06227C129.671 6.7777 131 10.3621 131 14.7936C131 19.3338 129.602 23.0268 126.805 25.8074C124.009 28.6097 120.364 30 115.871 30ZM116.169 5.62636C113.763 5.62636 111.837 6.47357 110.416 8.21144C108.995 9.92759 108.261 12.1868 108.261 15.0326C108.261 17.9001 108.995 20.181 110.416 21.8537C111.837 23.5264 113.694 24.3519 115.986 24.3519C118.37 24.3519 120.25 23.5482 121.648 21.9189C123.046 20.2896 123.757 18.0304 123.757 15.1629C123.757 12.1434 123.069 9.79725 121.717 8.12455C120.364 6.45185 118.507 5.62636 116.169 5.62636Z" fill="url(#paint0_linear_4339_13134)"/>
<defs>
<linearGradient id="paint0_linear_4339_13134" x1="0.00825197" y1="14.9972" x2="131.008" y2="14.9972" gradientUnits="userSpaceOnUse">
<stop stop-color="#7ABBFF"/>
<stop offset="1" stop-color="#001F26"/>
</linearGradient>
</defs>
</svg>
