<svg width="125" height="101" viewBox="0 0 125 101" fill="none" xmlns="http://www.w3.org/2000/svg">
<path id="Vector" fill-rule="evenodd" clip-rule="evenodd" d="M118.31 101C98.9522 70.2312 79.5939 39.434 60.2356 8.66526C43.0085 37.8715 25.7814 67.0492 8.58395 96.227C36.763 96.227 64.9716 96.227 93.1802 96.227C82.1987 77.0498 71.2171 57.8726 60.2356 38.6954C52.8357 51.8211 45.4061 64.9184 38.0062 78.0442C50.4381 78.0442 62.8404 78.0442 75.2723 78.0442C75.2723 79.8624 75.2723 81.6523 75.2427 83.4706C59.4956 83.4706 43.7781 83.499 28.031 83.499C38.7462 65.2594 49.4909 46.9913 60.2356 28.7516C74.2659 52.8155 88.3258 76.9077 102.386 100.972C68.2572 100.972 34.1286 101 0 101C20.0687 67.3333 40.1669 33.6667 60.2356 0C81.8139 33.6383 103.422 67.3049 125 100.972C122.75 100.972 120.53 100.972 118.31 101Z" fill="url(#paint0_linear_4339_13133)"/>
<defs>
<linearGradient id="paint0_linear_4339_13133" x1="0.00147999" y1="50.4889" x2="124.994" y2="50.4889" gradientUnits="userSpaceOnUse">
<stop stop-color="#001F3F"/>
<stop offset="0.239216" stop-color="#3D6D9F"/>
<stop offset="1" stop-color="#7ABBFF"/>
</linearGradient>
</defs>
</svg>
