<svg xmlns="http://www.w3.org/2000/svg">
<defs>
<font id="BebasNeuePro-Light" horiz-adv-x="400" >
  <font-face 
    font-family="Bebas Neue Pro Light"
    font-weight="300"
    font-stretch="normal"
    units-per-em="1000"
    panose-1="2 11 3 6 2 2 2 5 2 1"
    ascent="811"
    descent="-189"
    x-height="492"
    cap-height="700"
    bbox="-191 -218 794 894"
    underline-thickness="20"
    underline-position="-80"
    unicode-range="U+000D-FB02"
  />
<missing-glyph horiz-adv-x="738" 
d="M54 0v700h630v-700h-630zM152 134h434v432h-434v-432zM168 550h114v-112h-114v112zM346 390h-32v16h-16v80h32v32h-32v32h16v-16h32v-16h16v16h-16v16h32v-16h16v16h16v-32h16v-16h-16v-32h-16v-16h-16v48h-32v-16h16v-32h-16v16h-32v-48h16v32h16v-16h16v16h16v-32h-32
v-32zM426 550h16v-32h-16v32zM458 550h112v-112h-112v112zM184 454h82v80h-82v-80zM474 454h80v80h-80v-80zM200 518h50v-48h-50v48zM490 518h48v-48h-48v48zM410 454v-32h-16v32h16zM442 438h-16v16h16v-16zM200 406v-16h17v-16h-33v16h-16v32h49v-16h-17zM282 422v-16h-16
v-16h-32v16h16v16h32zM426 390v-16h-16v48h16v-16h16v-16h-16zM442 390h16v16h-16v16h64v-16h-16v-16h16v16h16v-16h16v-16h-16v-16h-32v16h-32v-16h-16v32zM570 374h-16v16h-16v32h32v-48zM282 406h16v-32h-32v16h16v16zM378 406h16v-16h-16v16zM362 390v-16h-16v16h16z
M217 358v16h17v-16h-17zM266 358h32v-16h-64v16h16v16h16v-16zM314 326v48h16v-48h-16zM410 358h-16v16h16v-16zM168 358h16v-32h-16v32zM410 342h48v16h32v-32h48v-16h-48v-16h16v-32h16v-16h-16v-16h16v-16h32v-16h16v-16h-32v16h-32v-32h-32v-16h-16v16h-16v-16h-16v32
h-16v-32h-32v16h16v16h-16v-16h-32v16h16v32h-16v-16h-16v32h48v16h16v-32h-16v-16h32v48h16v16h-16v16h-16v-16h-16v32h16v16h16v-16h16v16h-16v32zM378 310v-16h-32v16h16v32h-16v16h32v-16h16v-32h-16zM570 310h-16v16h-16v16h16v16h16v-48zM234 294h-17v16h-17v16h17v16
h17v-32h16v-32h-16v16zM298 326v-32h16v-32h-16v16h-32v16h16v16h-32v16h48zM330 326h16v-16h-16v16zM168 310h32v-16h-32v16zM314 310h16v-16h-16v16zM458 310h-16v-16h16v16zM217 278h-17v16h17v-16zM346 278h-16v16h16v-16zM538 294h16v-16h-16v16zM442 230h48v48h-48

<glyph glyph-name="fi" unicode="fi" horiz-adv-x="394" 
d="M97 492v120c0 65 28 98 85 98c21 0 38 -3 52 -10v-21c-13 7 -30 11 -50 11c-45 0 -66 -24 -66 -79v-119h116v-20h-116v-472h-21v472h-73v20h73zM314 579v94h22v-94h-22zM336 0h-22v492h22v-492z" />
    <glyph glyph-name="fl" unicode="fl" horiz-adv-x="393" 
d="M97 492v120c0 65 28 98 85 98c21 0 38 -3 52 -10v-21c-13 7 -30 11 -50 11c-45 0 -66 -24 -66 -79v-119h116v-20h-116v-472h-21v472h-73v20h73zM314 0v700h22v-700h-22z" />
    <glyph glyph-name=".notdef" horiz-adv-x="738" 
d="M54 0v700h630v-700h-630zM152 134h434v432h-434v-432zM168 550h114v-112h-114v112zM346 390h-32v16h-16v80h32v32h-32v32h16v-16h32v-16h16v16h-16v16h32v-16h16v16h16v-32h16v-16h-16v-32h-16v-16h-16v48h-32v-16h16v-32h-16v16h-32v-48h16v32h16v-16h16v16h16v-32h-32
v-32zM426 550h16v-32h-16v32zM458 550h112v-112h-112v112zM184 454h82v80h-82v-80zM474 454h80v80h-80v-80zM200 518h50v-48h-50v48zM490 518h48v-48h-48v48zM410 454v-32h-16v32h16zM442 438h-16v16h16v-16zM200 406v-16h17v-16h-33v16h-16v32h49v-16h-17zM282 422v-16h-16
v-16h-32v16h16v16h32zM426 390v-16h-16v48h16v-16h16v-16h-16zM442 390h16v16h-16v16h64v-16h-16v-16h16v16h16v-16h16v-16h-16v-16h-32v16h-32v-16h-16v32zM570 374h-16v16h-16v32h32v-48zM282 406h16v-32h-32v16h16v16zM378 406h16v-16h-16v16zM362 390v-16h-16v16h16z
M217 358v16h17v-16h-17zM266 358h32v-16h-64v16h16v16h16v-16zM314 326v48h16v-48h-16zM410 358h-16v16h16v-16zM168 358h16v-32h-16v32zM410 342h48v16h32v-32h48v-16h-48v-16h16v-32h16v-16h-16v-16h16v-16h32v-16h16v-16h-32v16h-32v-32h-32v-16h-16v16h-16v-16h-16v32
h-16v-32h-32v16h16v16h-16v-16h-32v16h16v32h-16v-16h-16v32h48v16h16v-32h-16v-16h32v48h16v16h-16v16h-16v-16h-16v32h16v16h16v-16h16v16h-16v32zM378 310v-16h-32v16h16v32h-16v16h32v-16h16v-32h-16zM570 310h-16v16h-16v16h16v16h16v-48zM234 294h-17v16h-17v16h17v16
h17v-32h16v-32h-16v16zM298 326v-32h16v-32h-16v16h-32v16h16v16h-32v16h48zM330 326h16v-16h-16v16zM168 310h32v-16h-32v16zM314 310h16v-16h-16v16zM458 310h-16v-16h16v16zM217 278h-17v16h17v-16zM346 278h-16v16h16v-16zM538 294h16v-16h-16v16zM442 230h48v48h-48
v-48zM522 278h16v-16h-16v16zM538 230v16h16v32h16v-64h-16v16h-16zM168 262h114v-112h-114v112zM314 246v16h16v-32h-32v16h16zM362 246h-16v16h16v-16zM458 262h16v-16h-16v16zM184 166h82v80h-82v-80zM200 230h50v-48h-50v48zM426 198h16v16h-16v-16zM458 182h32v32h-32
v-32zM298 198h32v-32h16v-16h-48v48zM522 166v-16h-16v16h16zM570 150h-16v16h16v-16z" />
    <glyph glyph-name="_1" horiz-adv-x="0" 
 />
    <glyph glyph-name="CR.001" horiz-adv-x="333" 
 />
    <glyph glyph-name="CR" unicode="&#xd;" horiz-adv-x="163" 
 />
    <glyph glyph-name="space" unicode=" " horiz-adv-x="163" 
 />
    <glyph glyph-name="exclam" unicode="!" horiz-adv-x="169" 
d="M94 159h-17l-4 149v393h22v-393zM96 0h-23v82h23v-82z" />
    <glyph glyph-name="quotedbl" unicode="&#x22;" horiz-adv-x="228" 
d="M79 536h-14l-5 164h24zM162 536h-14l-5 164h24z" />
    <glyph glyph-name="numbersign" unicode="#" 
d="M97 0h-20l24 231h-71l1 17h72l25 244h-72l1 17h73l20 192h19l-19 -192h137l19 192h20l-20 -192h64l-1 -17h-64l-25 -244h63l-1 -17h-64l-25 -231h-19l24 231h-137zM148 492l-25 -244h137l25 244h-137z" />
    <glyph glyph-name="dollar" unicode="$" 
d="M347 159c0 -87 -51 -143 -135 -148v-66h-20v66c-87 3 -138 60 -138 148v38h21v-39c0 -75 44 -123 117 -126v315c-53 40 -90 73 -109 100s-29 60 -29 97c0 85 53 142 138 145v56h20v-56c83 -5 131 -61 131 -148v-25h-21v26c0 73 -41 121 -110 126v-308
c53 -40 88 -74 107 -101s28 -60 28 -100zM76 545c0 -32 8 -60 24 -83c17 -23 47 -52 92 -87v293c-72 -3 -116 -51 -116 -123zM212 332v-300c71 5 113 51 113 126c0 34 -8 63 -24 87s-46 53 -89 87z" />
    <glyph glyph-name="percent" unicode="%" horiz-adv-x="582" 
d="M135 307c-61 0 -96 38 -96 107v189c0 69 35 107 96 107c63 0 98 -38 98 -107v-189c0 -69 -35 -107 -98 -107zM163 0h-20l275 701h20zM135 325c52 0 78 29 78 88v191c0 59 -26 88 -78 88c-51 0 -77 -29 -77 -88v-191c0 -59 26 -88 77 -88zM446 -10c-61 0 -96 38 -96 107
v190c0 69 35 107 96 107c63 0 98 -38 98 -107v-190c0 -69 -35 -107 -98 -107zM446 8c52 0 78 29 78 88v192c0 59 -26 88 -78 88c-51 0 -77 -29 -77 -88v-192c0 -59 26 -88 77 -88z" />
    <glyph glyph-name="ampersand" unicode="&#x26;" horiz-adv-x="407" 
d="M374 371v-21h-35v-231c0 -55 3 -95 10 -119h-21c-5 21 -8 54 -8 97c-23 -67 -74 -107 -141 -107c-81 0 -127 49 -127 140v91c0 79 31 126 93 140v1c-62 17 -93 64 -93 140v46c0 104 49 162 144 162s143 -54 143 -163v-15h-21v17c0 93 -41 140 -122 140
s-123 -50 -123 -141v-48c0 -80 45 -129 120 -129h181zM318 175v175h-126c-77 0 -118 -45 -118 -129v-87c0 -83 36 -124 108 -124c80 0 136 66 136 165z" />
    <glyph glyph-name="quotesingle" unicode="'" horiz-adv-x="145" 
d="M79 536h-14l-5 164h24z" />
    <glyph glyph-name="parenleft" unicode="(" horiz-adv-x="249" 
d="M211 -100h-22c-82 0 -123 43 -123 129v542c0 87 36 129 123 129h22v-19h-21c-69 0 -103 -33 -103 -110v-542c0 -73 34 -110 103 -110h21v-19z" />
    <glyph glyph-name="parenright" unicode=")" horiz-adv-x="249" 
d="M60 -100h-22v19h21c69 0 103 34 103 110v542c0 75 -32 110 -103 110h-21v19h22c83 0 124 -43 124 -129v-542c0 -85 -37 -129 -124 -129z" />
    <glyph glyph-name="asterisk" unicode="*" horiz-adv-x="373" 
d="M186 532l-81 -122l-16 10l87 120l-142 38l6 19l140 -45l-4 148h20l-3 -148l140 42l6 -19l-142 -35l86 -119l-15 -11z" />
    <glyph glyph-name="plus" unicode="+" 
d="M210 134h-20v156h-154v20h154v156h20v-156h154v-20h-154v-156z" />
    <glyph glyph-name="comma" unicode="," horiz-adv-x="150" 
d="M61 -84h-11l21 84h-7v82h22v-81z" />
    <glyph glyph-name="hyphen" unicode="-" horiz-adv-x="256" 
d="M218 290h-180v19h180v-19z" />
    <glyph glyph-name="period" unicode="." horiz-adv-x="150" 
d="M86 0h-22v82h22v-82z" />
    <glyph glyph-name="slash" unicode="/" horiz-adv-x="346" 
d="M45 -100h-20l276 800h20z" />
    <glyph glyph-name="zero" unicode="0" 
d="M199 -10c-96 0 -148 58 -148 166v388c0 108 52 166 148 166c97 0 150 -58 150 -166v-388c0 -108 -53 -166 -150 -166zM199 11c85 0 128 48 128 144v390c0 96 -43 144 -128 144c-84 0 -126 -48 -126 -144v-390c0 -96 42 -144 126 -144z" />
    <glyph glyph-name="one" unicode="1" horiz-adv-x="251" 
d="M184 0h-22v659c-23 -44 -73 -72 -129 -79v20c63 5 111 44 130 101h21v-701z" />
    <glyph glyph-name="two" unicode="2" horiz-adv-x="365" 
d="M328 0h-291v31c0 67 15 122 48 174c17 26 32 46 45 61s32 36 57 62c28 28 49 50 63 67c29 35 60 92 60 148c0 84 -35 146 -123 146c-86 0 -129 -48 -129 -144v-40h-21v39c0 96 42 166 150 166c101 0 145 -70 145 -166c0 -43 -11 -82 -32 -116c-21 -33 -52 -71 -95 -114
c-32 -31 -57 -58 -74 -79c-35 -41 -72 -118 -72 -199v-15h269v-21z" />
    <glyph glyph-name="three" unicode="3" horiz-adv-x="378" 
d="M185 -10c-105 0 -149 67 -149 166v44h21v-45c0 -96 43 -144 128 -144s127 49 127 146l-1 69c1 84 -40 129 -117 129h-50l1 21h49c72 0 118 52 117 132l1 36c0 92 -42 145 -126 145c-83 0 -125 -48 -125 -144v-32h-21v31c0 111 49 166 147 166c97 0 147 -62 147 -166
l-1 -33c1 -75 -34 -128 -93 -144v-1c63 -14 94 -61 93 -140l1 -70c0 -111 -50 -166 -149 -166z" />
    <glyph glyph-name="four" unicode="4" horiz-adv-x="395" 
d="M305 0h-22v165h-256v22l250 514h28v-515h63v-21h-63v-165zM283 665l-234 -479h234v479z" />
    <glyph glyph-name="five" unicode="5" horiz-adv-x="376" 
d="M188 -10c-105 0 -149 67 -149 166v35h21v-36c0 -85 37 -144 128 -144c85 0 127 48 127 144v140c0 92 -37 138 -112 138c-61 0 -106 -30 -133 -90l-1 -6h-21l18 363h257v-21h-237l-16 -303c29 51 75 77 137 77c84 0 130 -54 130 -157v-140c0 -111 -50 -166 -149 -166z" />
    <glyph glyph-name="six" unicode="6" horiz-adv-x="391" 
d="M199 -10c-96 0 -148 58 -148 166v387c0 111 49 167 147 167c96 0 148 -57 148 -166v-12h-22v13c0 96 -42 144 -126 144c-83 0 -125 -49 -125 -147v-221c20 64 72 105 140 105c91 0 136 -53 136 -159v-111c0 -108 -53 -166 -150 -166zM199 11c85 0 128 48 128 144v111
c0 93 -39 139 -118 139c-41 0 -74 -15 -99 -46c-25 -30 -37 -67 -37 -111v-93c0 -96 42 -144 126 -144z" />
    <glyph glyph-name="seven" unicode="7" horiz-adv-x="355" 
d="M101 0h-24l228 679h-280v21h302v-21z" />
    <glyph glyph-name="eight" unicode="8" horiz-adv-x="393" 
d="M197 -10c-105 0 -154 63 -154 166v70c0 79 32 126 96 140v1c-61 18 -92 65 -92 142v39c0 104 50 162 150 162c99 0 149 -58 149 -162v-39c0 -77 -30 -124 -91 -142v-1c63 -15 95 -61 95 -140v-70c0 -103 -49 -166 -153 -166zM324 506v42c0 94 -42 141 -127 141
s-128 -47 -128 -141v-42c0 -81 45 -130 128 -130s127 49 127 130zM197 11c87 0 131 49 131 146v70c0 85 -44 128 -131 128c-88 0 -132 -43 -132 -128v-70c0 -97 44 -146 132 -146z" />
    <glyph glyph-name="nine" unicode="9" horiz-adv-x="391" 
d="M194 -10c-99 0 -148 55 -148 166v12h21v-13c0 -96 42 -144 126 -144s126 49 126 147v221c-21 -65 -74 -105 -141 -105c-91 0 -136 53 -136 159v111c0 108 54 166 150 166s149 -58 149 -166v-387c0 -109 -51 -167 -147 -167zM182 295c41 0 74 15 99 45c25 31 38 68 38 112
v93c0 96 -42 144 -127 144s-128 -48 -128 -144v-111c0 -93 39 -139 118 -139z" />
    <glyph glyph-name="colon" unicode=":" horiz-adv-x="150" 
d="M86 381h-22v82h22v-82zM86 0h-22v82h22v-82z" />
    <glyph glyph-name="semicolon" unicode=";" horiz-adv-x="150" 
d="M86 381h-22v82h22v-82zM61 -84h-11l21 84h-7v82h22v-81z" />
    <glyph glyph-name="less" unicode="&#x3c;" 
d="M342 164v-23l-287 149v20l287 149v-23l-262 -136z" />
    <glyph glyph-name="equal" unicode="=" 
d="M354 371h-308v20h308v-20zM354 209h-308v20h308v-20z" />
    <glyph glyph-name="greater" unicode="&#x3e;" 
d="M345 290l-287 -149v23l263 136l-263 136v23l287 -149v-20z" />
    <glyph glyph-name="question" unicode="?" horiz-adv-x="363" 
d="M173 159h-21v38c0 25 4 49 13 73s18 43 27 58c10 15 24 34 41 56c17 23 29 41 36 52c16 24 35 72 35 117c0 91 -41 136 -122 136c-87 0 -125 -57 -125 -144v-40h-21v39c0 101 46 166 147 166c99 0 143 -62 143 -158c0 -69 -24 -113 -75 -178c-17 -23 -31 -41 -40 -55
c-17 -27 -38 -75 -38 -122v-38zM174 0h-23v82h23v-82z" />
    <glyph glyph-name="at" unicode="@" horiz-adv-x="697" 
d="M508 103c-48 0 -71 29 -70 88c-23 -55 -65 -88 -116 -88c-73 0 -105 43 -97 128l16 163c8 76 47 117 108 117c59 0 97 -35 110 -91l9 81h21l-27 -248l-3 -32c-7 -65 11 -98 52 -98c27 0 50 15 69 45c39 61 54 150 54 246c0 177 -93 276 -261 276
c-102 0 -179 -40 -232 -121c-52 -81 -77 -185 -76 -312c1 -211 106 -327 302 -327c66 0 120 16 161 48l-1 -24c-43 -29 -96 -44 -158 -44c-212 0 -325 126 -325 349c0 87 12 164 35 231c47 133 150 220 293 220c181 0 282 -110 282 -298c0 -53 -5 -102 -15 -147
s-26 -84 -49 -115s-50 -47 -82 -47zM326 123c57 0 103 49 115 128v4l10 96c7 80 -31 141 -100 141c-53 0 -82 -34 -88 -102l-17 -156c-7 -69 19 -111 80 -111z" />
    <glyph glyph-name="A" unicode="A" 
d="M373 0h-22l-39 170h-226l-38 -170h-21l156 703h30zM198 674l-107 -483h217z" />
    <glyph glyph-name="B" unicode="B" horiz-adv-x="397" 
d="M207 0h-149v700h139c105 0 149 -46 149 -157v-31c0 -83 -34 -132 -101 -145v-1c79 -12 112 -58 112 -150v-58c0 -109 -45 -158 -150 -158zM80 679v-304h106c96 0 138 41 138 134v32c0 99 -36 138 -128 138h-116zM80 355v-334h127c91 0 128 41 128 137v59
c0 97 -41 138 -148 138h-107z" />
    <glyph glyph-name="C" unicode="C" horiz-adv-x="382" 
d="M195 -10c-89 0 -144 60 -144 159v402c0 99 55 159 144 159c92 0 147 -59 147 -159v-69h-22v70c0 85 -47 137 -124 137c-76 0 -123 -52 -123 -137v-404c0 -85 47 -137 123 -137c77 0 124 52 124 137v90h22v-89c0 -100 -55 -159 -147 -159z" />
    <glyph glyph-name="D" unicode="D" horiz-adv-x="403" 
d="M203 0h-145v700h145c104 0 149 -49 149 -164v-372c0 -115 -45 -164 -149 -164zM80 679v-658h123c91 0 127 42 127 143v372c0 101 -36 143 -127 143h-123z" />
    <glyph glyph-name="E" unicode="E" horiz-adv-x="349" 
d="M322 0h-264v700h264v-21h-242v-304h203v-20h-203v-334h242v-21z" />
    <glyph glyph-name="F" unicode="F" horiz-adv-x="337" 
d="M80 0h-22v700h255v-21h-233v-312h194v-21h-194v-346z" />
    <glyph glyph-name="G" unicode="G" horiz-adv-x="395" 
d="M51 156v388c0 108 52 166 148 166s150 -58 150 -166v-52h-22v53c0 96 -43 144 -128 144c-84 0 -126 -48 -126 -144v-390c0 -96 42 -144 126 -144c85 0 128 48 128 144v191h-115v21h137v-211c0 -108 -54 -166 -150 -166s-148 58 -148 166z" />
    <glyph glyph-name="H" unicode="H" horiz-adv-x="412" 
d="M80 0h-22v700h22v-325h252v325h22v-700h-22v355h-252v-355z" />
    <glyph glyph-name="I" unicode="I" horiz-adv-x="138" 
d="M80 0h-22v700h22v-700z" />
    <glyph glyph-name="J" unicode="J" horiz-adv-x="256" 
d="M76 -4c-18 0 -35 3 -51 8v21c16 -5 33 -8 50 -8c72 0 104 39 104 124v559h22v-559c0 -99 -40 -145 -125 -145z" />
    <glyph glyph-name="K" unicode="K" horiz-adv-x="397" 
d="M371 0h-24l-163 411l-104 -162v-249h-22v700h22v-413l264 413h25l-171 -267z" />
    <glyph glyph-name="L" unicode="L" horiz-adv-x="337" 
d="M313 0h-255v700h22v-679h233v-21z" />
    <glyph glyph-name="M" unicode="M" horiz-adv-x="501" 
d="M79 0h-21v700h36l157 -659l156 659h36v-700h-22v672l-160 -672h-22l-160 672v-672z" />
    <glyph glyph-name="N" unicode="N" horiz-adv-x="415" 
d="M79 0h-21v700h33l245 -649v649h21v-700h-26l-252 669v-669z" />
    <glyph glyph-name="O" unicode="O" 
d="M51 156v388c0 108 53 166 149 166s149 -58 149 -166v-388c0 -108 -53 -166 -149 -166s-149 58 -149 166zM327 155v390c0 96 -42 144 -127 144s-127 -48 -127 -144v-390c0 -96 42 -144 127 -144s127 48 127 144z" />
    <glyph glyph-name="P" unicode="P" horiz-adv-x="378" 
d="M80 0h-22v700h137c104 0 149 -49 149 -164v-45c0 -115 -45 -164 -149 -164h-115v-327zM80 679v-331h115c91 0 127 42 127 143v46c0 101 -36 142 -127 142h-115z" />
    <glyph glyph-name="Q" unicode="Q" 
d="M362 -44h12v-21h-13c-51 0 -81 23 -92 68c-18 -9 -41 -13 -69 -13c-96 0 -149 58 -149 166v388c0 108 53 166 149 166s149 -58 149 -166v-388c0 -70 -21 -118 -63 -145c11 -40 32 -55 76 -55zM73 545v-390c0 -96 42 -144 127 -144s127 48 127 144v390
c0 96 -42 144 -127 144s-127 -48 -127 -144z" />
    <glyph glyph-name="R" unicode="R" horiz-adv-x="395" 
d="M80 0h-22v700h137c105 0 149 -46 149 -157v-43c0 -84 -34 -132 -102 -145v-1c71 -11 102 -53 102 -141v-130c0 -37 3 -64 10 -83h-23c-6 22 -9 50 -9 83v131c0 93 -39 129 -134 129h-108v-343zM80 679v-315h104c96 0 138 41 138 134v43c0 99 -36 138 -128 138h-114z" />
    <glyph glyph-name="S" unicode="S" horiz-adv-x="366" 
d="M37 148v37h21v-38c0 -87 46 -136 125 -136s125 49 125 136c0 37 -10 70 -29 99s-53 62 -102 99c-53 40 -89 75 -110 106c-20 31 -30 65 -30 104c0 96 54 155 145 155s144 -58 144 -158v-26h-22v27c0 87 -45 136 -122 136s-123 -50 -123 -133c0 -35 10 -66 29 -95
c19 -28 54 -61 104 -99c53 -40 89 -75 108 -106c20 -31 30 -67 30 -108c0 -100 -55 -158 -147 -158s-146 58 -146 158z" />
    <glyph glyph-name="T" unicode="T" horiz-adv-x="350" 
d="M186 0h-22v679h-140v21h302v-21h-140v-679z" />
    <glyph glyph-name="U" unicode="U" horiz-adv-x="404" 
d="M55 156v544h22v-545c0 -96 42 -144 125 -144c84 0 126 48 126 144v545h21v-544c0 -108 -51 -166 -147 -166s-147 58 -147 166z" />
    <glyph glyph-name="V" unicode="V" horiz-adv-x="398" 
d="M216 -3h-30l-159 703h22l152 -675l149 675h21z" />
    <glyph glyph-name="W" unicode="W" horiz-adv-x="555" 
d="M172 0h-32l-112 700h21l108 -671l107 671h28l107 -671l108 671h21l-112 -700h-32l-106 659z" />
    <glyph glyph-name="X" unicode="X" horiz-adv-x="390" 
d="M48 0h-22l156 357l-150 343h24l140 -320l140 320h22l-150 -343l156 -357h-24l-146 334z" />
    <glyph glyph-name="Y" unicode="Y" horiz-adv-x="382" 
d="M202 0h-22v323l-155 377h24l142 -348l143 348h23l-155 -377v-323z" />
    <glyph glyph-name="Z" unicode="Z" horiz-adv-x="346" 
d="M318 0h-291v20l267 659h-257v21h281v-20l-267 -659h267v-21z" />
    <glyph glyph-name="bracketleft" unicode="[" horiz-adv-x="249" 
d="M214 -100h-147v800h147v-19h-125v-762h125v-19z" />
    <glyph glyph-name="backslash" unicode="\" horiz-adv-x="346" 
d="M321 -100h-20l-276 800h20z" />
    <glyph glyph-name="bracketright" unicode="]" horiz-adv-x="249" 
d="M182 -100h-147v19h125v762h-125v19h147v-800z" />
    <glyph glyph-name="asciicircum" unicode="^" 
d="M71 431h-23l142 269h20l142 -269h-23l-129 244z" />
    <glyph glyph-name="underscore" unicode="_" horiz-adv-x="300" 
d="M300 -86h-300v18h300v-18z" />
    <glyph glyph-name="grave" unicode="`" horiz-adv-x="500" 
d="M279 569h-22l-77 114h28z" />
    <glyph glyph-name="a" unicode="a" horiz-adv-x="359" 
d="M311 0h-20c-4 19 -7 52 -8 97c-20 -68 -69 -107 -136 -107c-69 0 -112 44 -112 117s34 113 130 153c51 21 83 37 96 48s20 28 20 51v19c0 65 -38 104 -103 104c-67 0 -111 -38 -111 -109v-9h-21v8c0 83 53 130 132 130s125 -47 125 -126v-257c0 -58 3 -98 8 -119zM151 10
c79 0 130 64 130 165v132c-9 -17 -45 -39 -110 -65c-83 -35 -114 -71 -114 -134c0 -61 34 -98 94 -98z" />
    <glyph glyph-name="b" unicode="b" horiz-adv-x="377" 
d="M210 502c75 0 116 -48 116 -140v-232c0 -92 -41 -140 -116 -140c-65 0 -113 40 -133 109l-3 -99h-16v700h22v-298c21 63 69 100 130 100zM305 134v224c0 83 -33 124 -99 124c-75 0 -126 -65 -126 -165v-142c0 -100 51 -165 126 -165c66 0 99 41 99 124z" />
    <glyph glyph-name="c" unicode="c" horiz-adv-x="352" 
d="M183 -10c-87 0 -133 54 -133 154v204c0 100 46 154 133 154s130 -51 130 -154v-7h-21v8c0 89 -36 133 -109 133c-75 0 -112 -44 -112 -133v-206c0 -89 37 -133 112 -133c73 0 109 44 109 133v19h21v-18c0 -103 -43 -154 -130 -154z" />
    <glyph glyph-name="d" unicode="d" horiz-adv-x="377" 
d="M327 0h-20c-4 19 -7 52 -8 97c-20 -67 -68 -107 -131 -107c-76 0 -117 48 -117 140v232c0 93 39 140 117 140c61 0 108 -37 129 -101v299h22v-581c0 -58 3 -98 8 -119zM172 10c73 0 125 66 125 165v142c0 99 -52 165 -125 165c-67 0 -100 -41 -100 -124v-224
c0 -83 33 -124 100 -124z" />
    <glyph glyph-name="e" unicode="e" horiz-adv-x="361" 
d="M182 502c88 0 135 -56 135 -156v-92h-246v-109c0 -90 37 -135 111 -135c76 0 114 45 114 135v9h21v-8c0 -100 -47 -156 -135 -156c-87 0 -133 56 -133 156v200c0 100 46 156 133 156zM71 347v-73h225v73c0 90 -38 135 -114 135c-74 0 -111 -45 -111 -135z" />
    <glyph glyph-name="f" unicode="f" horiz-adv-x="256" 
d="M184 690c-45 0 -66 -24 -66 -79v-119h116v-20h-116v-472h-21v472h-73v20h73v120c0 65 28 98 85 98c21 0 38 -3 52 -10v-21c-13 7 -30 11 -50 11z" />
    <glyph glyph-name="g" unicode="g" horiz-adv-x="375" 
d="M298 395l1 97h18v-519c0 -92 -43 -138 -130 -138c-84 0 -131 41 -131 116v6h21v-6c0 -64 37 -96 110 -96s109 39 109 117v134c-21 -63 -69 -100 -130 -100c-75 0 -116 49 -116 141v215c0 92 41 140 116 140c64 0 112 -39 132 -107zM169 26c76 0 127 65 127 165v126
c0 100 -51 165 -127 165c-65 0 -98 -41 -98 -124v-208c0 -83 33 -124 98 -124z" />
    <glyph glyph-name="h" unicode="h" horiz-adv-x="375" 
d="M207 502c76 0 114 -47 114 -140v-362h-22v358c0 83 -32 124 -95 124c-75 0 -124 -64 -124 -165v-317h-22v700h22v-294c23 64 65 96 127 96z" />
    <glyph glyph-name="i" unicode="i" horiz-adv-x="138" 
d="M80 579h-22v94h22v-94zM80 0h-22v492h22v-492z" />
    <glyph glyph-name="j" unicode="j" horiz-adv-x="138" 
d="M80 579h-22v94h22v-94zM15 -165c-15 0 -27 3 -38 10v21c11 -7 24 -11 37 -11c32 0 44 15 44 59v578h22v-579c0 -52 -22 -78 -65 -78z" />
    <glyph glyph-name="k" unicode="k" horiz-adv-x="362" 
d="M336 0h-24l-141 283l-91 -119v-164h-22v700h22v-503l225 295h26l-146 -191z" />
    <glyph glyph-name="l" unicode="l" horiz-adv-x="138" 
d="M80 0h-22v700h22v-700z" />
    <glyph glyph-name="m" unicode="m" horiz-adv-x="591" 
d="M428 502c69 0 108 -44 108 -127v-375h-21v372c0 73 -30 110 -91 110c-69 0 -116 -65 -116 -165v-317h-22v372c0 73 -30 110 -90 110c-69 0 -116 -65 -116 -165v-317h-22v492h18l1 -95c19 65 64 105 123 105c63 0 99 -34 107 -102c19 64 62 102 121 102z" />
    <glyph glyph-name="n" unicode="n" horiz-adv-x="375" 
d="M206 502c77 0 115 -47 115 -140v-362h-22v358c0 83 -32 124 -97 124c-73 0 -122 -65 -122 -165v-317h-22v492h19v-96c20 67 68 106 129 106z" />
    <glyph glyph-name="o" unicode="o" horiz-adv-x="365" 
d="M182 -10c-87 0 -133 56 -133 156v200c0 100 46 156 133 156c88 0 135 -56 135 -156v-200c0 -100 -47 -156 -135 -156zM182 10c75 0 113 45 113 135v202c0 90 -38 135 -113 135s-112 -45 -112 -135v-202c0 -90 37 -135 112 -135z" />
    <glyph glyph-name="p" unicode="p" horiz-adv-x="377" 
d="M210 502c75 0 116 -48 116 -140v-232c0 -92 -41 -140 -116 -140c-61 0 -109 37 -130 100v-245h-22v647h18l1 -101c19 71 68 111 133 111zM304 134v224c0 83 -33 124 -98 124c-75 0 -126 -65 -126 -165v-142c0 -100 51 -165 126 -165c65 0 98 41 98 124z" />
    <glyph glyph-name="q" unicode="q" horiz-adv-x="377" 
d="M299 394l3 98h17v-647h-22v245c-21 -63 -69 -100 -130 -100c-75 0 -116 48 -116 140v232c0 92 41 140 116 140c64 0 113 -40 132 -108zM170 10c76 0 127 65 127 165v142c0 100 -51 165 -127 165c-65 0 -98 -41 -98 -124v-224c0 -83 33 -124 98 -124z" />
    <glyph glyph-name="r" unicode="r" horiz-adv-x="247" 
d="M191 502c16 0 29 -2 38 -7v-22c-11 5 -23 8 -37 8c-75 0 -112 -63 -112 -188v-293h-22v492h18l1 -98c15 72 53 108 114 108z" />
    <glyph glyph-name="s" unicode="s" horiz-adv-x="335" 
d="M169 -10c-81 0 -132 47 -132 126v18h21v-18c0 -67 42 -106 110 -106c67 0 110 38 110 105c0 35 -11 61 -36 80c-25 20 -40 28 -77 44c-40 17 -55 26 -83 47c-28 23 -40 53 -40 94c0 75 51 122 124 122s124 -47 124 -126v-8h-20v8c0 67 -43 106 -104 106
c-59 0 -103 -39 -103 -102c0 -33 11 -59 36 -79c25 -19 39 -26 76 -43c40 -17 56 -25 84 -48s40 -54 40 -95c0 -79 -50 -125 -130 -125z" />
    <glyph glyph-name="t" unicode="t" horiz-adv-x="253" 
d="M229 492v-20h-115v-383c0 -55 20 -79 65 -79c20 0 37 4 50 11v-21c-14 -7 -31 -10 -52 -10c-57 0 -85 33 -85 98v384h-69v20h69l4 156h18v-156h115z" />
    <glyph glyph-name="u" unicode="u" horiz-adv-x="375" 
d="M296 175v317h21v-492h-19v96c-20 -67 -67 -106 -128 -106c-77 0 -115 47 -115 140v362h21v-358c0 -83 32 -124 97 -124c73 0 123 65 123 165z" />
    <glyph glyph-name="v" unicode="v" horiz-adv-x="351" 
d="M190 0h-29l-134 492h22l127 -465l127 465h21z" />
    <glyph glyph-name="w" unicode="w" horiz-adv-x="523" 
d="M163 0h-29l-105 492h22l99 -461l99 461h27l99 -461l99 461h21l-105 -492h-28l-100 455z" />
    <glyph glyph-name="x" unicode="x" horiz-adv-x="350" 
d="M50 0h-22l134 251l-129 241h24l118 -223l119 223h23l-129 -241l134 -251h-24l-124 233z" />
    <glyph glyph-name="y" unicode="y" horiz-adv-x="349" 
d="M302 492h20l-126 -460h1l-29 -110c-17 -64 -41 -87 -88 -87c-18 0 -32 3 -41 10v21c10 -7 23 -11 39 -11c37 0 53 17 68 70l23 89l-142 478h22l132 -442z" />
    <glyph glyph-name="z" unicode="z" horiz-adv-x="318" 
d="M287 0h-256v19l232 453h-222v20h246v-19l-233 -453h233v-20z" />
    <glyph glyph-name="braceleft" unicode="{" horiz-adv-x="249" 
d="M213 -100h-22c-61 0 -88 26 -88 101v189c0 69 -12 100 -67 100v19c55 1 67 31 67 98l-1 192c1 72 25 101 88 101h22v-20h-16c-55 0 -71 -21 -72 -88l1 -188c0 -64 -14 -95 -54 -104v-1c40 -8 54 -40 54 -107v-184c0 -67 18 -88 71 -88h17v-20z" />
    <glyph glyph-name="bar" unicode="|" horiz-adv-x="300" 
d="M160 -200h-20v1001h20v-1001z" />
    <glyph glyph-name="braceright" unicode="}" horiz-adv-x="249" 
d="M58 -100h-21v20h16c55 0 72 21 72 88v184c0 68 13 99 53 107v1c-40 9 -53 40 -53 104l-1 188c1 67 -17 88 -72 88h-16v20h22c64 0 89 -29 88 -101l1 -192c0 -67 12 -97 67 -98v-19c-55 0 -67 -31 -67 -100v-189c0 -75 -26 -101 -89 -101z" />
    <glyph glyph-name="asciitilde" unicode="~" 
d="M42 252l-15 11c27 54 59 81 96 81c21 0 48 -12 81 -35c93 -64 118 -26 154 37l16 -11c-28 -52 -54 -80 -97 -80c-21 0 -47 11 -80 34c-32 23 -57 34 -74 34c-30 0 -57 -24 -81 -71z" />
    <glyph glyph-name="uni00A0" unicode="&#xa0;" horiz-adv-x="163" 
 />
    <glyph glyph-name="exclamdown" unicode="&#xa1;" horiz-adv-x="169" 
d="M96 410h-23v82h23v-82zM95 -209h-22v393l2 149h17l3 -149v-393z" />
    <glyph glyph-name="cent" unicode="&#xa2;" 
d="M349 489v-25h-21v26c0 83 -43 133 -115 137v-555c72 4 115 54 115 137v46h21v-45c0 -96 -51 -155 -136 -159v-71h-20v71c-84 5 -134 64 -134 159v279c0 95 50 154 134 159v62h20v-62c85 -4 136 -63 136 -159zM81 490v-281c0 -81 41 -132 112 -137v555
c-71 -5 -112 -56 -112 -137z" />
    <glyph glyph-name="sterling" unicode="&#xa3;" 
d="M352 0h-304v20c68 73 102 141 102 202c0 12 -1 24 -3 36h-89v20h85c-7 21 -18 46 -33 76c-31 60 -50 113 -50 192c0 93 44 164 145 164c53 0 90 -16 113 -48c23 -31 34 -71 34 -118v-18h-21v19c0 96 -42 144 -126 144c-88 0 -123 -61 -123 -144c0 -39 5 -73 14 -103
c20 -60 56 -124 68 -164h157v-20h-152c2 -11 3 -23 3 -36c0 -58 -33 -125 -98 -201h278v-21z" />
    <glyph glyph-name="currency" unicode="&#xa4;" 
d="M284 279l52 -52l-13 -13l-52 52c-19 -17 -42 -25 -71 -25s-52 8 -71 25l-52 -52l-13 13l52 52c-17 19 -25 42 -25 71s8 52 25 71l-52 52l13 13l52 -52c19 17 42 25 71 25s52 -8 71 -25l52 52l13 -13l-52 -52c17 -19 25 -42 25 -71s-8 -52 -25 -71zM135 285
c17 -17 39 -25 65 -25s47 8 64 25s26 39 26 65s-9 47 -26 64s-38 26 -64 26s-48 -9 -65 -26s-25 -38 -25 -64s8 -48 25 -65z" />
    <glyph glyph-name="yen" unicode="&#xa5;" 
d="M366 700l-155 -377v-13h125v-20h-125v-121h125v-20h-125v-149h-22v149h-123v20h123v121h-123v20h123v13l-155 377h24l142 -348l143 348h23z" />
    <glyph glyph-name="brokenbar" unicode="&#xa6;" horiz-adv-x="300" 
d="M160 400h-20v400h20v-400zM160 -200h-20v400h20v-400z" />
    <glyph glyph-name="section" unicode="&#xa7;" horiz-adv-x="416" 
d="M252 156c61 -29 95 -66 95 -130c0 -80 -59 -133 -139 -133c-81 0 -139 53 -139 136v10h22v-10c0 -72 48 -116 117 -116c65 0 117 44 117 112c0 37 -13 66 -42 87s-48 30 -91 47c-39 16 -51 21 -82 40c-43 26 -61 58 -65 115c0 75 44 122 119 133c-61 29 -95 66 -95 130
c0 80 59 133 139 133c81 0 139 -53 139 -136v-10h-22v10c0 72 -48 116 -117 116c-65 0 -117 -44 -117 -112c0 -37 13 -66 42 -87s48 -30 91 -47c39 -16 51 -21 82 -40c43 -26 61 -58 65 -115c0 -75 -44 -122 -119 -133zM67 316c0 -39 13 -67 42 -90c31 -21 48 -29 93 -48
c4 -1 15 -5 19 -8h3c76 0 125 45 125 117c0 39 -12 68 -43 89c-29 23 -47 30 -92 49c-4 3 -15 7 -19 8h-3c-76 0 -125 -45 -125 -117z" />
    <glyph glyph-name="dieresis" unicode="&#xa8;" horiz-adv-x="500" 
d="M206 579h-22v94h22v-94zM316 579h-22v94h22v-94z" />
    <glyph glyph-name="copyright" unicode="&#xa9;" horiz-adv-x="777" 
d="M638 92c-66 -68 -149 -102 -249 -102s-183 34 -249 102c-66 69 -99 155 -99 258s33 189 99 257c66 69 149 103 249 103s183 -34 249 -103c66 -68 99 -154 99 -257s-33 -189 -99 -258zM389 9c95 0 173 32 235 96c62 65 93 146 93 245s-31 180 -93 244
c-62 65 -140 97 -235 97s-174 -32 -236 -97c-62 -64 -93 -145 -93 -244s31 -180 93 -245c62 -64 141 -96 236 -96zM284 246v208c0 77 34 115 102 115s102 -38 102 -115v-19h-19v20c0 63 -27 95 -82 95s-83 -32 -83 -95v-210c0 -63 28 -95 83 -95s82 32 82 95v31h19v-30
c0 -77 -34 -115 -102 -115s-102 38 -102 115z" />
    <glyph glyph-name="ordfeminine" unicode="&#xaa;" horiz-adv-x="284" 
d="M130 534c37 16 59 28 68 35c9 8 14 20 14 36v14c0 45 -27 73 -72 73c-48 0 -79 -28 -79 -77v-7h-18v7c0 61 38 95 97 95s91 -36 91 -93v-185c0 -39 2 -69 7 -88h-19c-2 10 -4 32 -5 67c-16 -50 -49 -75 -98 -75c-51 0 -82 33 -82 85c0 56 27 84 96 113zM120 354
c56 0 92 44 92 116v95c-5 -12 -32 -28 -79 -48c-57 -23 -79 -49 -79 -94c0 -43 25 -69 66 -69zM232 247h-191v18h191v-18z" />
    <glyph glyph-name="guillemotleft" unicode="&#xab;" horiz-adv-x="237" 
d="M105 217h-18l-44 83l44 82h18l-38 -82zM193 217h-18l-43 83l43 82h18l-38 -82z" />
    <glyph glyph-name="logicalnot" unicode="&#xac;" 
d="M350 166h-21v155h-307v21h328v-176z" />
    <glyph glyph-name="uni00AD" unicode="&#xad;" horiz-adv-x="256" 
d="M218 290h-180v19h180v-19z" />
    <glyph glyph-name="registered" unicode="&#xae;" horiz-adv-x="777" 
d="M638 92c-66 -68 -149 -102 -249 -102s-183 34 -249 102c-66 69 -99 155 -99 258s33 189 99 257c66 69 149 103 249 103s183 -34 249 -103c66 -68 99 -154 99 -257s-33 -189 -99 -258zM389 9c95 0 173 32 235 96c62 65 93 146 93 245s-31 180 -93 244
c-62 65 -140 97 -235 97s-174 -32 -236 -97c-62 -64 -93 -145 -93 -244s31 -180 93 -245c62 -64 141 -96 236 -96zM315 136h-20v428h98c72 0 102 -28 102 -103v-21c0 -56 -18 -84 -65 -93v-1c43 -5 65 -34 65 -87v-65c0 -27 3 -47 10 -58h-22c-5 15 -8 35 -8 58v65
c0 59 -28 78 -96 78h-64v-201zM315 545v-189h66c68 0 94 21 94 82v22c0 60 -22 85 -83 85h-77z" />
    <glyph glyph-name="overscore" unicode="&#xaf;" horiz-adv-x="500" 
d="M340 616h-180v20h180v-20z" />
    <glyph glyph-name="degree" unicode="&#xb0;" 
d="M266 549c-36 -37 -96 -37 -133 0c-36 37 -36 97 0 133c37 37 97 37 133 0c37 -36 37 -96 0 -133zM274 616c0 43 -31 74 -74 74s-74 -31 -74 -74c0 -41 33 -75 74 -75s74 34 74 75z" />
    <glyph glyph-name="plusminus" unicode="&#xb1;" 
d="M354 130h-308v21h144v152h-144v20h144v153h20v-153h144v-20h-144v-152h144v-21z" />
    <glyph glyph-name="uni00B2" unicode="&#xb2;" horiz-adv-x="291" 
d="M240 351h-187v24c0 79 33 127 93 187c53 55 78 87 78 136c0 59 -25 89 -75 89c-52 0 -78 -29 -78 -88v-26h-18v25c0 61 28 107 96 107c65 0 94 -43 94 -106c0 -56 -26 -91 -83 -150c-59 -59 -88 -103 -88 -171v-9h168v-18z" />
    <glyph glyph-name="uni00B3" unicode="&#xb3;" horiz-adv-x="291" 
d="M141 341c-64 0 -96 36 -96 107v29h19v-30c0 -59 26 -88 77 -88c52 0 78 30 78 89v45c0 54 -24 81 -73 81h-31v18h32c44 0 72 31 72 82v24c0 59 -26 89 -77 89s-76 -29 -76 -88v-21h-18v20c0 71 31 107 94 107s97 -40 97 -107v-21c0 -49 -23 -84 -60 -93v-1
c39 -7 59 -37 59 -90v-45c0 -71 -32 -107 -97 -107z" />
    <glyph glyph-name="acute" unicode="&#xb4;" horiz-adv-x="500" 
d="M243 569h-22l71 114h28z" />
    <glyph glyph-name="uni00B5" unicode="&#xb5;" horiz-adv-x="379" 
d="M299 175v317h22v-492h-19l-1 96c-19 -67 -67 -106 -128 -106c-43 0 -74 15 -93 45v-190h-22v647h22v-358c0 -83 32 -124 96 -124c73 0 123 65 123 165z" />
    <glyph glyph-name="paragraph" unicode="&#xb6;" horiz-adv-x="438" 
d="M231 -97h-20v399c-109 4 -163 58 -163 163v71c0 109 55 163 165 164h154v-797h-20v777h-116v-777z" />
    <glyph glyph-name="middot" unicode="&#xb7;" horiz-adv-x="150" 
d="M86 262h-22v76h22v-76z" />
    <glyph glyph-name="cedilla" unicode="&#xb8;" horiz-adv-x="500" 
d="M254 -155c-50 0 -75 18 -75 53v5h19v-5c0 -24 18 -36 55 -36s56 12 56 36c0 23 -17 34 -51 34h-11v70h16v-55c43 0 65 -16 65 -48c0 -36 -25 -54 -74 -54z" />
    <glyph glyph-name="uni00B9" unicode="&#xb9;" horiz-adv-x="291" 
d="M180 351h-20v404c-15 -23 -42 -37 -80 -42v18c43 3 71 25 85 64h15v-444z" />
    <glyph glyph-name="ordmasculine" unicode="&#xba;" horiz-adv-x="285" 
d="M141 336c-63 0 -97 41 -97 114v146c0 73 34 114 97 114c64 0 100 -41 100 -114v-146c0 -73 -36 -114 -100 -114zM141 354c54 0 81 32 81 95v148c0 61 -29 96 -81 96c-51 0 -78 -35 -78 -96v-148c0 -63 26 -95 78 -95zM237 249h-191v18h191v-18z" />
    <glyph glyph-name="guillemotright" unicode="&#xbb;" horiz-adv-x="238" 
d="M62 217h-18l38 83l-38 82h18l44 -82zM151 217h-19l39 83l-39 82h19l43 -82z" />
    <glyph glyph-name="onequarter" unicode="&#xbc;" horiz-adv-x="652" 
d="M180 256h-20v404c-15 -23 -42 -37 -80 -42v18c43 3 71 25 85 64h15v-444zM199 0h-20l276 700h19zM579 0h-20v100h-160v20l157 324h23v-326h39v-18h-39v-100zM559 410l-141 -292h141v292z" />
    <glyph glyph-name="onehalf" unicode="&#xbd;" horiz-adv-x="652" 
d="M180 256h-20v404c-15 -23 -42 -37 -80 -42v18c43 3 71 25 85 64h15v-444zM199 0h-20l276 700h19zM602 0h-187v24c0 79 33 127 93 187c53 55 78 87 78 136c0 59 -25 89 -75 89c-52 0 -78 -29 -78 -88v-26h-18v25c0 61 28 107 96 107c65 0 94 -43 94 -106
c0 -56 -26 -91 -83 -150c-59 -59 -88 -103 -88 -171v-9h168v-18z" />
    <glyph glyph-name="threequarters" unicode="&#xbe;" horiz-adv-x="652" 
d="M141 246c-64 0 -96 36 -96 107v29h19v-30c0 -59 26 -88 77 -88c52 0 78 30 78 89v45c0 54 -24 81 -73 81h-31v18h32c44 0 72 31 72 82v24c0 59 -26 89 -77 89s-76 -29 -76 -88v-21h-18v20c0 71 31 107 94 107s97 -40 97 -107v-21c0 -49 -23 -84 -60 -93v-1
c39 -7 59 -37 59 -90v-45c0 -71 -32 -107 -97 -107zM199 0h-20l276 700h19zM579 0h-20v100h-160v20l157 324h23v-326h39v-18h-39v-100zM559 410l-141 -292h141v292z" />
    <glyph glyph-name="questiondown" unicode="&#xbf;" horiz-adv-x="363" 
d="M212 410h-23v82h23v-82zM180 -218c-99 0 -143 62 -143 158c0 69 24 113 75 178l39 54c19 28 39 76 39 123v38h21v-38c0 -25 -5 -49 -14 -74s-18 -44 -27 -57l-40 -56c-17 -23 -29 -41 -37 -53c-15 -23 -34 -71 -34 -116c0 -91 41 -136 122 -136c87 0 125 57 125 144v40
h21v-39c0 -101 -46 -166 -147 -166z" />
    <glyph glyph-name="Agrave" unicode="&#xc0;" 
d="M158 881l71 -114h-22l-77 114h28zM373 0h-22l-39 170h-226l-38 -170h-21l156 703h30zM198 674l-107 -483h217z" />
    <glyph glyph-name="Aacute" unicode="&#xc1;" 
d="M242 881h28l-77 -114h-22zM373 0h-22l-39 170h-226l-38 -170h-21l156 703h30zM198 674l-107 -483h217z" />
    <glyph glyph-name="Acircumflex" unicode="&#xc2;" 
d="M263 767l-63 98l-63 -98h-22l73 114h24l73 -114h-22zM373 0h-22l-39 170h-226l-38 -170h-21l156 703h30zM198 674l-107 -483h217z" />
    <glyph glyph-name="Atilde" unicode="&#xc3;" 
d="M161 834c-17 0 -32 -15 -45 -45l-15 8c16 37 36 56 60 56c14 0 30 -7 48 -21c13 -12 26 -18 37 -18c17 0 31 15 44 45l15 -8c-16 -37 -36 -56 -59 -56c-15 0 -32 7 -49 22c-13 11 -25 17 -36 17zM373 0h-22l-39 170h-226l-38 -170h-21l156 703h30zM198 674l-107 -483h217
z" />
    <glyph glyph-name="Adieresis" unicode="&#xc4;" 
d="M134 871h22v-94h-22v94zM244 871h22v-94h-22v94zM373 0h-22l-39 170h-226l-38 -170h-21l156 703h30zM198 674l-107 -483h217z" />
    <glyph glyph-name="Aring" unicode="&#xc5;" 
d="M137 830c0 36 27 64 63 64s63 -28 63 -64c0 -35 -27 -63 -63 -63s-63 28 -63 63zM233 863c-17 19 -49 19 -66 0c-17 -17 -17 -49 0 -66s49 -17 66 0s17 49 0 66zM373 0h-22l-39 170h-226l-38 -170h-21l156 703h30zM198 674l-107 -483h217z" />
    <glyph glyph-name="AE" unicode="&#xc6;" horiz-adv-x="592" 
d="M565 700v-21h-242v-302h203v-21h-203v-335h242v-21h-264v170h-191l-64 -170h-22l265 700h276zM301 675l-183 -484h183v484z" />
    <glyph glyph-name="Ccedilla" unicode="&#xc7;" horiz-adv-x="382" 
d="M342 551v-69h-22v70c0 85 -47 137 -124 137c-76 0 -123 -52 -123 -137v-404c0 -85 47 -137 123 -137c77 0 124 52 124 137v90h22v-89c0 -96 -51 -155 -138 -159v-43c43 0 65 -16 65 -48c0 -36 -25 -54 -74 -54c-50 0 -75 18 -75 53v5h19v-5c0 -24 18 -36 55 -36
s56 12 56 36c0 23 -17 34 -51 34h-11v58c-85 3 -137 63 -137 159v402c0 99 55 159 144 159c92 0 147 -59 147 -159z" />
    <glyph glyph-name="Egrave" unicode="&#xc8;" horiz-adv-x="349" 
d="M219 767h-22l-77 114h28zM322 0h-264v700h264v-21h-242v-304h203v-20h-203v-334h242v-21z" />
    <glyph glyph-name="Eacute" unicode="&#xc9;" horiz-adv-x="349" 
d="M183 767h-22l71 114h28zM322 0h-264v700h264v-21h-242v-304h203v-20h-203v-334h242v-21z" />
    <glyph glyph-name="Ecircumflex" unicode="&#xca;" horiz-adv-x="349" 
d="M127 767h-22l73 114h24l73 -114h-22l-63 98zM322 0h-264v700h264v-21h-242v-304h203v-20h-203v-334h242v-21z" />
    <glyph glyph-name="Edieresis" unicode="&#xcb;" horiz-adv-x="349" 
d="M146 777h-22v94h22v-94zM256 777h-22v94h22v-94zM322 0h-264v700h264v-21h-242v-304h203v-20h-203v-334h242v-21z" />
    <glyph glyph-name="Igrave" unicode="&#xcc;" horiz-adv-x="138" 
d="M98 767h-22l-77 114h28zM80 0h-22v700h22v-700z" />
    <glyph glyph-name="Iacute" unicode="&#xcd;" horiz-adv-x="138" 
d="M62 767h-22l71 114h28zM80 0h-22v700h22v-700z" />
    <glyph glyph-name="Icircumflex" unicode="&#xce;" horiz-adv-x="138" 
d="M6 767h-22l73 114h24l73 -114h-22l-63 98zM80 0h-22v700h22v-700z" />
    <glyph glyph-name="Idieresis" unicode="&#xcf;" horiz-adv-x="138" 
d="M25 777h-22v94h22v-94zM135 777h-22v94h22v-94zM80 0h-22v700h22v-700z" />
    <glyph glyph-name="Eth" unicode="&#xd0;" horiz-adv-x="412" 
d="M67 700h146c104 0 149 -49 149 -164v-372c0 -115 -45 -164 -149 -164h-146v355h-42v20h42v325zM340 164v372c0 101 -37 143 -128 143h-123v-304h115v-20h-115v-334h123c91 0 128 42 128 143z" />
    <glyph glyph-name="Ntilde" unicode="&#xd1;" horiz-adv-x="415" 
d="M124 789l-15 8c16 37 36 56 60 56c14 0 30 -7 48 -21c13 -12 26 -18 37 -18c17 0 31 15 44 45l15 -8c-16 -37 -36 -56 -59 -56c-15 0 -32 7 -49 22c-13 11 -25 17 -36 17c-17 0 -32 -15 -45 -45zM79 0h-21v700h33l245 -649v649h21v-700h-26l-252 669v-669z" />
    <glyph glyph-name="Ograve" unicode="&#xd2;" 
d="M229 767h-22l-77 114h28zM51 156v388c0 108 53 166 149 166s149 -58 149 -166v-388c0 -108 -53 -166 -149 -166s-149 58 -149 166zM327 155v390c0 96 -42 144 -127 144s-127 -48 -127 -144v-390c0 -96 42 -144 127 -144s127 48 127 144z" />
    <glyph glyph-name="Oacute" unicode="&#xd3;" 
d="M193 767h-22l71 114h28zM51 156v388c0 108 53 166 149 166s149 -58 149 -166v-388c0 -108 -53 -166 -149 -166s-149 58 -149 166zM327 155v390c0 96 -42 144 -127 144s-127 -48 -127 -144v-390c0 -96 42 -144 127 -144s127 48 127 144z" />
    <glyph glyph-name="Ocircumflex" unicode="&#xd4;" 
d="M137 767h-22l73 114h24l73 -114h-22l-63 98zM51 156v388c0 108 53 166 149 166s149 -58 149 -166v-388c0 -108 -53 -166 -149 -166s-149 58 -149 166zM327 155v390c0 96 -42 144 -127 144s-127 -48 -127 -144v-390c0 -96 42 -144 127 -144s127 48 127 144z" />
    <glyph glyph-name="Otilde" unicode="&#xd5;" 
d="M116 789l-15 8c16 37 36 56 60 56c14 0 30 -7 48 -21c13 -12 26 -18 37 -18c17 0 31 15 44 45l15 -8c-16 -37 -36 -56 -59 -56c-15 0 -32 7 -49 22c-13 11 -25 17 -36 17c-17 0 -32 -15 -45 -45zM51 156v388c0 108 53 166 149 166s149 -58 149 -166v-388
c0 -108 -53 -166 -149 -166s-149 58 -149 166zM327 155v390c0 96 -42 144 -127 144s-127 -48 -127 -144v-390c0 -96 42 -144 127 -144s127 48 127 144z" />
    <glyph glyph-name="Odieresis" unicode="&#xd6;" 
d="M156 777h-22v94h22v-94zM266 777h-22v94h22v-94zM51 156v388c0 108 53 166 149 166s149 -58 149 -166v-388c0 -108 -53 -166 -149 -166s-149 58 -149 166zM327 155v390c0 96 -42 144 -127 144s-127 -48 -127 -144v-390c0 -96 42 -144 127 -144s127 48 127 144z" />
    <glyph glyph-name="multiply" unicode="&#xd7;" 
d="M201 286l-130 -131l-14 14l130 131l-130 131l14 14l130 -131l131 131l14 -14l-131 -131l131 -131l-14 -14z" />
    <glyph glyph-name="Oslash" unicode="&#xd8;" 
d="M335 726l15 -7l-26 -69c17 -27 25 -63 25 -106v-388c0 -108 -53 -166 -149 -166c-49 0 -87 15 -112 44l-23 -60l-15 7l26 69c-17 27 -25 63 -25 106v388c0 108 53 166 149 166c49 0 87 -15 112 -44zM73 545v-390c0 -30 5 -56 14 -78l216 565c-21 31 -56 47 -103 47
c-85 0 -127 -48 -127 -144zM327 155v390c0 30 -5 56 -14 78l-216 -565c21 -31 56 -47 103 -47c85 0 127 48 127 144z" />
    <glyph glyph-name="Ugrave" unicode="&#xd9;" horiz-adv-x="404" 
d="M231 767h-22l-77 114h28zM55 156v544h22v-545c0 -96 42 -144 125 -144c84 0 126 48 126 144v545h21v-544c0 -108 -51 -166 -147 -166s-147 58 -147 166z" />
    <glyph glyph-name="Uacute" unicode="&#xda;" horiz-adv-x="404" 
d="M195 767h-22l71 114h28zM55 156v544h22v-545c0 -96 42 -144 125 -144c84 0 126 48 126 144v545h21v-544c0 -108 -51 -166 -147 -166s-147 58 -147 166z" />
    <glyph glyph-name="Ucircumflex" unicode="&#xdb;" horiz-adv-x="404" 
d="M139 767h-22l73 114h24l73 -114h-22l-63 98zM55 156v544h22v-545c0 -96 42 -144 125 -144c84 0 126 48 126 144v545h21v-544c0 -108 -51 -166 -147 -166s-147 58 -147 166z" />
    <glyph glyph-name="Udieresis" unicode="&#xdc;" horiz-adv-x="404" 
d="M158 777h-22v94h22v-94zM268 777h-22v94h22v-94zM55 156v544h22v-545c0 -96 42 -144 125 -144c84 0 126 48 126 144v545h21v-544c0 -108 -51 -166 -147 -166s-147 58 -147 166z" />
    <glyph glyph-name="Yacute" unicode="&#xdd;" horiz-adv-x="382" 
d="M185 767h-22l71 114h28zM202 0h-22v323l-155 377h24l142 -348l143 348h23l-155 -377v-323z" />
    <glyph glyph-name="Thorn" unicode="&#xde;" horiz-adv-x="378" 
d="M80 0h-22v700h22v-117h115c104 0 149 -50 149 -165v-44c0 -115 -45 -164 -149 -164h-115v-210zM80 562v-331h115c91 0 127 41 127 142v46c0 101 -36 143 -127 143h-115z" />
    <glyph glyph-name="germandbls" unicode="&#xdf;" horiz-adv-x="386" 
d="M227 -10c-24 0 -44 3 -61 10v22c15 -8 35 -12 60 -12c69 0 108 41 108 114c0 19 -4 36 -12 51c-15 29 -27 39 -59 60c-17 11 -30 21 -39 29c-17 17 -38 53 -38 98c0 17 2 32 7 45c9 28 17 36 37 60c11 12 19 22 24 30c11 16 23 49 23 86c0 69 -35 107 -96 107
c-64 0 -101 -45 -101 -125v-565h-22v564c0 93 44 146 123 146c73 0 118 -45 118 -128c0 -47 -16 -88 -49 -123c-25 -28 -39 -45 -42 -97c0 -19 4 -36 11 -51c16 -29 29 -39 60 -60c16 -11 28 -21 37 -29c19 -16 39 -53 39 -98c0 -85 -47 -134 -128 -134z" />
    <glyph glyph-name="agrave" unicode="&#xe0;" horiz-adv-x="359" 
d="M132 683l71 -114h-22l-77 114h28zM311 0h-20c-4 19 -7 52 -8 97c-20 -68 -69 -107 -136 -107c-69 0 -112 44 -112 117s34 113 130 153c51 21 83 37 96 48s20 28 20 51v19c0 65 -38 104 -103 104c-67 0 -111 -38 -111 -109v-9h-21v8c0 83 53 130 132 130s125 -47 125 -126
v-257c0 -58 3 -98 8 -119zM151 10c79 0 130 64 130 165v132c-9 -17 -45 -39 -110 -65c-83 -35 -114 -71 -114 -134c0 -61 34 -98 94 -98z" />
    <glyph glyph-name="aacute" unicode="&#xe1;" horiz-adv-x="359" 
d="M216 683h28l-77 -114h-22zM311 0h-20c-4 19 -7 52 -8 97c-20 -68 -69 -107 -136 -107c-69 0 -112 44 -112 117s34 113 130 153c51 21 83 37 96 48s20 28 20 51v19c0 65 -38 104 -103 104c-67 0 -111 -38 -111 -109v-9h-21v8c0 83 53 130 132 130s125 -47 125 -126v-257
c0 -58 3 -98 8 -119zM151 10c79 0 130 64 130 165v132c-9 -17 -45 -39 -110 -65c-83 -35 -114 -71 -114 -134c0 -61 34 -98 94 -98z" />
    <glyph glyph-name="acircumflex" unicode="&#xe2;" horiz-adv-x="359" 
d="M237 569l-63 98l-63 -98h-22l73 114h24l73 -114h-22zM311 0h-20c-4 19 -7 52 -8 97c-20 -68 -69 -107 -136 -107c-69 0 -112 44 -112 117s34 113 130 153c51 21 83 37 96 48s20 28 20 51v19c0 65 -38 104 -103 104c-67 0 -111 -38 -111 -109v-9h-21v8
c0 83 53 130 132 130s125 -47 125 -126v-257c0 -58 3 -98 8 -119zM151 10c79 0 130 64 130 165v132c-9 -17 -45 -39 -110 -65c-83 -35 -114 -71 -114 -134c0 -61 34 -98 94 -98z" />
    <glyph glyph-name="atilde" unicode="&#xe3;" horiz-adv-x="359" 
d="M135 636c-17 0 -32 -15 -45 -45l-15 8c16 37 36 56 60 56c14 0 30 -7 48 -21c13 -12 26 -18 37 -18c17 0 31 15 44 45l15 -8c-16 -37 -36 -56 -59 -56c-15 0 -32 7 -49 22c-13 11 -25 17 -36 17zM311 0h-20c-4 19 -7 52 -8 97c-20 -68 -69 -107 -136 -107
c-69 0 -112 44 -112 117s34 113 130 153c51 21 83 37 96 48s20 28 20 51v19c0 65 -38 104 -103 104c-67 0 -111 -38 -111 -109v-9h-21v8c0 83 53 130 132 130s125 -47 125 -126v-257c0 -58 3 -98 8 -119zM151 10c79 0 130 64 130 165v132c-9 -17 -45 -39 -110 -65
c-83 -35 -114 -71 -114 -134c0 -61 34 -98 94 -98z" />
    <glyph glyph-name="adieresis" unicode="&#xe4;" horiz-adv-x="359" 
d="M108 673h22v-94h-22v94zM218 673h22v-94h-22v94zM311 0h-20c-4 19 -7 52 -8 97c-20 -68 -69 -107 -136 -107c-69 0 -112 44 -112 117s34 113 130 153c51 21 83 37 96 48s20 28 20 51v19c0 65 -38 104 -103 104c-67 0 -111 -38 -111 -109v-9h-21v8c0 83 53 130 132 130
s125 -47 125 -126v-257c0 -58 3 -98 8 -119zM151 10c79 0 130 64 130 165v132c-9 -17 -45 -39 -110 -65c-83 -35 -114 -71 -114 -134c0 -61 34 -98 94 -98z" />
    <glyph glyph-name="aring" unicode="&#xe5;" horiz-adv-x="359" 
d="M111 632c0 36 27 64 63 64s63 -28 63 -64c0 -35 -27 -63 -63 -63s-63 28 -63 63zM207 665c-17 19 -49 19 -66 0c-17 -17 -17 -49 0 -66s49 -17 66 0s17 49 0 66zM311 0h-20c-4 19 -7 52 -8 97c-20 -68 -69 -107 -136 -107c-69 0 -112 44 -112 117s34 113 130 153
c51 21 83 37 96 48s20 28 20 51v19c0 65 -38 104 -103 104c-67 0 -111 -38 -111 -109v-9h-21v8c0 83 53 130 132 130s125 -47 125 -126v-257c0 -58 3 -98 8 -119zM151 10c79 0 130 64 130 165v132c-9 -17 -45 -39 -110 -65c-83 -35 -114 -71 -114 -134c0 -61 34 -98 94 -98z
" />
    <glyph glyph-name="ae" unicode="&#xe6;" horiz-adv-x="594" 
d="M550 346v-92h-247v-109c0 -90 37 -135 112 -135s114 47 114 135v9h21v-8c0 -100 -47 -156 -135 -156c-73 0 -116 36 -129 109c-19 -68 -70 -109 -138 -109c-71 0 -113 44 -113 117s34 113 130 153c51 21 83 37 96 48s20 28 20 51v19c0 65 -38 104 -103 104
c-67 0 -111 -40 -111 -109v-9h-21v8c0 83 52 130 131 130c67 0 106 -29 117 -88c17 59 58 88 122 88c87 0 134 -56 134 -156zM303 347v-73h225v73c0 90 -38 135 -113 135s-112 -45 -112 -135zM151 10c80 0 130 64 130 165h1v14h-1v118c-9 -17 -45 -39 -110 -65
c-83 -35 -114 -71 -114 -134c0 -61 34 -98 94 -98z" />
    <glyph glyph-name="ccedilla" unicode="&#xe7;" horiz-adv-x="352" 
d="M313 348v-7h-21v8c0 89 -36 133 -109 133c-75 0 -112 -44 -112 -133v-206c0 -89 37 -133 112 -133c73 0 109 44 109 133v19h21v-18c0 -100 -41 -151 -122 -154v-43c43 0 65 -16 65 -48c0 -36 -25 -54 -74 -54c-50 0 -75 18 -75 53v5h19v-5c0 -24 18 -36 55 -36
s56 12 56 36c0 23 -17 34 -51 34h-11v58c-83 3 -125 55 -125 154v204c0 100 46 154 133 154s130 -51 130 -154z" />
    <glyph glyph-name="egrave" unicode="&#xe8;" horiz-adv-x="361" 
d="M139 683l71 -114h-22l-77 114h28zM182 502c88 0 135 -56 135 -156v-92h-246v-109c0 -90 37 -135 111 -135c76 0 114 45 114 135v9h21v-8c0 -100 -47 -156 -135 -156c-87 0 -133 56 -133 156v200c0 100 46 156 133 156zM71 347v-73h225v73c0 90 -38 135 -114 135
c-74 0 -111 -45 -111 -135z" />
    <glyph glyph-name="eacute" unicode="&#xe9;" horiz-adv-x="361" 
d="M223 683h28l-77 -114h-22zM182 502c88 0 135 -56 135 -156v-92h-246v-109c0 -90 37 -135 111 -135c76 0 114 45 114 135v9h21v-8c0 -100 -47 -156 -135 -156c-87 0 -133 56 -133 156v200c0 100 46 156 133 156zM71 347v-73h225v73c0 90 -38 135 -114 135
c-74 0 -111 -45 -111 -135z" />
    <glyph glyph-name="ecircumflex" unicode="&#xea;" horiz-adv-x="361" 
d="M244 569l-63 98l-63 -98h-22l73 114h24l73 -114h-22zM182 502c88 0 135 -56 135 -156v-92h-246v-109c0 -90 37 -135 111 -135c76 0 114 45 114 135v9h21v-8c0 -100 -47 -156 -135 -156c-87 0 -133 56 -133 156v200c0 100 46 156 133 156zM71 347v-73h225v73
c0 90 -38 135 -114 135c-74 0 -111 -45 -111 -135z" />
    <glyph glyph-name="edieresis" unicode="&#xeb;" horiz-adv-x="361" 
d="M115 673h22v-94h-22v94zM225 673h22v-94h-22v94zM182 502c88 0 135 -56 135 -156v-92h-246v-109c0 -90 37 -135 111 -135c76 0 114 45 114 135v9h21v-8c0 -100 -47 -156 -135 -156c-87 0 -133 56 -133 156v200c0 100 46 156 133 156zM71 347v-73h225v73
c0 90 -38 135 -114 135c-74 0 -111 -45 -111 -135z" />
    <glyph glyph-name="igrave" unicode="&#xec;" horiz-adv-x="138" 
d="M98 569h-22l-77 114h28zM80 0h-22v492h22v-492z" />
    <glyph glyph-name="iacute" unicode="&#xed;" horiz-adv-x="138" 
d="M62 569h-22l71 114h28zM80 0h-22v492h22v-492z" />
    <glyph glyph-name="icircumflex" unicode="&#xee;" horiz-adv-x="138" 
d="M6 569h-22l73 114h24l73 -114h-22l-63 98zM80 0h-22v492h22v-492z" />
    <glyph glyph-name="idieresis" unicode="&#xef;" horiz-adv-x="138" 
d="M25 579h-22v94h22v-94zM135 579h-22v94h22v-94zM80 0h-22v492h22v-492z" />
    <glyph glyph-name="eth" unicode="&#xf0;" horiz-adv-x="369" 
d="M295 700h26l-81 -77c51 -61 77 -140 77 -238v-239c0 -100 -47 -156 -135 -156c-87 0 -133 56 -133 156v194c0 92 41 140 116 140c61 0 109 -37 130 -100v5c0 93 -23 167 -69 224l-98 -93h-25l111 106c-33 35 -75 61 -125 78h38c41 -14 74 -35 101 -64zM295 145v150
c0 100 -51 165 -127 165c-65 0 -98 -41 -98 -124v-191c0 -90 37 -135 112 -135c73 0 113 47 113 135z" />
    <glyph glyph-name="ntilde" unicode="&#xf1;" horiz-adv-x="375" 
d="M148 636c-17 0 -32 -15 -45 -45l-15 8c16 37 36 56 60 56c14 0 30 -7 48 -21c13 -12 26 -18 37 -18c17 0 31 15 44 45l15 -8c-16 -37 -36 -56 -59 -56c-15 0 -32 7 -49 22c-13 11 -25 17 -36 17zM206 502c77 0 115 -47 115 -140v-362h-22v358c0 83 -32 124 -97 124
c-73 0 -122 -65 -122 -165v-317h-22v492h19v-96c20 67 68 106 129 106z" />
    <glyph glyph-name="ograve" unicode="&#xf2;" horiz-adv-x="365" 
d="M212 569h-22l-77 114h28zM182 -10c-87 0 -133 56 -133 156v200c0 100 46 156 133 156c88 0 135 -56 135 -156v-200c0 -100 -47 -156 -135 -156zM182 10c75 0 113 45 113 135v202c0 90 -38 135 -113 135s-112 -45 -112 -135v-202c0 -90 37 -135 112 -135z" />
    <glyph glyph-name="oacute" unicode="&#xf3;" horiz-adv-x="365" 
d="M176 569h-22l71 114h28zM182 -10c-87 0 -133 56 -133 156v200c0 100 46 156 133 156c88 0 135 -56 135 -156v-200c0 -100 -47 -156 -135 -156zM182 10c75 0 113 45 113 135v202c0 90 -38 135 -113 135s-112 -45 -112 -135v-202c0 -90 37 -135 112 -135z" />
    <glyph glyph-name="ocircumflex" unicode="&#xf4;" horiz-adv-x="365" 
d="M120 569h-22l73 114h24l73 -114h-22l-63 98zM182 -10c-87 0 -133 56 -133 156v200c0 100 46 156 133 156c88 0 135 -56 135 -156v-200c0 -100 -47 -156 -135 -156zM182 10c75 0 113 45 113 135v202c0 90 -38 135 -113 135s-112 -45 -112 -135v-202
c0 -90 37 -135 112 -135z" />
    <glyph glyph-name="otilde" unicode="&#xf5;" horiz-adv-x="365" 
d="M99 591l-15 8c16 37 36 56 60 56c14 0 30 -7 48 -21c13 -12 26 -18 37 -18c17 0 31 15 44 45l15 -8c-16 -37 -36 -56 -59 -56c-15 0 -32 7 -49 22c-13 11 -25 17 -36 17c-17 0 -32 -15 -45 -45zM182 -10c-87 0 -133 56 -133 156v200c0 100 46 156 133 156
c88 0 135 -56 135 -156v-200c0 -100 -47 -156 -135 -156zM182 10c75 0 113 45 113 135v202c0 90 -38 135 -113 135s-112 -45 -112 -135v-202c0 -90 37 -135 112 -135z" />
    <glyph glyph-name="odieresis" unicode="&#xf6;" horiz-adv-x="365" 
d="M139 579h-22v94h22v-94zM249 579h-22v94h22v-94zM182 -10c-87 0 -133 56 -133 156v200c0 100 46 156 133 156c88 0 135 -56 135 -156v-200c0 -100 -47 -156 -135 -156zM182 10c75 0 113 45 113 135v202c0 90 -38 135 -113 135s-112 -45 -112 -135v-202
c0 -90 37 -135 112 -135z" />
    <glyph glyph-name="divide" unicode="&#xf7;" 
d="M210 388h-25v82h25v-82zM361 290h-327v20h327v-20zM210 130h-25v82h25v-82z" />
    <glyph glyph-name="oslash" unicode="&#xf8;" horiz-adv-x="365" 
d="M305 521l14 -7l-29 -62c18 -26 27 -61 27 -106v-200c0 -100 -47 -156 -135 -156c-41 0 -73 12 -95 36l-26 -55l-14 8l29 61c-18 26 -27 61 -27 106v200c0 100 46 156 133 156c41 0 73 -12 97 -36zM70 347v-202c0 -33 6 -60 17 -83l182 383c-19 25 -48 37 -87 37
c-75 0 -112 -45 -112 -135zM295 145v202c0 32 -5 59 -16 82l-182 -382c19 -25 48 -37 85 -37c75 0 113 45 113 135z" />
    <glyph glyph-name="ugrave" unicode="&#xf9;" horiz-adv-x="375" 
d="M144 683l71 -114h-22l-77 114h28zM296 175v317h21v-492h-19v96c-20 -67 -67 -106 -128 -106c-77 0 -115 47 -115 140v362h21v-358c0 -83 32 -124 97 -124c73 0 123 65 123 165z" />
    <glyph glyph-name="uacute" unicode="&#xfa;" horiz-adv-x="375" 
d="M228 683h28l-77 -114h-22zM296 175v317h21v-492h-19v96c-20 -67 -67 -106 -128 -106c-77 0 -115 47 -115 140v362h21v-358c0 -83 32 -124 97 -124c73 0 123 65 123 165z" />
    <glyph glyph-name="ucircumflex" unicode="&#xfb;" horiz-adv-x="375" 
d="M249 569l-63 98l-63 -98h-22l73 114h24l73 -114h-22zM296 175v317h21v-492h-19v96c-20 -67 -67 -106 -128 -106c-77 0 -115 47 -115 140v362h21v-358c0 -83 32 -124 97 -124c73 0 123 65 123 165z" />
    <glyph glyph-name="udieresis" unicode="&#xfc;" horiz-adv-x="375" 
d="M120 673h22v-94h-22v94zM230 673h22v-94h-22v94zM296 175v317h21v-492h-19v96c-20 -67 -67 -106 -128 -106c-77 0 -115 47 -115 140v362h21v-358c0 -83 32 -124 97 -124c73 0 123 65 123 165z" />
    <glyph glyph-name="yacute" unicode="&#xfd;" horiz-adv-x="349" 
d="M216 683h28l-77 -114h-22zM302 492h20l-126 -460h1l-29 -110c-17 -64 -41 -87 -88 -87c-18 0 -32 3 -41 10v21c10 -7 23 -11 39 -11c37 0 53 17 68 70l23 89l-142 478h22l132 -442z" />
    <glyph glyph-name="thorn" unicode="&#xfe;" horiz-adv-x="377" 
d="M210 502c75 0 116 -48 116 -140v-232c0 -92 -41 -140 -116 -140c-61 0 -109 37 -130 100v-245h-22v855h22v-298c21 63 69 100 130 100zM304 134v224c0 83 -33 124 -98 124c-75 0 -126 -65 -126 -165v-142c0 -100 51 -165 126 -165c65 0 98 41 98 124z" />
    <glyph glyph-name="ydieresis" unicode="&#xff;" horiz-adv-x="349" 
d="M108 673h22v-94h-22v94zM218 673h22v-94h-22v94zM302 492h20l-126 -460h1l-29 -110c-17 -64 -41 -87 -88 -87c-18 0 -32 3 -41 10v21c10 -7 23 -11 39 -11c37 0 53 17 68 70l23 89l-142 478h22l132 -442z" />
    <glyph glyph-name="Amacron" unicode="&#x100;" 
d="M110 834h180v-20h-180v20zM373 0h-22l-39 170h-226l-38 -170h-21l156 703h30zM198 674l-107 -483h217z" />
    <glyph glyph-name="amacron" unicode="&#x101;" horiz-adv-x="359" 
d="M84 636h180v-20h-180v20zM311 0h-20c-4 19 -7 52 -8 97c-20 -68 -69 -107 -136 -107c-69 0 -112 44 -112 117s34 113 130 153c51 21 83 37 96 48s20 28 20 51v19c0 65 -38 104 -103 104c-67 0 -111 -38 -111 -109v-9h-21v8c0 83 53 130 132 130s125 -47 125 -126v-257
c0 -58 3 -98 8 -119zM151 10c79 0 130 64 130 165v132c-9 -17 -45 -39 -110 -65c-83 -35 -114 -71 -114 -134c0 -61 34 -98 94 -98z" />
    <glyph glyph-name="Abreve" unicode="&#x102;" 
d="M118 865h18c1 -43 23 -64 64 -64s62 21 64 64h18c-1 -53 -31 -83 -82 -83s-79 30 -82 83zM373 0h-22l-39 170h-226l-38 -170h-21l156 703h30zM198 674l-107 -483h217z" />
    <glyph glyph-name="abreve" unicode="&#x103;" horiz-adv-x="359" 
d="M92 667h18c1 -43 23 -64 64 -64s62 21 64 64h18c-1 -53 -31 -83 -82 -83s-79 30 -82 83zM311 0h-20c-4 19 -7 52 -8 97c-20 -68 -69 -107 -136 -107c-69 0 -112 44 -112 117s34 113 130 153c51 21 83 37 96 48s20 28 20 51v19c0 65 -38 104 -103 104
c-67 0 -111 -38 -111 -109v-9h-21v8c0 83 53 130 132 130s125 -47 125 -126v-257c0 -58 3 -98 8 -119zM151 10c79 0 130 64 130 165v132c-9 -17 -45 -39 -110 -65c-83 -35 -114 -71 -114 -134c0 -61 34 -98 94 -98z" />
    <glyph glyph-name="Aogonek" unicode="&#x104;" 
d="M344 -137c18 0 34 4 47 13v-19c-18 -8 -35 -12 -51 -12c-41 1 -66 23 -66 62c0 40 25 72 76 97l-38 166h-226l-38 -170h-21l156 703h30l160 -703h-4c-51 -22 -76 -52 -76 -89c0 -32 17 -48 51 -48zM198 674l-107 -483h217z" />
    <glyph glyph-name="aogonek" unicode="&#x105;" horiz-adv-x="359" 
d="M285 -137c18 0 34 4 47 13v-19c-18 -8 -35 -12 -51 -12c-41 1 -66 23 -66 62c0 35 25 68 75 97c-3 21 -6 52 -7 93c-20 -68 -69 -107 -136 -107c-69 0 -112 44 -112 117s34 113 130 153c51 21 83 37 96 48s20 28 20 51v19c0 65 -38 104 -103 104
c-67 0 -111 -38 -111 -109v-9h-21v8c0 83 53 130 132 130s125 -47 125 -126v-257c0 -58 3 -98 8 -119h-5c-48 -28 -72 -58 -72 -89c0 -32 17 -48 51 -48zM151 10c79 0 130 64 130 165v132c-9 -17 -45 -39 -110 -65c-83 -35 -114 -71 -114 -134c0 -61 34 -98 94 -98z" />
    <glyph glyph-name="Cacute" unicode="&#x106;" horiz-adv-x="382" 
d="M188 767h-22l71 114h28zM195 -10c-89 0 -144 60 -144 159v402c0 99 55 159 144 159c92 0 147 -59 147 -159v-69h-22v70c0 85 -47 137 -124 137c-76 0 -123 -52 -123 -137v-404c0 -85 47 -137 123 -137c77 0 124 52 124 137v90h22v-89c0 -100 -55 -159 -147 -159z" />
    <glyph glyph-name="cacute" unicode="&#x107;" horiz-adv-x="352" 
d="M174 569h-22l71 114h28zM183 -10c-87 0 -133 54 -133 154v204c0 100 46 154 133 154s130 -51 130 -154v-7h-21v8c0 89 -36 133 -109 133c-75 0 -112 -44 -112 -133v-206c0 -89 37 -133 112 -133c73 0 109 44 109 133v19h21v-18c0 -103 -43 -154 -130 -154z" />
    <glyph glyph-name="Ccircumflex" unicode="&#x108;" horiz-adv-x="382" 
d="M132 767h-22l73 114h24l73 -114h-22l-63 98zM195 -10c-89 0 -144 60 -144 159v402c0 99 55 159 144 159c92 0 147 -59 147 -159v-69h-22v70c0 85 -47 137 -124 137c-76 0 -123 -52 -123 -137v-404c0 -85 47 -137 123 -137c77 0 124 52 124 137v90h22v-89
c0 -100 -55 -159 -147 -159z" />
    <glyph glyph-name="ccircumflex" unicode="&#x109;" horiz-adv-x="352" 
d="M118 569h-22l73 114h24l73 -114h-22l-63 98zM183 -10c-87 0 -133 54 -133 154v204c0 100 46 154 133 154s130 -51 130 -154v-7h-21v8c0 89 -36 133 -109 133c-75 0 -112 -44 -112 -133v-206c0 -89 37 -133 112 -133c73 0 109 44 109 133v19h21v-18
c0 -103 -43 -154 -130 -154z" />
    <glyph glyph-name="Cdotaccent" unicode="&#x10a;" horiz-adv-x="382" 
d="M206 777h-22v94h22v-94zM195 -10c-89 0 -144 60 -144 159v402c0 99 55 159 144 159c92 0 147 -59 147 -159v-69h-22v70c0 85 -47 137 -124 137c-76 0 -123 -52 -123 -137v-404c0 -85 47 -137 123 -137c77 0 124 52 124 137v90h22v-89c0 -100 -55 -159 -147 -159z" />
    <glyph glyph-name="cdotaccent" unicode="&#x10b;" horiz-adv-x="352" 
d="M192 579h-22v94h22v-94zM183 -10c-87 0 -133 54 -133 154v204c0 100 46 154 133 154s130 -51 130 -154v-7h-21v8c0 89 -36 133 -109 133c-75 0 -112 -44 -112 -133v-206c0 -89 37 -133 112 -133c73 0 109 44 109 133v19h21v-18c0 -103 -43 -154 -130 -154z" />
    <glyph glyph-name="Ccaron" unicode="&#x10c;" horiz-adv-x="382" 
d="M207 767h-24l-73 114h22l63 -98l63 98h22zM195 -10c-89 0 -144 60 -144 159v402c0 99 55 159 144 159c92 0 147 -59 147 -159v-69h-22v70c0 85 -47 137 -124 137c-76 0 -123 -52 -123 -137v-404c0 -85 47 -137 123 -137c77 0 124 52 124 137v90h22v-89
c0 -100 -55 -159 -147 -159z" />
    <glyph glyph-name="ccaron" unicode="&#x10d;" horiz-adv-x="352" 
d="M193 569h-24l-73 114h22l63 -98l63 98h22zM183 -10c-87 0 -133 54 -133 154v204c0 100 46 154 133 154s130 -51 130 -154v-7h-21v8c0 89 -36 133 -109 133c-75 0 -112 -44 -112 -133v-206c0 -89 37 -133 112 -133c73 0 109 44 109 133v19h21v-18
c0 -103 -43 -154 -130 -154z" />
    <glyph glyph-name="Dcaron" unicode="&#x10e;" horiz-adv-x="403" 
d="M205 767h-24l-73 114h22l63 -98l63 98h22zM203 0h-145v700h145c104 0 149 -49 149 -164v-372c0 -115 -45 -164 -149 -164zM80 679v-658h123c91 0 127 42 127 143v372c0 101 -36 143 -127 143h-123z" />
    <glyph glyph-name="dcaron" unicode="&#x10f;" horiz-adv-x="391" 
d="M297 700h22v-581c0 -58 3 -98 8 -119h-20c-4 19 -7 52 -8 97c-20 -67 -68 -107 -131 -107c-76 0 -117 48 -117 140v232c0 93 39 140 117 140c61 0 108 -37 129 -101v299zM371 619v81h21v-80l-20 -77h-11l16 76h-6zM172 10c73 0 125 66 125 165v142c0 99 -52 165 -125 165
c-67 0 -100 -41 -100 -124v-224c0 -83 33 -124 100 -124z" />
    <glyph glyph-name="Dcroat" unicode="&#x110;" horiz-adv-x="412" 
d="M67 700h146c104 0 149 -49 149 -164v-372c0 -115 -45 -164 -149 -164h-146v355h-42v20h42v325zM340 164v372c0 101 -37 143 -128 143h-123v-304h115v-20h-115v-334h123c91 0 128 42 128 143z" />
    <glyph glyph-name="dslash" unicode="&#x111;" horiz-adv-x="377" 
d="M377 606v-19h-58v-468c0 -58 3 -98 8 -119h-20c-4 19 -7 52 -8 97c-20 -67 -68 -107 -131 -107c-76 0 -117 48 -117 140v232c0 93 39 140 117 140c61 0 108 -37 129 -101v186h-98v19h98v94h22v-94h58zM172 10c73 0 125 66 125 165v142c0 99 -52 165 -125 165
c-67 0 -100 -41 -100 -124v-224c0 -83 33 -124 100 -124z" />
    <glyph glyph-name="Emacron" unicode="&#x112;" horiz-adv-x="349" 
d="M280 814h-180v20h180v-20zM322 0h-264v700h264v-21h-242v-304h203v-20h-203v-334h242v-21z" />
    <glyph glyph-name="emacron" unicode="&#x113;" horiz-adv-x="361" 
d="M91 636h180v-20h-180v20zM182 502c88 0 135 -56 135 -156v-92h-246v-109c0 -90 37 -135 111 -135c76 0 114 45 114 135v9h21v-8c0 -100 -47 -156 -135 -156c-87 0 -133 56 -133 156v200c0 100 46 156 133 156zM71 347v-73h225v73c0 90 -38 135 -114 135
c-74 0 -111 -45 -111 -135z" />
    <glyph glyph-name="Ebreve" unicode="&#x114;" horiz-adv-x="349" 
d="M108 865h18c1 -43 23 -64 64 -64s62 21 64 64h18c-1 -53 -31 -83 -82 -83s-79 30 -82 83zM322 0h-264v700h264v-21h-242v-304h203v-20h-203v-334h242v-21z" />
    <glyph glyph-name="ebreve" unicode="&#x115;" horiz-adv-x="361" 
d="M99 667h18c1 -43 23 -64 64 -64s62 21 64 64h18c-1 -53 -31 -83 -82 -83s-79 30 -82 83zM182 502c88 0 135 -56 135 -156v-92h-246v-109c0 -90 37 -135 111 -135c76 0 114 45 114 135v9h21v-8c0 -100 -47 -156 -135 -156c-87 0 -133 56 -133 156v200
c0 100 46 156 133 156zM71 347v-73h225v73c0 90 -38 135 -114 135c-74 0 -111 -45 -111 -135z" />
    <glyph glyph-name="Edotaccent" unicode="&#x116;" horiz-adv-x="349" 
d="M201 777h-22v94h22v-94zM322 0h-264v700h264v-21h-242v-304h203v-20h-203v-334h242v-21z" />
    <glyph glyph-name="edotaccent" unicode="&#x117;" horiz-adv-x="361" 
d="M170 673h22v-94h-22v94zM182 502c88 0 135 -56 135 -156v-92h-246v-109c0 -90 37 -135 111 -135c76 0 114 45 114 135v9h21v-8c0 -100 -47 -156 -135 -156c-87 0 -133 56 -133 156v200c0 100 46 156 133 156zM71 347v-73h225v73c0 90 -38 135 -114 135
c-74 0 -111 -45 -111 -135z" />
    <glyph glyph-name="Eogonek" unicode="&#x118;" horiz-adv-x="349" 
d="M322 700v-21h-242v-304h203v-20h-203v-334h242v-21h-40c-39 -25 -58 -55 -58 -89c0 -32 17 -48 51 -48c18 0 34 4 47 13v-19c-18 -8 -35 -12 -51 -12c-41 1 -66 23 -66 62c0 37 19 68 56 93h-203v700h264z" />
    <glyph glyph-name="eogonek" unicode="&#x119;" horiz-adv-x="361" 
d="M182 502c88 0 135 -56 135 -156v-92h-246v-109c0 -90 37 -135 111 -135c76 0 114 45 114 135v9h21v-8c0 -63 -18 -107 -53 -132c-39 -33 -59 -68 -59 -103c0 -32 17 -48 51 -48c19 0 34 4 47 13v-19c-18 -8 -35 -12 -51 -12c-41 1 -66 23 -66 62c0 31 14 61 42 89
c-14 -4 -29 -6 -46 -6c-87 0 -133 56 -133 156v200c0 100 46 156 133 156zM71 347v-73h225v73c0 90 -38 135 -114 135c-74 0 -111 -45 -111 -135z" />
    <glyph glyph-name="Ecaron" unicode="&#x11a;" horiz-adv-x="349" 
d="M202 767h-24l-73 114h22l63 -98l63 98h22zM322 0h-264v700h264v-21h-242v-304h203v-20h-203v-334h242v-21z" />
    <glyph glyph-name="ecaron" unicode="&#x11b;" horiz-adv-x="361" 
d="M266 683l-73 -114h-24l-73 114h22l63 -98l63 98h22zM182 502c88 0 135 -56 135 -156v-92h-246v-109c0 -90 37 -135 111 -135c76 0 114 45 114 135v9h21v-8c0 -100 -47 -156 -135 -156c-87 0 -133 56 -133 156v200c0 100 46 156 133 156zM71 347v-73h225v73
c0 90 -38 135 -114 135c-74 0 -111 -45 -111 -135z" />
    <glyph glyph-name="Gcircumflex" unicode="&#x11c;" horiz-adv-x="395" 
d="M135 767h-22l73 114h24l73 -114h-22l-63 98zM51 156v388c0 108 52 166 148 166s150 -58 150 -166v-52h-22v53c0 96 -43 144 -128 144c-84 0 -126 -48 -126 -144v-390c0 -96 42 -144 126 -144c85 0 128 48 128 144v191h-115v21h137v-211c0 -108 -54 -166 -150 -166
s-148 58 -148 166z" />
    <glyph glyph-name="gcircumflex" unicode="&#x11d;" horiz-adv-x="375" 
d="M241 569l-63 98l-63 -98h-22l73 114h24l73 -114h-22zM298 395l1 97h18v-519c0 -92 -43 -138 -130 -138c-84 0 -131 41 -131 116v6h21v-6c0 -64 37 -96 110 -96s109 39 109 117v134c-21 -63 -69 -100 -130 -100c-75 0 -116 49 -116 141v215c0 92 41 140 116 140
c64 0 112 -39 132 -107zM169 26c76 0 127 65 127 165v126c0 100 -51 165 -127 165c-65 0 -98 -41 -98 -124v-208c0 -83 33 -124 98 -124z" />
    <glyph glyph-name="Gbreve" unicode="&#x11e;" horiz-adv-x="395" 
d="M116 865h18c1 -43 23 -64 64 -64s62 21 64 64h18c-1 -53 -31 -83 -82 -83s-79 30 -82 83zM51 156v388c0 108 52 166 148 166s150 -58 150 -166v-52h-22v53c0 96 -43 144 -128 144c-84 0 -126 -48 -126 -144v-390c0 -96 42 -144 126 -144c85 0 128 48 128 144v191h-115v21
h137v-211c0 -108 -54 -166 -150 -166s-148 58 -148 166z" />
    <glyph glyph-name="gbreve" unicode="&#x11f;" horiz-adv-x="375" 
d="M96 667h18c1 -43 23 -64 64 -64s62 21 64 64h18c-1 -53 -31 -83 -82 -83s-79 30 -82 83zM298 395l1 97h18v-519c0 -92 -43 -138 -130 -138c-84 0 -131 41 -131 116v6h21v-6c0 -64 37 -96 110 -96s109 39 109 117v134c-21 -63 -69 -100 -130 -100c-75 0 -116 49 -116 141
v215c0 92 41 140 116 140c64 0 112 -39 132 -107zM169 26c76 0 127 65 127 165v126c0 100 -51 165 -127 165c-65 0 -98 -41 -98 -124v-208c0 -83 33 -124 98 -124z" />
    <glyph glyph-name="Gdotaccent" unicode="&#x120;" horiz-adv-x="395" 
d="M209 777h-22v94h22v-94zM51 156v388c0 108 52 166 148 166s150 -58 150 -166v-52h-22v53c0 96 -43 144 -128 144c-84 0 -126 -48 -126 -144v-390c0 -96 42 -144 126 -144c85 0 128 48 128 144v191h-115v21h137v-211c0 -108 -54 -166 -150 -166s-148 58 -148 166z" />
    <glyph glyph-name="gdotaccent" unicode="&#x121;" horiz-adv-x="375" 
d="M167 673h22v-94h-22v94zM298 395l1 97h18v-519c0 -92 -43 -138 -130 -138c-84 0 -131 41 -131 116v6h21v-6c0 -64 37 -96 110 -96s109 39 109 117v134c-21 -63 -69 -100 -130 -100c-75 0 -116 49 -116 141v215c0 92 41 140 116 140c64 0 112 -39 132 -107zM169 26
c76 0 127 65 127 165v126c0 100 -51 165 -127 165c-65 0 -98 -41 -98 -124v-208c0 -83 33 -124 98 -124z" />
    <glyph glyph-name="uni0122" unicode="&#x122;" horiz-adv-x="395" 
d="M51 156v388c0 108 52 166 148 166s150 -58 150 -166v-52h-22v53c0 96 -43 144 -128 144c-84 0 -126 -48 -126 -144v-390c0 -96 42 -144 126 -144c85 0 128 48 128 144v191h-115v21h137v-211c0 -108 -54 -166 -150 -166s-148 58 -148 166zM187 -176h-11l19 52h-7v71h22
v-69z" />
    <glyph glyph-name="uni0123" unicode="&#x123;" horiz-adv-x="375" 
d="M182 650h7v-71h-22v70l23 53h11zM298 395l1 97h18v-519c0 -92 -43 -138 -130 -138c-84 0 -131 41 -131 116v6h21v-6c0 -64 37 -96 110 -96s109 39 109 117v134c-21 -63 -69 -100 -130 -100c-75 0 -116 49 -116 141v215c0 92 41 140 116 140c64 0 112 -39 132 -107z
M169 26c76 0 127 65 127 165v126c0 100 -51 165 -127 165c-65 0 -98 -41 -98 -124v-208c0 -83 33 -124 98 -124z" />
    <glyph glyph-name="Hcircumflex" unicode="&#x124;" horiz-adv-x="412" 
d="M143 767h-22l73 114h24l73 -114h-22l-63 98zM80 0h-22v700h22v-325h252v325h22v-700h-22v355h-252v-355z" />
    <glyph glyph-name="hcircumflex" unicode="&#x125;" horiz-adv-x="375" 
d="M154 767h-22l-63 98l-63 -98h-22l73 114h24zM207 502c76 0 114 -47 114 -140v-362h-22v358c0 83 -32 124 -95 124c-75 0 -124 -64 -124 -165v-317h-22v700h22v-294c23 64 65 96 127 96z" />
    <glyph glyph-name="Hbar" unicode="&#x126;" horiz-adv-x="431" 
d="M364 548h43v-20h-43v-528h-22v355h-252v-355h-22v528h-44v20h44v152h22v-152h252v152h22v-152zM90 375h252v153h-252v-153z" />
    <glyph glyph-name="hbar" unicode="&#x127;" horiz-adv-x="375" 
d="M207 502c76 0 114 -47 114 -140v-362h-22v358c0 83 -32 124 -95 124c-75 0 -124 -64 -124 -165v-317h-22v587h-57v19h57v94h22v-94h99v-19h-99v-181c23 64 65 96 127 96z" />
    <glyph glyph-name="Itilde" unicode="&#x128;" horiz-adv-x="138" 
d="M-15 789l-15 8c16 37 36 56 60 56c14 0 30 -7 48 -21c13 -12 26 -18 37 -18c17 0 31 15 44 45l15 -8c-16 -37 -36 -56 -59 -56c-15 0 -32 7 -49 22c-13 11 -25 17 -36 17c-17 0 -32 -15 -45 -45zM80 0h-22v700h22v-700z" />
    <glyph glyph-name="itilde" unicode="&#x129;" horiz-adv-x="138" 
d="M-15 591l-15 8c16 37 36 56 60 56c14 0 30 -7 48 -21c13 -12 26 -18 37 -18c17 0 31 15 44 45l15 -8c-16 -37 -36 -56 -59 -56c-15 0 -32 7 -49 22c-13 11 -25 17 -36 17c-17 0 -32 -15 -45 -45zM80 0h-22v492h22v-492z" />
    <glyph glyph-name="Imacron" unicode="&#x12a;" horiz-adv-x="138" 
d="M159 814h-180v20h180v-20zM80 0h-22v700h22v-700z" />
    <glyph glyph-name="imacron" unicode="&#x12b;" horiz-adv-x="138" 
d="M159 616h-180v20h180v-20zM80 0h-22v492h22v-492z" />
    <glyph glyph-name="Ibreve" unicode="&#x12c;" horiz-adv-x="138" 
d="M-13 865h18c1 -43 23 -64 64 -64s62 21 64 64h18c-1 -53 -31 -83 -82 -83s-79 30 -82 83zM80 0h-22v700h22v-700z" />
    <glyph glyph-name="ibreve" unicode="&#x12d;" horiz-adv-x="138" 
d="M-13 667h18c1 -43 23 -64 64 -64s62 21 64 64h18c-1 -53 -31 -83 -82 -83s-79 30 -82 83zM80 0h-22v492h22v-492z" />
    <glyph glyph-name="Iogonek" unicode="&#x12e;" horiz-adv-x="138" 
d="M74 -137c18 0 34 4 47 13v-19c-18 -8 -35 -12 -51 -12c-41 1 -66 23 -66 62c0 35 18 66 54 93v700h22v-700h-2c-37 -25 -55 -54 -55 -89c0 -32 17 -48 51 -48z" />
    <glyph glyph-name="iogonek" unicode="&#x12f;" horiz-adv-x="138" 
d="M58 673h22v-94h-22v94zM74 -137c18 0 34 4 47 13v-19c-18 -8 -35 -12 -51 -12c-41 1 -66 23 -66 62c0 35 18 66 54 93v492h22v-492h-2c-37 -25 -55 -54 -55 -89c0 -32 17 -48 51 -48z" />
    <glyph glyph-name="Idot" unicode="&#x130;" horiz-adv-x="138" 
d="M80 777h-22v94h22v-94zM80 0h-22v700h22v-700z" />
    <glyph glyph-name="dotlessi" unicode="&#x131;" horiz-adv-x="138" 
d="M80 0h-22v492h22v-492z" />
    <glyph glyph-name="IJ" unicode="&#x132;" horiz-adv-x="394" 
d="M80 0h-22v700h22v-700zM214 -4c-18 0 -35 3 -51 8v21c16 -5 33 -8 50 -8c72 0 104 39 104 124v559h22v-559c0 -99 -40 -145 -125 -145z" />
    <glyph glyph-name="ij" unicode="&#x133;" horiz-adv-x="276" 
d="M80 579h-22v94h22v-94zM218 579h-22v94h22v-94zM80 0h-22v492h22v-492zM153 -165c-15 0 -27 3 -38 10v21c11 -7 24 -11 37 -11c32 0 44 15 44 59v578h22v-579c0 -52 -22 -78 -65 -78z" />
    <glyph glyph-name="Jcircumflex" unicode="&#x134;" horiz-adv-x="256" 
d="M113 767h-22l73 114h24l73 -114h-22l-63 98zM76 -4c-18 0 -35 3 -51 8v21c16 -5 33 -8 50 -8c72 0 104 39 104 124v559h22v-559c0 -99 -40 -145 -125 -145z" />
    <glyph glyph-name="jcircumflex" unicode="&#x135;" horiz-adv-x="138" 
d="M6 569h-22l73 114h24l73 -114h-22l-63 98zM15 -165c-15 0 -27 3 -38 10v21c11 -7 24 -11 37 -11c32 0 44 15 44 59v578h22v-579c0 -52 -22 -78 -65 -78z" />
    <glyph glyph-name="uni0136" unicode="&#x136;" horiz-adv-x="397" 
d="M369 700l-171 -267l173 -433h-24l-163 411l-104 -162v-249h-22v700h22v-413l264 413h25zM210 -124h-7v71h22v-69l-23 -54h-11z" />
    <glyph glyph-name="uni0137" unicode="&#x137;" horiz-adv-x="362" 
d="M331 492l-146 -191l151 -301h-24l-141 283l-91 -119v-164h-22v700h22v-503l225 295h26zM192 -124h-7v71h22v-69l-23 -54h-11z" />
    <glyph glyph-name="kgreenlandic" unicode="&#x138;" horiz-adv-x="361" 
d="M336 0h-24l-142 282l-91 -119v-163h-21v492h21v-297l226 297h25l-145 -190z" />
    <glyph glyph-name="Lacute" unicode="&#x139;" horiz-adv-x="337" 
d="M72 767h-22l71 114h28zM313 0h-255v700h22v-679h233v-21z" />
    <glyph glyph-name="lacute" unicode="&#x13a;" horiz-adv-x="138" 
d="M62 767h-22l71 114h28zM80 0h-22v700h22v-700z" />
    <glyph glyph-name="uni013B" unicode="&#x13b;" horiz-adv-x="337" 
d="M313 0h-255v700h22v-679h233v-21zM176 -176h-11l19 52h-7v71h22v-69z" />
    <glyph glyph-name="uni013C" unicode="&#x13c;" horiz-adv-x="138" 
d="M80 0h-22v700h22v-700zM57 -176h-11l19 52h-7v71h22v-69z" />
    <glyph glyph-name="Lcaron" unicode="&#x13d;" horiz-adv-x="337" 
d="M313 0h-255v700h22v-679h233v-21zM219 543h-11l16 76h-7v81h22v-80z" />
    <glyph glyph-name="lcaron" unicode="&#x13e;" horiz-adv-x="152" 
d="M80 0h-22v700h22v-700zM134 543h-11l16 76h-7v81h21v-80z" />
    <glyph glyph-name="Ldot" unicode="&#x13f;" horiz-adv-x="337" 
d="M313 0h-255v700h22v-679h233v-21zM248 319h-22v81h22v-81z" />
    <glyph glyph-name="ldot" unicode="&#x140;" horiz-adv-x="168" 
d="M80 0h-22v700h22v-700zM162 312h-23v76h23v-76z" />
    <glyph glyph-name="Lslash" unicode="&#x141;" horiz-adv-x="365" 
d="M108 268v-247h233v-21h-255v244l-61 -65v27l61 65v429h22v-405l166 177v-27z" />
    <glyph glyph-name="lslash" unicode="&#x142;" horiz-adv-x="206" 
d="M115 435l67 67v-25l-67 -67v-410h-22v388l-66 -66v25l66 66v287h22v-265z" />
    <glyph glyph-name="Nacute" unicode="&#x143;" horiz-adv-x="415" 
d="M201 767h-22l71 114h28zM79 0h-21v700h33l245 -649v649h21v-700h-26l-252 669v-669z" />
    <glyph glyph-name="nacute" unicode="&#x144;" horiz-adv-x="375" 
d="M229 683h28l-77 -114h-22zM206 502c77 0 115 -47 115 -140v-362h-22v358c0 83 -32 124 -97 124c-73 0 -122 -65 -122 -165v-317h-22v492h19v-96c20 67 68 106 129 106z" />
    <glyph glyph-name="uni0145" unicode="&#x145;" horiz-adv-x="415" 
d="M79 0h-21v700h33l245 -649v649h21v-700h-26l-252 669v-669zM196 -176h-11l19 52h-7v71h22v-69z" />
    <glyph glyph-name="uni0146" unicode="&#x146;" horiz-adv-x="375" 
d="M206 502c77 0 115 -47 115 -140v-362h-22v358c0 83 -32 124 -97 124c-73 0 -122 -65 -122 -165v-317h-22v492h19v-96c20 67 68 106 129 106zM183 -124h-7v71h22v-69l-23 -54h-11z" />
    <glyph glyph-name="Ncaron" unicode="&#x147;" horiz-adv-x="415" 
d="M220 767h-24l-73 114h22l63 -98l63 98h22zM79 0h-21v700h33l245 -649v649h21v-700h-26l-252 669v-669z" />
    <glyph glyph-name="ncaron" unicode="&#x148;" horiz-adv-x="375" 
d="M272 683l-73 -114h-24l-73 114h22l63 -98l63 98h22zM206 502c77 0 115 -47 115 -140v-362h-22v358c0 83 -32 124 -97 124c-73 0 -122 -65 -122 -165v-317h-22v492h19v-96c20 67 68 106 129 106z" />
    <glyph glyph-name="napostrophe" unicode="&#x149;" horiz-adv-x="375" 
d="M22 619h-7v81h22v-80l-22 -77h-11zM206 502c77 0 115 -47 115 -140v-362h-22v358c0 83 -32 124 -97 124c-73 0 -122 -65 -122 -165v-317h-22v492h19v-96c20 67 68 106 129 106z" />
    <glyph glyph-name="Eng" unicode="&#x14a;" horiz-adv-x="415" 
d="M233 -165c-19 0 -36 3 -52 8v20c14 -5 31 -8 50 -8c72 0 104 39 104 124c0 13 -3 30 -10 49l-246 641v-669h-21v700h33l245 -639v639h21v-720c0 -99 -39 -145 -124 -145z" />
    <glyph glyph-name="eng" unicode="&#x14b;" horiz-adv-x="375" 
d="M207 502c76 0 114 -47 114 -140v-429c0 -65 -29 -98 -86 -98c-18 0 -35 3 -51 10v21c13 -7 30 -11 49 -11c45 0 66 24 66 79v424c0 83 -32 124 -95 124c-75 0 -124 -64 -124 -165v-317h-22v492h18l1 -96c19 67 66 106 130 106z" />
    <glyph glyph-name="Omacron" unicode="&#x14c;" 
d="M290 814h-180v20h180v-20zM51 156v388c0 108 53 166 149 166s149 -58 149 -166v-388c0 -108 -53 -166 -149 -166s-149 58 -149 166zM327 155v390c0 96 -42 144 -127 144s-127 -48 -127 -144v-390c0 -96 42 -144 127 -144s127 48 127 144z" />
    <glyph glyph-name="omacron" unicode="&#x14d;" horiz-adv-x="365" 
d="M273 616h-180v20h180v-20zM182 -10c-87 0 -133 56 -133 156v200c0 100 46 156 133 156c88 0 135 -56 135 -156v-200c0 -100 -47 -156 -135 -156zM182 10c75 0 113 45 113 135v202c0 90 -38 135 -113 135s-112 -45 -112 -135v-202c0 -90 37 -135 112 -135z" />
    <glyph glyph-name="Obreve" unicode="&#x14e;" 
d="M118 865h18c1 -43 23 -64 64 -64s62 21 64 64h18c-1 -53 -31 -83 -82 -83s-79 30 -82 83zM51 156v388c0 108 53 166 149 166s149 -58 149 -166v-388c0 -108 -53 -166 -149 -166s-149 58 -149 166zM327 155v390c0 96 -42 144 -127 144s-127 -48 -127 -144v-390
c0 -96 42 -144 127 -144s127 48 127 144z" />
    <glyph glyph-name="obreve" unicode="&#x14f;" horiz-adv-x="365" 
d="M101 667h18c1 -43 23 -64 64 -64s62 21 64 64h18c-1 -53 -31 -83 -82 -83s-79 30 -82 83zM182 -10c-87 0 -133 56 -133 156v200c0 100 46 156 133 156c88 0 135 -56 135 -156v-200c0 -100 -47 -156 -135 -156zM182 10c75 0 113 45 113 135v202c0 90 -38 135 -113 135
s-112 -45 -112 -135v-202c0 -90 37 -135 112 -135z" />
    <glyph glyph-name="Ohungarumlaut" unicode="&#x150;" 
d="M138 767h-21l71 114h27zM249 767h-21l71 114h27zM51 156v388c0 108 53 166 149 166s149 -58 149 -166v-388c0 -108 -53 -166 -149 -166s-149 58 -149 166zM327 155v390c0 96 -42 144 -127 144s-127 -48 -127 -144v-390c0 -96 42 -144 127 -144s127 48 127 144z" />
    <glyph glyph-name="ohungarumlaut" unicode="&#x151;" horiz-adv-x="365" 
d="M121 569h-21l71 114h27zM232 569h-21l71 114h27zM182 -10c-87 0 -133 56 -133 156v200c0 100 46 156 133 156c88 0 135 -56 135 -156v-200c0 -100 -47 -156 -135 -156zM182 10c75 0 113 45 113 135v202c0 90 -38 135 -113 135s-112 -45 -112 -135v-202
c0 -90 37 -135 112 -135z" />
    <glyph glyph-name="OE" unicode="&#x152;" horiz-adv-x="614" 
d="M588 0h-388c-104 0 -149 49 -149 164v372c0 115 45 164 149 164h388v-21h-242v-304h203v-20h-203v-334h242v-21zM200 21h124v658h-124c-91 0 -127 -40 -127 -143v-372c0 -103 36 -143 127 -143z" />
    <glyph glyph-name="oe" unicode="&#x153;" horiz-adv-x="608" 
d="M430 502c85 0 134 -56 134 -156v-92h-247v-109c0 -90 37 -135 112 -135s114 47 114 135v9h21v-8c0 -100 -49 -156 -134 -156c-68 0 -109 33 -124 98c-15 -65 -57 -98 -125 -98c-85 0 -132 56 -132 156v200c0 100 47 156 132 156c68 0 110 -33 125 -98c15 65 56 98 124 98
zM295 145v202c0 90 -38 135 -113 135c-74 0 -111 -45 -111 -135v-202c0 -90 37 -135 111 -135c75 0 113 45 113 135zM317 347v-73h225v73c0 90 -38 135 -113 135s-112 -45 -112 -135z" />
    <glyph glyph-name="Racute" unicode="&#x154;" horiz-adv-x="395" 
d="M183 767h-22l71 114h28zM80 0h-22v700h137c105 0 149 -46 149 -157v-43c0 -84 -34 -132 -102 -145v-1c71 -11 102 -53 102 -141v-130c0 -37 3 -64 10 -83h-23c-6 22 -9 50 -9 83v131c0 93 -39 129 -134 129h-108v-343zM80 679v-315h104c96 0 138 41 138 134v43
c0 99 -36 138 -128 138h-114z" />
    <glyph glyph-name="racute" unicode="&#x155;" horiz-adv-x="247" 
d="M175 683h28l-77 -114h-22zM191 502c16 0 29 -2 38 -7v-22c-11 5 -23 8 -37 8c-75 0 -112 -63 -112 -188v-293h-22v492h18l1 -98c15 72 53 108 114 108z" />
    <glyph glyph-name="uni0156" unicode="&#x156;" horiz-adv-x="395" 
d="M80 0h-22v700h137c105 0 149 -46 149 -157v-43c0 -84 -34 -132 -102 -145v-1c71 -11 102 -53 102 -141v-130c0 -37 3 -64 10 -83h-23c-6 22 -9 50 -9 83v131c0 93 -39 129 -134 129h-108v-343zM80 679v-315h104c96 0 138 41 138 134v43c0 99 -36 138 -128 138h-114z
M198 -176h-11l19 52h-7v71h22v-69z" />
    <glyph glyph-name="uni0157" unicode="&#x157;" horiz-adv-x="247" 
d="M191 502c16 0 29 -2 38 -7v-22c-11 5 -23 8 -37 8c-75 0 -112 -63 -112 -188v-293h-22v492h18l1 -98c15 72 53 108 114 108zM65 -124h-7v71h22v-69l-23 -54h-11z" />
    <glyph glyph-name="Rcaron" unicode="&#x158;" horiz-adv-x="395" 
d="M202 767h-24l-73 114h22l63 -98l63 98h22zM80 0h-22v700h137c105 0 149 -46 149 -157v-43c0 -84 -34 -132 -102 -145v-1c71 -11 102 -53 102 -141v-130c0 -37 3 -64 10 -83h-23c-6 22 -9 50 -9 83v131c0 93 -39 129 -134 129h-108v-343zM80 679v-315h104
c96 0 138 41 138 134v43c0 99 -36 138 -128 138h-114z" />
    <glyph glyph-name="rcaron" unicode="&#x159;" horiz-adv-x="247" 
d="M218 683l-73 -114h-24l-73 114h22l63 -98l63 98h22zM191 502c16 0 29 -2 38 -7v-22c-11 5 -23 8 -37 8c-75 0 -112 -63 -112 -188v-293h-22v492h18l1 -98c15 72 53 108 114 108z" />
    <glyph glyph-name="Sacute" unicode="&#x15a;" horiz-adv-x="366" 
d="M175 767h-22l71 114h28zM37 148v37h21v-38c0 -87 46 -136 125 -136s125 49 125 136c0 37 -10 70 -29 99s-53 62 -102 99c-53 40 -89 75 -110 106c-20 31 -30 65 -30 104c0 96 54 155 145 155s144 -58 144 -158v-26h-22v27c0 87 -45 136 -122 136s-123 -50 -123 -133
c0 -35 10 -66 29 -95c19 -28 54 -61 104 -99c53 -40 89 -75 108 -106c20 -31 30 -67 30 -108c0 -100 -55 -158 -147 -158s-146 58 -146 158z" />
    <glyph glyph-name="sacute" unicode="&#x15b;" horiz-adv-x="335" 
d="M158 569h-22l71 114h28zM169 -10c-81 0 -132 47 -132 126v18h21v-18c0 -67 42 -106 110 -106c67 0 110 38 110 105c0 35 -11 61 -36 80c-25 20 -40 28 -77 44c-40 17 -55 26 -83 47c-28 23 -40 53 -40 94c0 75 51 122 124 122s124 -47 124 -126v-8h-20v8
c0 67 -43 106 -104 106c-59 0 -103 -39 -103 -102c0 -33 11 -59 36 -79c25 -19 39 -26 76 -43c40 -17 56 -25 84 -48s40 -54 40 -95c0 -79 -50 -125 -130 -125z" />
    <glyph glyph-name="Scircumflex" unicode="&#x15c;" horiz-adv-x="366" 
d="M119 767h-22l73 114h24l73 -114h-22l-63 98zM37 148v37h21v-38c0 -87 46 -136 125 -136s125 49 125 136c0 37 -10 70 -29 99s-53 62 -102 99c-53 40 -89 75 -110 106c-20 31 -30 65 -30 104c0 96 54 155 145 155s144 -58 144 -158v-26h-22v27c0 87 -45 136 -122 136
s-123 -50 -123 -133c0 -35 10 -66 29 -95c19 -28 54 -61 104 -99c53 -40 89 -75 108 -106c20 -31 30 -67 30 -108c0 -100 -55 -158 -147 -158s-146 58 -146 158z" />
    <glyph glyph-name="scircumflex" unicode="&#x15d;" horiz-adv-x="335" 
d="M102 569h-22l73 114h24l73 -114h-22l-63 98zM169 -10c-81 0 -132 47 -132 126v18h21v-18c0 -67 42 -106 110 -106c67 0 110 38 110 105c0 35 -11 61 -36 80c-25 20 -40 28 -77 44c-40 17 -55 26 -83 47c-28 23 -40 53 -40 94c0 75 51 122 124 122s124 -47 124 -126v-8
h-20v8c0 67 -43 106 -104 106c-59 0 -103 -39 -103 -102c0 -33 11 -59 36 -79c25 -19 39 -26 76 -43c40 -17 56 -25 84 -48s40 -54 40 -95c0 -79 -50 -125 -130 -125z" />
    <glyph glyph-name="Scedilla" unicode="&#x15e;" horiz-adv-x="366" 
d="M330 148c0 -97 -52 -155 -140 -158v-43c43 0 65 -16 65 -48c0 -36 -25 -54 -74 -54c-50 0 -75 18 -75 53v5h19v-5c0 -24 18 -36 55 -36s56 12 56 36c0 23 -17 34 -51 34h-11v58c-87 4 -137 61 -137 158v37h21v-38c0 -87 46 -136 125 -136s125 49 125 136
c0 37 -10 70 -29 99s-53 62 -102 99c-53 40 -89 75 -110 106c-20 31 -30 65 -30 104c0 96 54 155 145 155s144 -58 144 -158v-26h-22v27c0 87 -45 136 -122 136s-123 -50 -123 -133c0 -35 10 -66 29 -95c19 -28 54 -61 104 -99c53 -40 89 -75 108 -106
c20 -31 30 -67 30 -108z" />
    <glyph glyph-name="scedilla" unicode="&#x15f;" horiz-adv-x="335" 
d="M299 115c0 -76 -47 -122 -123 -125v-43c43 0 65 -16 65 -48c0 -36 -25 -54 -74 -54c-50 0 -75 18 -75 53v5h19v-5c0 -24 18 -36 55 -36s56 12 56 36c0 23 -17 34 -51 34h-11v58c-76 4 -123 50 -123 126v18h21v-18c0 -67 42 -106 110 -106c67 0 110 38 110 105
c0 35 -11 61 -36 80c-25 20 -40 28 -77 44c-40 17 -55 26 -83 47c-28 23 -40 53 -40 94c0 75 51 122 124 122s124 -47 124 -126v-8h-20v8c0 67 -43 106 -104 106c-59 0 -103 -39 -103 -102c0 -33 11 -59 36 -79c25 -19 39 -26 76 -43c40 -17 56 -25 84 -48s40 -54 40 -95z
" />
    <glyph glyph-name="Scaron" unicode="&#x160;" horiz-adv-x="366" 
d="M194 767h-24l-73 114h22l63 -98l63 98h22zM37 148v37h21v-38c0 -87 46 -136 125 -136s125 49 125 136c0 37 -10 70 -29 99s-53 62 -102 99c-53 40 -89 75 -110 106c-20 31 -30 65 -30 104c0 96 54 155 145 155s144 -58 144 -158v-26h-22v27c0 87 -45 136 -122 136
s-123 -50 -123 -133c0 -35 10 -66 29 -95c19 -28 54 -61 104 -99c53 -40 89 -75 108 -106c20 -31 30 -67 30 -108c0 -100 -55 -158 -147 -158s-146 58 -146 158z" />
    <glyph glyph-name="scaron" unicode="&#x161;" horiz-adv-x="335" 
d="M177 569h-24l-73 114h22l63 -98l63 98h22zM169 -10c-81 0 -132 47 -132 126v18h21v-18c0 -67 42 -106 110 -106c67 0 110 38 110 105c0 35 -11 61 -36 80c-25 20 -40 28 -77 44c-40 17 -55 26 -83 47c-28 23 -40 53 -40 94c0 75 51 122 124 122s124 -47 124 -126v-8h-20
v8c0 67 -43 106 -104 106c-59 0 -103 -39 -103 -102c0 -33 11 -59 36 -79c25 -19 39 -26 76 -43c40 -17 56 -25 84 -48s40 -54 40 -95c0 -79 -50 -125 -130 -125z" />
    <glyph glyph-name="uni0162" unicode="&#x162;" horiz-adv-x="350" 
d="M186 679v-679h-3v-53c43 0 65 -16 65 -48c0 -36 -25 -54 -74 -54c-50 0 -75 18 -75 53v5h19v-5c0 -24 18 -36 55 -36s56 12 56 36c0 23 -17 34 -51 34h-11v68h-3v679h-140v21h302v-21h-140z" />
    <glyph glyph-name="uni0163" unicode="&#x163;" horiz-adv-x="253" 
d="M229 492v-20h-115v-383c0 -55 20 -79 65 -79c20 0 37 4 50 11v-21c-14 -7 -31 -10 -52 -10c-10 0 -19 1 -27 3v-46c43 0 65 -16 65 -48c0 -36 -25 -54 -74 -54c-50 0 -75 18 -75 53v5h19v-5c0 -24 18 -36 55 -36s56 12 56 36c0 23 -17 34 -51 34h-11v66
c-28 14 -42 44 -42 90v384h-69v20h69l4 156h18v-156h115z" />
    <glyph glyph-name="Tcaron" unicode="&#x164;" horiz-adv-x="350" 
d="M187 767h-24l-73 114h22l63 -98l63 98h22zM186 0h-22v679h-140v21h302v-21h-140v-679z" />
    <glyph glyph-name="tcaron" unicode="&#x165;" horiz-adv-x="253" 
d="M189 626l-20 -77h-11l16 76h-6v81h21v-80zM229 492v-20h-115v-383c0 -55 20 -79 65 -79c20 0 37 4 50 11v-21c-14 -7 -31 -10 -52 -10c-57 0 -85 33 -85 98v384h-69v20h69l4 156h18v-156h115z" />
    <glyph glyph-name="Tbar" unicode="&#x166;" horiz-adv-x="350" 
d="M326 700v-21h-140v-304h98v-20h-98v-355h-22v355h-98v20h98v304h-140v21h302z" />
    <glyph glyph-name="tbar" unicode="&#x167;" horiz-adv-x="253" 
d="M229 492v-20h-115v-204h96v-16h-96v-163c0 -55 20 -79 65 -79c20 0 37 4 50 11v-21c-14 -7 -31 -10 -52 -10c-57 0 -85 33 -85 98v164h-60v16h60v204h-69v20h69l4 156h18v-156h115z" />
    <glyph glyph-name="Utilde" unicode="&#x168;" horiz-adv-x="404" 
d="M118 789l-15 8c16 37 36 56 60 56c14 0 30 -7 48 -21c13 -12 26 -18 37 -18c17 0 31 15 44 45l15 -8c-16 -37 -36 -56 -59 -56c-15 0 -32 7 -49 22c-13 11 -25 17 -36 17c-17 0 -32 -15 -45 -45zM55 156v544h22v-545c0 -96 42 -144 125 -144c84 0 126 48 126 144v545h21
v-544c0 -108 -51 -166 -147 -166s-147 58 -147 166z" />
    <glyph glyph-name="utilde" unicode="&#x169;" horiz-adv-x="375" 
d="M147 636c-17 0 -32 -15 -45 -45l-15 8c16 37 36 56 60 56c14 0 30 -7 48 -21c13 -12 26 -18 37 -18c17 0 31 15 44 45l15 -8c-16 -37 -36 -56 -59 -56c-15 0 -32 7 -49 22c-13 11 -25 17 -36 17zM296 175v317h21v-492h-19v96c-20 -67 -67 -106 -128 -106
c-77 0 -115 47 -115 140v362h21v-358c0 -83 32 -124 97 -124c73 0 123 65 123 165z" />
    <glyph glyph-name="Umacron" unicode="&#x16a;" horiz-adv-x="404" 
d="M292 814h-180v20h180v-20zM55 156v544h22v-545c0 -96 42 -144 125 -144c84 0 126 48 126 144v545h21v-544c0 -108 -51 -166 -147 -166s-147 58 -147 166z" />
    <glyph glyph-name="umacron" unicode="&#x16b;" horiz-adv-x="375" 
d="M96 636h180v-20h-180v20zM296 175v317h21v-492h-19v96c-20 -67 -67 -106 -128 -106c-77 0 -115 47 -115 140v362h21v-358c0 -83 32 -124 97 -124c73 0 123 65 123 165z" />
    <glyph glyph-name="Ubreve" unicode="&#x16c;" horiz-adv-x="404" 
d="M120 865h18c1 -43 23 -64 64 -64s62 21 64 64h18c-1 -53 -31 -83 -82 -83s-79 30 -82 83zM55 156v544h22v-545c0 -96 42 -144 125 -144c84 0 126 48 126 144v545h21v-544c0 -108 -51 -166 -147 -166s-147 58 -147 166z" />
    <glyph glyph-name="ubreve" unicode="&#x16d;" horiz-adv-x="375" 
d="M104 667h18c1 -43 23 -64 64 -64s62 21 64 64h18c-1 -53 -31 -83 -82 -83s-79 30 -82 83zM296 175v317h21v-492h-19v96c-20 -67 -67 -106 -128 -106c-77 0 -115 47 -115 140v362h21v-358c0 -83 32 -124 97 -124c73 0 123 65 123 165z" />
    <glyph glyph-name="Uring" unicode="&#x16e;" horiz-adv-x="404" 
d="M139 830c0 36 27 64 63 64s63 -28 63 -64c0 -35 -27 -63 -63 -63s-63 28 -63 63zM169 797c17 -17 49 -17 66 0s17 49 0 66c-17 19 -49 19 -66 0c-17 -17 -17 -49 0 -66zM55 156v544h22v-545c0 -96 42 -144 125 -144c84 0 126 48 126 144v545h21v-544
c0 -108 -51 -166 -147 -166s-147 58 -147 166z" />
    <glyph glyph-name="uring" unicode="&#x16f;" horiz-adv-x="375" 
d="M123 632c0 36 27 64 63 64s63 -28 63 -64c0 -35 -27 -63 -63 -63s-63 28 -63 63zM219 665c-17 19 -49 19 -66 0c-17 -17 -17 -49 0 -66s49 -17 66 0s17 49 0 66zM296 175v317h21v-492h-19v96c-20 -67 -67 -106 -128 -106c-77 0 -115 47 -115 140v362h21v-358
c0 -83 32 -124 97 -124c73 0 123 65 123 165z" />
    <glyph glyph-name="Uhungarumlaut" unicode="&#x170;" horiz-adv-x="404" 
d="M140 767h-21l71 114h27zM251 767h-21l71 114h27zM55 156v544h22v-545c0 -96 42 -144 125 -144c84 0 126 48 126 144v545h21v-544c0 -108 -51 -166 -147 -166s-147 58 -147 166z" />
    <glyph glyph-name="uhungarumlaut" unicode="&#x171;" horiz-adv-x="375" 
d="M174 683h27l-77 -114h-21zM285 683h27l-77 -114h-21zM296 175v317h21v-492h-19v96c-20 -67 -67 -106 -128 -106c-77 0 -115 47 -115 140v362h21v-358c0 -83 32 -124 97 -124c73 0 123 65 123 165z" />
    <glyph glyph-name="Uogonek" unicode="&#x172;" horiz-adv-x="404" 
d="M328 155v545h21v-544c0 -93 -36 -147 -107 -162c-33 -24 -49 -52 -49 -83c0 -32 17 -48 51 -48c19 0 34 4 47 13v-19c-18 -8 -35 -12 -51 -12c-41 1 -66 23 -66 62c0 31 14 59 43 84c-3 -1 -8 -1 -15 -1c-96 0 -147 58 -147 166v544h22v-545c0 -96 42 -144 125 -144
c84 0 126 48 126 144z" />
    <glyph glyph-name="uogonek" unicode="&#x173;" horiz-adv-x="375" 
d="M292 -137c19 0 34 4 47 13v-19c-18 -8 -35 -12 -51 -12c-41 1 -66 23 -66 62c0 35 25 68 76 98v91c-20 -67 -67 -106 -128 -106c-77 0 -115 47 -115 140v362h21v-358c0 -83 32 -124 97 -124c73 0 123 65 123 165v317h21v-492h-4c-48 -28 -72 -58 -72 -89
c0 -32 17 -48 51 -48z" />
    <glyph glyph-name="Wcircumflex" unicode="&#x174;" horiz-adv-x="555" 
d="M215 767h-22l73 114h24l73 -114h-22l-63 98zM172 0h-32l-112 700h21l108 -671l107 671h28l107 -671l108 671h21l-112 -700h-32l-106 659z" />
    <glyph glyph-name="wcircumflex" unicode="&#x175;" horiz-adv-x="523" 
d="M199 569h-22l73 114h24l73 -114h-22l-63 98zM163 0h-29l-105 492h22l99 -461l99 461h27l99 -461l99 461h21l-105 -492h-28l-100 455z" />
    <glyph glyph-name="Ycircumflex" unicode="&#x176;" horiz-adv-x="382" 
d="M129 767h-22l73 114h24l73 -114h-22l-63 98zM202 0h-22v323l-155 377h24l142 -348l143 348h23l-155 -377v-323z" />
    <glyph glyph-name="ycircumflex" unicode="&#x177;" horiz-adv-x="349" 
d="M237 569l-63 98l-63 -98h-22l73 114h24l73 -114h-22zM302 492h20l-126 -460h1l-29 -110c-17 -64 -41 -87 -88 -87c-18 0 -32 3 -41 10v21c10 -7 23 -11 39 -11c37 0 53 17 68 70l23 89l-142 478h22l132 -442z" />
    <glyph glyph-name="Ydieresis" unicode="&#x178;" horiz-adv-x="382" 
d="M148 777h-22v94h22v-94zM258 777h-22v94h22v-94zM202 0h-22v323l-155 377h24l142 -348l143 348h23l-155 -377v-323z" />
    <glyph glyph-name="Zacute" unicode="&#x179;" horiz-adv-x="346" 
d="M170 767h-22l71 114h28zM318 0h-291v20l267 659h-257v21h281v-20l-267 -659h267v-21z" />
    <glyph glyph-name="zacute" unicode="&#x17a;" horiz-adv-x="318" 
d="M156 569h-22l71 114h28zM287 0h-256v19l232 453h-222v20h246v-19l-233 -453h233v-20z" />
    <glyph glyph-name="Zdotaccent" unicode="&#x17b;" horiz-adv-x="346" 
d="M188 777h-22v94h22v-94zM318 0h-291v20l267 659h-257v21h281v-20l-267 -659h267v-21z" />
    <glyph glyph-name="zdotaccent" unicode="&#x17c;" horiz-adv-x="318" 
d="M174 579h-22v94h22v-94zM287 0h-256v19l232 453h-222v20h246v-19l-233 -453h233v-20z" />
    <glyph glyph-name="Zcaron" unicode="&#x17d;" horiz-adv-x="346" 
d="M189 767h-24l-73 114h22l63 -98l63 98h22zM318 0h-291v20l267 659h-257v21h281v-20l-267 -659h267v-21z" />
    <glyph glyph-name="zcaron" unicode="&#x17e;" horiz-adv-x="318" 
d="M175 569h-24l-73 114h22l63 -98l63 98h22zM287 0h-256v19l232 453h-222v20h246v-19l-233 -453h233v-20z" />
    <glyph glyph-name="florin" unicode="&#x192;" 
d="M246 357v-1c79 -12 113 -58 113 -150v-23c0 -93 -32 -142 -107 -155v-83h-21v81c-5 -1 -12 -1 -22 -1h-75v-80h-21v80h-82v21h49v608h-49v21h82v70h21v-70h65c8 0 19 -1 32 -2v72h21v-75c67 -13 96 -61 96 -152v-16c0 -84 -34 -132 -102 -145zM199 654h-97v-289h87
c95 0 137 41 137 134v17c0 99 -36 138 -127 138zM337 183v24c0 97 -41 138 -148 138h-87v-299h107c91 0 128 41 128 137z" />
    <glyph glyph-name="AEacute" unicode="&#x1fc;" horiz-adv-x="592" 
d="M350 881h28l-77 -114h-22zM565 700v-21h-242v-302h203v-21h-203v-335h242v-21h-264v170h-191l-64 -170h-22l265 700h276zM301 675l-183 -484h183v484z" />
    <glyph glyph-name="aeacute" unicode="&#x1fd;" horiz-adv-x="594" 
d="M336 683h28l-77 -114h-22zM550 346v-92h-247v-109c0 -90 37 -135 112 -135s114 47 114 135v9h21v-8c0 -100 -47 -156 -135 -156c-73 0 -116 36 -129 109c-19 -68 -70 -109 -138 -109c-71 0 -113 44 -113 117s34 113 130 153c51 21 83 37 96 48s20 28 20 51v19
c0 65 -38 104 -103 104c-67 0 -111 -40 -111 -109v-9h-21v8c0 83 52 130 131 130c67 0 106 -29 117 -88c17 59 58 88 122 88c87 0 134 -56 134 -156zM303 347v-73h225v73c0 90 -38 135 -113 135s-112 -45 -112 -135zM151 10c80 0 130 64 130 165h1v14h-1v118
c-9 -17 -45 -39 -110 -65c-83 -35 -114 -71 -114 -134c0 -61 34 -98 94 -98z" />
    <glyph glyph-name="Oslashacute" unicode="&#x1fe;" 
d="M242 881h28l-77 -114h-22zM335 726l15 -7l-26 -69c17 -27 25 -63 25 -106v-388c0 -108 -53 -166 -149 -166c-49 0 -87 15 -112 44l-23 -60l-15 7l26 69c-17 27 -25 63 -25 106v388c0 108 53 166 149 166c49 0 87 -15 112 -44zM73 545v-390c0 -30 5 -56 14 -78l216 565
c-21 31 -56 47 -103 47c-85 0 -127 -48 -127 -144zM327 155v390c0 30 -5 56 -14 78l-216 -565c21 -31 56 -47 103 -47c85 0 127 48 127 144z" />
    <glyph glyph-name="oslashacute" unicode="&#x1ff;" horiz-adv-x="365" 
d="M225 683h28l-77 -114h-22zM305 521l14 -7l-29 -62c18 -26 27 -61 27 -106v-200c0 -100 -47 -156 -135 -156c-41 0 -73 12 -95 36l-26 -55l-14 8l29 61c-18 26 -27 61 -27 106v200c0 100 46 156 133 156c41 0 73 -12 97 -36zM70 347v-202c0 -33 6 -60 17 -83l182 383
c-19 25 -48 37 -87 37c-75 0 -112 -45 -112 -135zM295 145v202c0 32 -5 59 -16 82l-182 -382c19 -25 48 -37 85 -37c75 0 113 45 113 135z" />
    <glyph glyph-name="uni0218" unicode="&#x218;" horiz-adv-x="366" 
d="M37 148v37h21v-38c0 -87 46 -136 125 -136s125 49 125 136c0 37 -10 70 -29 99s-53 62 -102 99c-53 40 -89 75 -110 106c-20 31 -30 65 -30 104c0 96 54 155 145 155s144 -58 144 -158v-26h-22v27c0 87 -45 136 -122 136s-123 -50 -123 -133c0 -35 10 -66 29 -95
c19 -28 54 -61 104 -99c53 -40 89 -75 108 -106c20 -31 30 -67 30 -108c0 -100 -55 -158 -147 -158s-146 58 -146 158zM170 -176h-11l19 52h-7v71h22v-69z" />
    <glyph glyph-name="uni0219" unicode="&#x219;" horiz-adv-x="335" 
d="M169 -10c-81 0 -132 47 -132 126v18h21v-18c0 -67 42 -106 110 -106c67 0 110 38 110 105c0 35 -11 61 -36 80c-25 20 -40 28 -77 44c-40 17 -55 26 -83 47c-28 23 -40 53 -40 94c0 75 51 122 124 122s124 -47 124 -126v-8h-20v8c0 67 -43 106 -104 106
c-59 0 -103 -39 -103 -102c0 -33 11 -59 36 -79c25 -19 39 -26 76 -43c40 -17 56 -25 84 -48s40 -54 40 -95c0 -79 -50 -125 -130 -125zM156 -176h-11l19 52h-7v71h22v-69z" />
    <glyph glyph-name="uni021A" unicode="&#x21a;" horiz-adv-x="350" 
d="M186 0h-22v679h-140v21h302v-21h-140v-679zM163 -176h-11l19 52h-7v71h22v-69z" />
    <glyph glyph-name="uni021B" unicode="&#x21b;" horiz-adv-x="253" 
d="M229 492v-20h-115v-383c0 -55 20 -79 65 -79c20 0 37 4 50 11v-21c-14 -7 -31 -10 -52 -10c-57 0 -85 33 -85 98v384h-69v20h69l4 156h18v-156h115zM138 -124h-7v71h22v-69l-23 -54h-11z" />
    <glyph glyph-name="uni0237" unicode="&#x237;" horiz-adv-x="138" 
d="M15 -165c-15 0 -27 3 -38 10v21c11 -7 24 -11 37 -11c32 0 44 15 44 59v578h22v-579c0 -52 -22 -78 -65 -78z" />
    <glyph glyph-name="uni02BC" unicode="&#x2bc;" horiz-adv-x="0" 
d="M-11 543h-11l18 76h-7v81h22v-80z" />
    <glyph glyph-name="circumflex" unicode="&#x2c6;" horiz-adv-x="500" 
d="M187 569h-22l73 114h24l73 -114h-22l-63 98z" />
    <glyph glyph-name="caron" unicode="&#x2c7;" horiz-adv-x="500" 
d="M262 569h-24l-73 114h22l63 -98l63 98h22z" />
    <glyph glyph-name="uni02C9" unicode="&#x2c9;" horiz-adv-x="500" 
d="M340 616h-180v20h180v-20z" />
    <glyph glyph-name="breve" unicode="&#x2d8;" horiz-adv-x="500" 
d="M168 667h18c1 -43 23 -64 64 -64s62 21 64 64h18c-1 -53 -31 -83 -82 -83s-79 30 -82 83z" />
    <glyph glyph-name="dotaccent" unicode="&#x2d9;" horiz-adv-x="500" 
d="M261 579h-22v94h22v-94z" />
    <glyph glyph-name="ring" unicode="&#x2da;" horiz-adv-x="500" 
d="M187 632c0 36 27 64 63 64s63 -28 63 -64c0 -35 -27 -63 -63 -63s-63 28 -63 63zM217 599c17 -17 49 -17 66 0s17 49 0 66c-17 19 -49 19 -66 0c-17 -17 -17 -49 0 -66z" />
    <glyph glyph-name="ogonek" unicode="&#x2db;" horiz-adv-x="500" 
d="M259 -155c-41 1 -66 23 -66 62c0 38 21 70 62 97h21c-43 -25 -64 -56 -64 -93c0 -32 17 -48 51 -48c18 0 34 4 47 13v-19c-18 -8 -35 -12 -51 -12z" />
    <glyph glyph-name="tilde" unicode="&#x2dc;" horiz-adv-x="500" 
d="M166 591l-15 8c16 37 36 56 60 56c14 0 30 -7 48 -21c13 -12 26 -18 37 -18c17 0 31 15 44 45l15 -8c-16 -37 -36 -56 -59 -56c-15 0 -32 7 -49 22c-13 11 -25 17 -36 17c-17 0 -32 -15 -45 -45z" />
    <glyph glyph-name="hungarumlaut" unicode="&#x2dd;" horiz-adv-x="500" 
d="M188 569h-21l71 114h27zM299 569h-21l71 114h27z" />
    <glyph glyph-name="gravecomb" unicode="&#x300;" horiz-adv-x="0" 
d="M29 569h-22l-77 114h28z" />
    <glyph glyph-name="acutecomb" unicode="&#x301;" horiz-adv-x="0" 
d="M-7 569h-22l71 114h28z" />
    <glyph glyph-name="uni0302" unicode="&#x302;" horiz-adv-x="0" 
d="M-63 569h-22l73 114h24l73 -114h-22l-63 98z" />
    <glyph glyph-name="tildecomb" unicode="&#x303;" horiz-adv-x="0" 
d="M-84 591l-15 8c16 37 36 56 60 56c14 0 30 -7 48 -21c13 -12 26 -18 37 -18c17 0 31 15 44 45l15 -8c-16 -37 -36 -56 -59 -56c-15 0 -32 7 -49 22c-13 11 -25 17 -36 17c-17 0 -32 -15 -45 -45z" />
    <glyph glyph-name="uni0304" unicode="&#x304;" horiz-adv-x="0" 
d="M90 616h-180v20h180v-20z" />
    <glyph glyph-name="uni0306" unicode="&#x306;" horiz-adv-x="0" 
d="M-82 667h18c1 -43 23 -64 64 -64s62 21 64 64h18c-1 -53 -31 -83 -82 -83s-79 30 -82 83z" />
    <glyph glyph-name="uni0307" unicode="&#x307;" horiz-adv-x="0" 
d="M11 579h-22v94h22v-94z" />
    <glyph glyph-name="uni0308" unicode="&#x308;" horiz-adv-x="0" 
d="M-44 579h-22v94h22v-94zM66 579h-22v94h22v-94z" />
    <glyph glyph-name="uni030A" unicode="&#x30a;" horiz-adv-x="0" 
d="M-63 632c0 36 27 64 63 64s63 -28 63 -64c0 -35 -27 -63 -63 -63s-63 28 -63 63zM-33 599c17 -17 49 -17 66 0s17 49 0 66c-17 19 -49 19 -66 0c-17 -17 -17 -49 0 -66z" />
    <glyph glyph-name="uni030B" unicode="&#x30b;" horiz-adv-x="0" 
d="M-62 569h-21l71 114h27zM49 569h-21l71 114h27z" />
    <glyph glyph-name="uni030C" unicode="&#x30c;" horiz-adv-x="0" 
d="M12 569h-24l-73 114h22l63 -98l63 98h22z" />
    <glyph glyph-name="uni0312" unicode="&#x312;" horiz-adv-x="0" 
d="M11 579h-22v70l23 53h11l-19 -52h7v-71z" />
    <glyph glyph-name="uni0326" unicode="&#x326;" horiz-adv-x="0" 
d="M-12 -176h-11l19 52h-7v71h22v-69z" />
    <glyph glyph-name="uni0327" unicode="&#x327;" horiz-adv-x="0" 
d="M-1 -155c-50 0 -75 18 -75 53v5h19v-5c0 -24 18 -36 55 -36s56 12 56 36c0 23 -17 34 -51 34h-11v70h16v-55c43 0 65 -16 65 -48c0 -36 -25 -54 -74 -54z" />
    <glyph glyph-name="uni0328" unicode="&#x328;" horiz-adv-x="0" 
d="M9 -155c-41 1 -66 23 -66 62c0 38 21 70 62 97h21c-43 -25 -64 -56 -64 -93c0 -32 17 -48 51 -48c18 0 34 4 47 13v-19c-18 -8 -35 -12 -51 -12z" />
    <glyph glyph-name="uni0335" unicode="&#x335;" horiz-adv-x="0" 
d="M89 340h-178v20h178v-20z" />
    <glyph glyph-name="uni0336" unicode="&#x336;" horiz-adv-x="0" 
d="M191 340h-382v20h382v-20z" />
    <glyph glyph-name="uni0337" unicode="&#x337;" horiz-adv-x="0" 
d="M136 514l-258 -543l-14 8l258 542z" />
    <glyph glyph-name="uni0338" unicode="&#x338;" horiz-adv-x="0" 
d="M150 719l-285 -745l-15 7l285 745z" />
    <glyph glyph-name="uni0394" unicode="&#x394;" horiz-adv-x="401" 
d="M374 0h-347l157 703h30zM198 674l-146 -654h296z" />
    <glyph glyph-name="uni03A9" unicode="&#x3a9;" horiz-adv-x="393" 
d="M172 0h-124v21h101l-1 1c-72 67 -100 140 -100 261v261c0 108 53 166 148 166c96 0 149 -58 149 -166v-261c0 -121 -28 -194 -100 -261l-1 -1h101v-21h-125v21c38 33 65 69 80 108s23 88 23 148v268c0 96 -42 144 -127 144c-84 0 -126 -48 -126 -144v-268
c0 -61 7 -110 22 -149c15 -38 42 -74 80 -107v-21z" />
    <glyph glyph-name="uni03BC" unicode="&#x3bc;" horiz-adv-x="379" 
d="M299 175v317h22v-492h-19l-1 96c-19 -67 -67 -106 -128 -106c-43 0 -74 15 -93 45v-190h-22v647h22v-358c0 -83 32 -124 96 -124c73 0 123 65 123 165z" />
    <glyph glyph-name="pi" unicode="&#x3c0;" horiz-adv-x="438" 
d="M121 0h-22v472h-74v20h388v-20h-74v-472h-22v472h-196v-472z" />
    <glyph glyph-name="uni1E02" unicode="&#x1e02;" horiz-adv-x="397" 
d="M199 777h-22v94h22v-94zM207 0h-149v700h139c105 0 149 -46 149 -157v-31c0 -83 -34 -132 -101 -145v-1c79 -12 112 -58 112 -150v-58c0 -109 -45 -158 -150 -158zM80 679v-304h106c96 0 138 41 138 134v32c0 99 -36 138 -128 138h-116zM80 355v-334h127
c91 0 128 41 128 137v59c0 97 -41 138 -148 138h-107z" />
    <glyph glyph-name="uni1E03" unicode="&#x1e03;" horiz-adv-x="377" 
d="M58 871h22v-94h-22v94zM210 502c75 0 116 -48 116 -140v-232c0 -92 -41 -140 -116 -140c-65 0 -113 40 -133 109l-3 -99h-16v700h22v-298c21 63 69 100 130 100zM305 134v224c0 83 -33 124 -99 124c-75 0 -126 -65 -126 -165v-142c0 -100 51 -165 126 -165
c66 0 99 41 99 124z" />
    <glyph glyph-name="uni1E0A" unicode="&#x1e0a;" horiz-adv-x="403" 
d="M204 777h-22v94h22v-94zM203 0h-145v700h145c104 0 149 -49 149 -164v-372c0 -115 -45 -164 -149 -164zM80 679v-658h123c91 0 127 42 127 143v372c0 101 -36 143 -127 143h-123z" />
    <glyph glyph-name="uni1E0B" unicode="&#x1e0b;" horiz-adv-x="377" 
d="M297 871h22v-94h-22v94zM327 0h-20c-4 19 -7 52 -8 97c-20 -67 -68 -107 -131 -107c-76 0 -117 48 -117 140v232c0 93 39 140 117 140c61 0 108 -37 129 -101v299h22v-581c0 -58 3 -98 8 -119zM172 10c73 0 125 66 125 165v142c0 99 -52 165 -125 165
c-67 0 -100 -41 -100 -124v-224c0 -83 33 -124 100 -124z" />
    <glyph glyph-name="uni1E1E" unicode="&#x1e1e;" horiz-adv-x="337" 
d="M196 777h-22v94h22v-94zM80 0h-22v700h255v-21h-233v-312h194v-21h-194v-346z" />
    <glyph glyph-name="uni1E1F" unicode="&#x1e1f;" horiz-adv-x="256" 
d="M147 871h22v-94h-22v94zM184 690c-45 0 -66 -24 -66 -79v-119h116v-20h-116v-472h-21v472h-73v20h73v120c0 65 28 98 85 98c21 0 38 -3 52 -10v-21c-13 7 -30 11 -50 11z" />
    <glyph glyph-name="uni1E40" unicode="&#x1e40;" horiz-adv-x="501" 
d="M262 777h-22v94h22v-94zM79 0h-21v700h36l157 -659l156 659h36v-700h-22v672l-160 -672h-22l-160 672v-672z" />
    <glyph glyph-name="uni1E41" unicode="&#x1e41;" horiz-adv-x="591" 
d="M283 673h22v-94h-22v94zM428 502c69 0 108 -44 108 -127v-375h-21v372c0 73 -30 110 -91 110c-69 0 -116 -65 -116 -165v-317h-22v372c0 73 -30 110 -90 110c-69 0 -116 -65 -116 -165v-317h-22v492h18l1 -95c19 65 64 105 123 105c63 0 99 -34 107 -102
c19 64 62 102 121 102z" />
    <glyph glyph-name="uni1E56" unicode="&#x1e56;" horiz-adv-x="378" 
d="M201 777h-22v94h22v-94zM80 0h-22v700h137c104 0 149 -49 149 -164v-45c0 -115 -45 -164 -149 -164h-115v-327zM80 679v-331h115c91 0 127 42 127 143v46c0 101 -36 142 -127 142h-115z" />
    <glyph glyph-name="uni1E57" unicode="&#x1e57;" horiz-adv-x="377" 
d="M180 673h22v-94h-22v94zM210 502c75 0 116 -48 116 -140v-232c0 -92 -41 -140 -116 -140c-61 0 -109 37 -130 100v-245h-22v647h18l1 -101c19 71 68 111 133 111zM304 134v224c0 83 -33 124 -98 124c-75 0 -126 -65 -126 -165v-142c0 -100 51 -165 126 -165
c65 0 98 41 98 124z" />
    <glyph glyph-name="uni1E60" unicode="&#x1e60;" horiz-adv-x="366" 
d="M193 777h-22v94h22v-94zM37 148v37h21v-38c0 -87 46 -136 125 -136s125 49 125 136c0 37 -10 70 -29 99s-53 62 -102 99c-53 40 -89 75 -110 106c-20 31 -30 65 -30 104c0 96 54 155 145 155s144 -58 144 -158v-26h-22v27c0 87 -45 136 -122 136s-123 -50 -123 -133
c0 -35 10 -66 29 -95c19 -28 54 -61 104 -99c53 -40 89 -75 108 -106c20 -31 30 -67 30 -108c0 -100 -55 -158 -147 -158s-146 58 -146 158z" />
    <glyph glyph-name="uni1E61" unicode="&#x1e61;" horiz-adv-x="335" 
d="M176 579h-22v94h22v-94zM169 -10c-81 0 -132 47 -132 126v18h21v-18c0 -67 42 -106 110 -106c67 0 110 38 110 105c0 35 -11 61 -36 80c-25 20 -40 28 -77 44c-40 17 -55 26 -83 47c-28 23 -40 53 -40 94c0 75 51 122 124 122s124 -47 124 -126v-8h-20v8
c0 67 -43 106 -104 106c-59 0 -103 -39 -103 -102c0 -33 11 -59 36 -79c25 -19 39 -26 76 -43c40 -17 56 -25 84 -48s40 -54 40 -95c0 -79 -50 -125 -130 -125z" />
    <glyph glyph-name="uni1E6A" unicode="&#x1e6a;" horiz-adv-x="350" 
d="M186 777h-22v94h22v-94zM186 0h-22v679h-140v21h302v-21h-140v-679z" />
    <glyph glyph-name="uni1E6B" unicode="&#x1e6b;" horiz-adv-x="253" 
d="M94 819h22v-94h-22v94zM229 492v-20h-115v-383c0 -55 20 -79 65 -79c20 0 37 4 50 11v-21c-14 -7 -31 -10 -52 -10c-57 0 -85 33 -85 98v384h-69v20h69l4 156h18v-156h115z" />
    <glyph glyph-name="Wgrave" unicode="&#x1e80;" horiz-adv-x="555" 
d="M307 767h-22l-77 114h28zM172 0h-32l-112 700h21l108 -671l107 671h28l107 -671l108 671h21l-112 -700h-32l-106 659z" />
    <glyph glyph-name="wgrave" unicode="&#x1e81;" horiz-adv-x="523" 
d="M291 569h-22l-77 114h28zM163 0h-29l-105 492h22l99 -461l99 461h27l99 -461l99 461h21l-105 -492h-28l-100 455z" />
    <glyph glyph-name="Wacute" unicode="&#x1e82;" horiz-adv-x="555" 
d="M271 767h-22l71 114h28zM172 0h-32l-112 700h21l108 -671l107 671h28l107 -671l108 671h21l-112 -700h-32l-106 659z" />
    <glyph glyph-name="wacute" unicode="&#x1e83;" horiz-adv-x="523" 
d="M255 569h-22l71 114h28zM163 0h-29l-105 492h22l99 -461l99 461h27l99 -461l99 461h21l-105 -492h-28l-100 455z" />
    <glyph glyph-name="Wdieresis" unicode="&#x1e84;" horiz-adv-x="555" 
d="M234 777h-22v94h22v-94zM344 777h-22v94h22v-94zM172 0h-32l-112 700h21l108 -671l107 671h28l107 -671l108 671h21l-112 -700h-32l-106 659z" />
    <glyph glyph-name="wdieresis" unicode="&#x1e85;" horiz-adv-x="523" 
d="M218 579h-22v94h22v-94zM328 579h-22v94h22v-94zM163 0h-29l-105 492h22l99 -461l99 461h27l99 -461l99 461h21l-105 -492h-28l-100 455z" />
    <glyph glyph-name="uni1E9E" unicode="&#x1e9e;" horiz-adv-x="402" 
d="M213 409h2c107 0 149 -49 149 -164v-81c0 -115 -45 -164 -149 -164h-34v21h34c91 0 127 41 127 142v83c0 101 -36 142 -127 142h-27v20l143 271h-251v-679h-22v700h296v-21z" />
    <glyph glyph-name="Ygrave" unicode="&#x1ef2;" horiz-adv-x="382" 
d="M221 767h-22l-77 114h28zM202 0h-22v323l-155 377h24l142 -348l143 348h23l-155 -377v-323z" />
    <glyph glyph-name="ygrave" unicode="&#x1ef3;" horiz-adv-x="349" 
d="M132 683l71 -114h-22l-77 114h28zM302 492h20l-126 -460h1l-29 -110c-17 -64 -41 -87 -88 -87c-18 0 -32 3 -41 10v21c10 -7 23 -11 39 -11c37 0 53 17 68 70l23 89l-142 478h22l132 -442z" />
    <glyph glyph-name="uni2002" unicode="&#x2002;" horiz-adv-x="300" 
 />
    <glyph glyph-name="uni2003" unicode="&#x2003;" horiz-adv-x="500" 
 />
    <glyph glyph-name="uni2007" unicode="&#x2007;" 
 />
    <glyph glyph-name="uni2008" unicode="&#x2008;" horiz-adv-x="150" 
 />
    <glyph glyph-name="uni200B" unicode="&#x200b;" horiz-adv-x="0" 
 />
    <glyph glyph-name="figuredash" unicode="&#x2012;" 
d="M400 291h-400v18h400v-18z" />
    <glyph glyph-name="endash" unicode="&#x2013;" horiz-adv-x="300" 
d="M300 291h-300v18h300v-18z" />
    <glyph glyph-name="emdash" unicode="&#x2014;" horiz-adv-x="500" 
d="M500 291h-500v18h500v-18z" />
    <glyph glyph-name="quoteleft" unicode="&#x2018;" horiz-adv-x="150" 
d="M89 701h11l-21 -84h7v-82h-22v81z" />
    <glyph glyph-name="quoteright" unicode="&#x2019;" horiz-adv-x="150" 
d="M61 534h-11l21 84h-7v82h22v-81z" />
    <glyph glyph-name="quotesinglbase" unicode="&#x201a;" horiz-adv-x="150" 
d="M61 -84h-11l21 84h-7v82h22v-81z" />
    <glyph glyph-name="quotedblleft" unicode="&#x201c;" horiz-adv-x="237" 
d="M89 700h11l-21 -84h7v-82h-22v81zM175 700h12l-21 -84h7v-82h-23v81z" />
    <glyph glyph-name="quotedblright" unicode="&#x201d;" horiz-adv-x="236" 
d="M61 534h-11l21 84h-7v82h22v-81zM148 534h-12l21 84h-7v82h23v-81z" />
    <glyph glyph-name="quotedblbase" unicode="&#x201e;" horiz-adv-x="236" 
d="M61 -84h-11l21 84h-7v82h22v-81zM148 -84h-12l21 84h-7v82h23v-81z" />
    <glyph glyph-name="dagger" unicode="&#x2020;" horiz-adv-x="430" 
d="M225 -97h-20v568h-165v20h165v209h20v-209h165v-20h-165v-568z" />
    <glyph glyph-name="daggerdbl" unicode="&#x2021;" horiz-adv-x="435" 
d="M228 -97h-21v240h-165v20h165v308h-165v20h165v209h21v-209h165v-20h-165v-308h165v-20h-165v-240z" />
    <glyph glyph-name="bullet" unicode="&#x2022;" horiz-adv-x="300" 
d="M177 272c-15 -15 -39 -15 -55 0c-15 16 -15 40 0 55c36 36 91 -19 55 -55z" />
    <glyph glyph-name="ellipsis" unicode="&#x2026;" horiz-adv-x="500" 
d="M94 0h-22v82h22v-82zM261 0h-22v82h22v-82zM428 0h-22v82h22v-82z" />
    <glyph glyph-name="perthousand" unicode="&#x2030;" horiz-adv-x="832" 
d="M135 307c-61 0 -96 38 -96 107v189c0 69 35 107 96 107c63 0 98 -38 98 -107v-189c0 -69 -35 -107 -98 -107zM163 0h-20l275 701h20zM135 325c52 0 78 29 78 88v191c0 59 -26 88 -78 88c-51 0 -77 -29 -77 -88v-191c0 -59 26 -88 77 -88zM446 -10c-61 0 -96 38 -96 107
v190c0 69 35 107 96 107c63 0 98 -38 98 -107v-190c0 -69 -35 -107 -98 -107zM696 -10c-60 0 -96 39 -96 107v190c0 68 36 107 96 107c63 0 98 -38 98 -107v-190c0 -69 -35 -107 -98 -107zM446 8c52 0 78 29 78 88v192c0 59 -26 88 -78 88c-51 0 -77 -29 -77 -88v-192
c0 -59 26 -88 77 -88zM696 8c53 0 79 29 79 88v192c0 59 -26 88 -79 88c-51 0 -76 -29 -76 -88v-192c0 -59 25 -88 76 -88z" />
    <glyph glyph-name="guilsinglleft" unicode="&#x2039;" horiz-adv-x="149" 
d="M105 217h-18l-44 83l44 82h18l-39 -82z" />
    <glyph glyph-name="guilsinglright" unicode="&#x203a;" horiz-adv-x="149" 
d="M62 217h-18l39 83l-39 82h18l44 -82z" />
    <glyph glyph-name="fraction" unicode="&#x2044;" horiz-adv-x="71" 
d="M-92 0h-20l276 700h19z" />
    <glyph glyph-name="uni2070" unicode="&#x2070;" horiz-adv-x="291" 
d="M145 341c-61 0 -96 38 -96 107v250c0 69 35 107 96 107c63 0 98 -38 98 -107v-250c0 -69 -35 -107 -98 -107zM145 359c52 0 78 29 78 88v252c0 59 -26 88 -78 88c-51 0 -77 -29 -77 -88v-252c0 -59 26 -88 77 -88z" />
    <glyph glyph-name="uni2074" unicode="&#x2074;" horiz-adv-x="291" 
d="M217 351h-20v100h-160v20l157 324h23v-326h39v-18h-39v-100zM197 761l-141 -292h141v292z" />
    <glyph glyph-name="uni2075" unicode="&#x2075;" horiz-adv-x="291" 
d="M147 341c-67 0 -96 43 -96 106v23h19v-24c0 -58 26 -87 77 -87s77 29 77 87v91c0 57 -23 85 -68 85c-38 0 -65 -19 -80 -57l-1 -6h-19l12 236h166v-19h-148l-10 -184c18 32 46 48 85 48c55 0 82 -34 82 -102v-91c0 -65 -31 -106 -96 -106z" />
    <glyph glyph-name="uni2076" unicode="&#x2076;" horiz-adv-x="291" 
d="M148 341c-60 0 -96 39 -96 107v250c0 69 35 107 96 107s96 -38 96 -107v-7h-19v8c0 59 -25 88 -76 88s-77 -30 -77 -90v-136c11 37 43 62 86 62c59 0 89 -34 89 -101v-74c0 -69 -36 -107 -99 -107zM148 359c53 0 79 29 79 88v73c0 57 -24 85 -73 85s-82 -40 -82 -95v-63
c0 -59 25 -88 76 -88z" />
    <glyph glyph-name="uni2077" unicode="&#x2077;" horiz-adv-x="291" 
d="M100 351h-21l142 426h-173v18h192v-19z" />
    <glyph glyph-name="uni2078" unicode="&#x2078;" horiz-adv-x="291" 
d="M145 341c-67 0 -100 35 -100 105v45c0 51 20 81 61 92c-39 12 -58 42 -58 90v27c0 67 34 105 97 105c65 0 98 -35 98 -105v-27c0 -49 -19 -79 -57 -90c40 -11 60 -41 60 -92v-45c0 -70 -34 -105 -101 -105zM146 592c51 0 78 31 78 80v28c0 58 -26 87 -78 87
s-78 -29 -78 -87v-28c0 -49 26 -80 78 -80zM227 446v46c0 55 -27 82 -81 82s-81 -27 -81 -82v-46c0 -58 27 -87 81 -87s81 29 81 87z" />
    <glyph glyph-name="uni2079" unicode="&#x2079;" horiz-adv-x="291" 
d="M143 341c-61 0 -96 38 -96 107v7h19v-8c0 -59 26 -88 77 -88s77 30 77 90v136c-12 -37 -44 -62 -87 -62c-59 0 -88 34 -88 101v74c0 69 35 107 98 107c61 0 96 -38 96 -107v-250c0 -71 -32 -107 -96 -107zM137 541c49 0 83 40 83 95v63c0 57 -28 88 -77 88
c-53 0 -79 -29 -79 -88v-73c0 -57 24 -85 73 -85z" />
    <glyph glyph-name="uni2080" unicode="&#x2080;" horiz-adv-x="291" 
d="M145 -75c-61 0 -96 38 -96 107v250c0 69 35 107 96 107c63 0 98 -38 98 -107v-250c0 -69 -35 -107 -98 -107zM145 -57c52 0 78 29 78 88v252c0 59 -26 88 -78 88c-51 0 -77 -29 -77 -88v-252c0 -59 26 -88 77 -88z" />
    <glyph glyph-name="uni2081" unicode="&#x2081;" horiz-adv-x="291" 
d="M180 -65h-20v404c-15 -23 -42 -37 -80 -42v18c43 3 71 25 85 64h15v-444z" />
    <glyph glyph-name="uni2082" unicode="&#x2082;" horiz-adv-x="291" 
d="M240 -65h-187v24c0 79 33 127 93 187c53 55 78 87 78 136c0 59 -25 89 -75 89c-52 0 -78 -29 -78 -88v-26h-18v25c0 61 28 107 96 107c65 0 94 -43 94 -106c0 -56 -26 -91 -83 -150c-59 -59 -88 -103 -88 -171v-9h168v-18z" />
    <glyph glyph-name="uni2083" unicode="&#x2083;" horiz-adv-x="291" 
d="M141 -75c-64 0 -96 36 -96 107v29h19v-30c0 -59 26 -88 77 -88c52 0 78 30 78 89v45c0 54 -24 81 -73 81h-31v18h32c44 0 72 31 72 82v24c0 59 -26 89 -77 89s-76 -29 -76 -88v-21h-18v20c0 71 31 107 94 107s97 -40 97 -107v-21c0 -49 -23 -84 -60 -93v-1
c39 -7 59 -37 59 -90v-45c0 -71 -32 -107 -97 -107z" />
    <glyph glyph-name="uni2084" unicode="&#x2084;" horiz-adv-x="291" 
d="M217 -65h-20v100h-160v20l157 324h23v-326h39v-18h-39v-100zM197 345l-141 -292h141v292z" />
    <glyph glyph-name="uni2085" unicode="&#x2085;" horiz-adv-x="291" 
d="M147 -75c-67 0 -96 43 -96 106v23h19v-24c0 -58 26 -87 77 -87s77 29 77 87v91c0 57 -23 85 -68 85c-38 0 -65 -19 -80 -57l-1 -6h-19l12 236h166v-19h-148l-10 -184c18 32 46 48 85 48c55 0 82 -34 82 -102v-91c0 -65 -31 -106 -96 -106z" />
    <glyph glyph-name="uni2086" unicode="&#x2086;" horiz-adv-x="291" 
d="M148 -75c-60 0 -96 39 -96 107v250c0 69 35 107 96 107s96 -38 96 -107v-7h-19v8c0 59 -25 88 -76 88s-77 -30 -77 -90v-136c11 37 43 62 86 62c59 0 89 -34 89 -101v-74c0 -69 -36 -107 -99 -107zM148 -57c53 0 79 29 79 88v73c0 57 -24 85 -73 85s-82 -40 -82 -95v-63
c0 -59 25 -88 76 -88z" />
    <glyph glyph-name="uni2087" unicode="&#x2087;" horiz-adv-x="291" 
d="M100 -65h-21l142 426h-173v18h192v-19z" />
    <glyph glyph-name="uni2088" unicode="&#x2088;" horiz-adv-x="291" 
d="M145 -75c-67 0 -100 35 -100 105v45c0 51 20 81 61 92c-39 12 -58 42 -58 90v27c0 67 34 105 97 105c65 0 98 -35 98 -105v-27c0 -49 -19 -79 -57 -90c40 -11 60 -41 60 -92v-45c0 -70 -34 -105 -101 -105zM146 176c51 0 78 31 78 80v28c0 58 -26 87 -78 87
s-78 -29 -78 -87v-28c0 -49 26 -80 78 -80zM227 30v46c0 55 -27 82 -81 82s-81 -27 -81 -82v-46c0 -58 27 -87 81 -87s81 29 81 87z" />
    <glyph glyph-name="uni2089" unicode="&#x2089;" horiz-adv-x="291" 
d="M143 -75c-61 0 -96 38 -96 107v7h19v-8c0 -59 26 -88 77 -88s77 30 77 90v136c-12 -37 -44 -62 -87 -62c-59 0 -88 34 -88 101v74c0 69 35 107 98 107c61 0 96 -38 96 -107v-250c0 -71 -32 -107 -96 -107zM137 125c49 0 83 40 83 95v63c0 57 -28 88 -77 88
c-53 0 -79 -29 -79 -88v-73c0 -57 24 -85 73 -85z" />
    <glyph glyph-name="Euro" unicode="&#x20ac;" 
d="M217 -10c-91 0 -145 60 -145 159v149h-44v19h44v91h-44v19h44v124c0 99 54 159 145 159c92 0 146 -60 146 -159v-47h-22v48c0 85 -47 137 -124 137c-76 0 -123 -52 -123 -137v-125h199v-19h-199v-91h199v-19h-199v-150c0 -85 47 -137 123 -137c77 0 124 52 124 137v69h22
v-68c0 -99 -54 -159 -146 -159z" />
    <glyph glyph-name="uni20B9" unicode="&#x20b9;" 
d="M40 700h322v-21h-132c60 -20 91 -68 92 -145h40v-21h-40c-3 -103 -61 -166 -165 -166h-89l287 -347h-29l-286 347v21h112c97 0 145 53 148 145h-260v21h260c-1 92 -49 145 -148 145h-112v21z" />
    <glyph glyph-name="uni20BF" unicode="&#x20bf;" 
d="M246 357v-1c79 -12 113 -58 113 -150v-23c0 -93 -32 -142 -107 -155v-83h-21v81c-5 -1 -12 -1 -22 -1h-75v-80h-21v80h-82v21h49v608h-49v21h82v70h21v-70h65c8 0 19 -1 32 -2v72h21v-75c67 -13 96 -61 96 -152v-16c0 -84 -34 -132 -102 -145zM199 654h-97v-289h87
c95 0 137 41 137 134v17c0 99 -36 138 -127 138zM337 183v24c0 97 -41 138 -148 138h-87v-299h107c91 0 128 41 128 137z" />
    <glyph glyph-name="uni2113" unicode="&#x2113;" horiz-adv-x="223" 
d="M144 -10c-57 0 -85 33 -85 98v612h21v-611c0 -53 22 -79 67 -79c20 0 36 4 49 12v-22c-14 -7 -31 -10 -52 -10z" />
    <glyph glyph-name="uni2116" unicode="&#x2116;" horiz-adv-x="654" 
d="M79 0h-21v700h34l213 -649v649h21v-700h-27l-220 669v-669zM508 286c-63 0 -97 41 -97 114v146c0 73 34 114 97 114c64 0 99 -41 99 -114v-146c0 -73 -35 -114 -99 -114zM508 304c53 0 80 32 80 95v148c0 64 -27 96 -80 96c-51 0 -78 -35 -78 -96v-148
c0 -63 26 -95 78 -95zM604 199h-191v18h191v-18z" />
    <glyph glyph-name="uni2117" unicode="&#x2117;" horiz-adv-x="777" 
d="M638 92c-66 -68 -149 -102 -249 -102s-183 34 -249 102c-66 69 -99 155 -99 258s33 189 99 257c66 69 149 103 249 103s183 -34 249 -103c66 -68 99 -154 99 -257s-33 -189 -99 -258zM389 9c95 0 173 32 235 96c62 65 93 146 93 245s-31 180 -93 244
c-62 65 -140 97 -235 97s-174 -32 -236 -97c-62 -64 -93 -145 -93 -244s31 -180 93 -245c62 -64 141 -96 236 -96zM327 127h-20v428h98c72 0 102 -28 102 -103v-36c0 -75 -31 -102 -102 -102h-78v-187zM327 536v-203h77c60 0 83 22 83 85v33c0 63 -24 85 -83 85h-77z" />
    <glyph glyph-name="uni2120" unicode="&#x2120;" horiz-adv-x="596" 
d="M130 336c-59 0 -95 33 -95 89v15h19v-15c0 -47 27 -72 75 -72c47 0 76 25 76 72c0 48 -26 66 -82 91c-57 24 -88 47 -88 102c0 53 36 88 92 88s91 -33 91 -89v-7h-19v7c0 47 -27 72 -71 72c-45 0 -74 -26 -74 -70c0 -45 26 -65 82 -89c59 -25 88 -49 88 -104
c0 -56 -37 -90 -94 -90zM295 344h-18v356h28l105 -324l106 324h28v-356h-19v328l-106 -328h-18l-106 328v-328z" />
    <glyph glyph-name="trademark" unicode="&#x2122;" horiz-adv-x="597" 
d="M134 344h-19v338h-95v18h208v-18h-94v-338zM296 344h-18v356h27l106 -324l106 324h28v-356h-19v328l-107 -328h-18l-105 328v-328z" />
    <glyph glyph-name="uni2126" unicode="&#x2126;" horiz-adv-x="393" 
d="M172 0h-124v21h101l-1 1c-72 67 -100 140 -100 261v261c0 108 53 166 148 166c96 0 149 -58 149 -166v-261c0 -121 -28 -194 -100 -261l-1 -1h101v-21h-125v21c38 33 65 69 80 108s23 88 23 148v268c0 96 -42 144 -127 144c-84 0 -126 -48 -126 -144v-268
c0 -61 7 -110 22 -149c15 -38 42 -74 80 -107v-21z" />
    <glyph glyph-name="estimated" unicode="&#x212e;" horiz-adv-x="821" 
d="M413 -10c-105 0 -194 35 -269 106c-74 71 -111 155 -111 254s37 183 111 254c75 71 164 106 269 106s194 -35 268 -106c75 -71 112 -155 112 -254v-9h-613c-5 0 -8 -2 -8 -7v-193c0 -4 4 -11 11 -21c49 -71 137 -108 232 -108c96 0 183 45 244 120h56
c-72 -88 -183 -142 -302 -142zM180 361h469c5 0 7 2 7 7v196c0 5 -4 13 -12 22c-56 65 -140 102 -229 102c-84 0 -161 -35 -232 -106c-7 -7 -11 -15 -11 -22v-192c0 -5 3 -7 8 -7z" />
    <glyph glyph-name="uni2153" unicode="&#x2153;" horiz-adv-x="652" 
d="M180 256h-20v404c-15 -23 -42 -37 -80 -42v18c43 3 71 25 85 64h15v-444zM199 0h-20l276 700h19zM503 -10c-64 0 -96 36 -96 107v29h19v-30c0 -59 26 -88 77 -88c52 0 78 30 78 89v45c0 54 -24 81 -73 81h-31v18h32c44 0 72 31 72 82v24c0 59 -26 89 -77 89
s-76 -29 -76 -88v-21h-18v20c0 71 31 107 94 107s97 -40 97 -107v-21c0 -49 -23 -84 -60 -93v-1c39 -7 59 -37 59 -90v-45c0 -71 -32 -107 -97 -107z" />
    <glyph glyph-name="uni2154" unicode="&#x2154;" horiz-adv-x="653" 
d="M240 256h-187v24c0 79 33 127 93 187c53 55 78 87 78 136c0 59 -25 89 -75 89c-52 0 -78 -29 -78 -88v-26h-18v25c0 61 28 107 96 107c65 0 94 -43 94 -106c0 -56 -26 -91 -83 -150c-59 -59 -88 -103 -88 -171v-9h168v-18zM199 0h-20l276 700h19zM503 -10
c-64 0 -96 36 -96 107v29h19v-30c0 -59 26 -88 77 -88c52 0 78 30 78 89v45c0 54 -24 81 -73 81h-31v18h32c44 0 72 31 72 82v24c0 59 -26 89 -77 89s-76 -29 -76 -88v-21h-18v20c0 71 31 107 94 107s97 -40 97 -107v-21c0 -49 -23 -84 -60 -93v-1c39 -7 59 -37 59 -90v-45
c0 -71 -32 -107 -97 -107z" />
    <glyph glyph-name="oneeighth" unicode="&#x215b;" horiz-adv-x="652" 
d="M180 256h-20v404c-15 -23 -42 -37 -80 -42v18c43 3 71 25 85 64h15v-444zM199 0h-20l276 700h19zM507 -10c-67 0 -100 35 -100 105v45c0 51 20 81 61 92c-39 12 -58 42 -58 90v27c0 67 34 105 97 105c65 0 98 -35 98 -105v-27c0 -49 -19 -79 -57 -90
c40 -11 60 -41 60 -92v-45c0 -70 -34 -105 -101 -105zM508 241c51 0 78 31 78 80v28c0 58 -26 87 -78 87s-78 -29 -78 -87v-28c0 -49 26 -80 78 -80zM589 95v46c0 55 -27 82 -81 82s-81 -27 -81 -82v-46c0 -58 27 -87 81 -87s81 29 81 87z" />
    <glyph glyph-name="threeeighths" unicode="&#x215c;" horiz-adv-x="652" 
d="M141 246c-64 0 -96 36 -96 107v29h19v-30c0 -59 26 -88 77 -88c52 0 78 30 78 89v45c0 54 -24 81 -73 81h-31v18h32c44 0 72 31 72 82v24c0 59 -26 89 -77 89s-76 -29 -76 -88v-21h-18v20c0 71 31 107 94 107s97 -40 97 -107v-21c0 -49 -23 -84 -60 -93v-1
c39 -7 59 -37 59 -90v-45c0 -71 -32 -107 -97 -107zM199 0h-20l276 700h19zM507 -10c-67 0 -100 35 -100 105v45c0 51 20 81 61 92c-39 12 -58 42 -58 90v27c0 67 34 105 97 105c65 0 98 -35 98 -105v-27c0 -49 -19 -79 -57 -90c40 -11 60 -41 60 -92v-45
c0 -70 -34 -105 -101 -105zM508 241c51 0 78 31 78 80v28c0 58 -26 87 -78 87s-78 -29 -78 -87v-28c0 -49 26 -80 78 -80zM589 95v46c0 55 -27 82 -81 82s-81 -27 -81 -82v-46c0 -58 27 -87 81 -87s81 29 81 87z" />
    <glyph glyph-name="fiveeighths" unicode="&#x215d;" horiz-adv-x="652" 
d="M147 246c-67 0 -96 43 -96 106v23h19v-24c0 -58 26 -87 77 -87s77 29 77 87v91c0 57 -23 85 -68 85c-38 0 -65 -19 -80 -57l-1 -6h-19l12 236h166v-19h-148l-10 -184c18 32 46 48 85 48c55 0 82 -34 82 -102v-91c0 -65 -31 -106 -96 -106zM199 0h-20l276 700h19zM507 -10
c-67 0 -100 35 -100 105v45c0 51 20 81 61 92c-39 12 -58 42 -58 90v27c0 67 34 105 97 105c65 0 98 -35 98 -105v-27c0 -49 -19 -79 -57 -90c40 -11 60 -41 60 -92v-45c0 -70 -34 -105 -101 -105zM508 241c51 0 78 31 78 80v28c0 58 -26 87 -78 87s-78 -29 -78 -87v-28
c0 -49 26 -80 78 -80zM589 95v46c0 55 -27 82 -81 82s-81 -27 -81 -82v-46c0 -58 27 -87 81 -87s81 29 81 87z" />
    <glyph glyph-name="seveneighths" unicode="&#x215e;" horiz-adv-x="652" 
d="M100 256h-21l142 426h-173v18h192v-19zM199 0h-20l276 700h19zM507 -10c-67 0 -100 35 -100 105v45c0 51 20 81 61 92c-39 12 -58 42 -58 90v27c0 67 34 105 97 105c65 0 98 -35 98 -105v-27c0 -49 -19 -79 -57 -90c40 -11 60 -41 60 -92v-45c0 -70 -34 -105 -101 -105z
M508 241c51 0 78 31 78 80v28c0 58 -26 87 -78 87s-78 -29 -78 -87v-28c0 -49 26 -80 78 -80zM589 95v46c0 55 -27 82 -81 82s-81 -27 -81 -82v-46c0 -58 27 -87 81 -87s81 29 81 87z" />
    <glyph glyph-name="partialdiff" unicode="&#x2202;" horiz-adv-x="416" 
d="M192 -10c-100 0 -150 50 -150 150c0 9 0 16 1 21l8 112c7 102 53 153 139 153c72 0 124 -41 141 -110l16 222c1 5 1 11 1 20c0 87 -41 131 -124 131c-77 0 -120 -47 -129 -141l-1 -11h-21l1 12c10 107 60 161 149 161c98 0 147 -50 147 -149c0 -10 0 -18 -1 -23l-28 -387
c-8 -105 -60 -161 -149 -161zM190 11c79 0 122 47 129 141l8 93c5 92 -47 160 -135 160c-73 0 -113 -44 -119 -133l-8 -112c0 -5 -1 -15 -1 -19c0 -87 42 -130 126 -130z" />
    <glyph glyph-name="emptyset" unicode="&#x2205;" horiz-adv-x="707" 
d="M138 107l-65 -67l-15 13l66 68c-55 61 -83 135 -83 224c0 91 29 168 88 230s134 93 225 93c85 0 157 -28 216 -85l65 67l14 -13l-65 -68c55 -61 83 -135 83 -224c0 -91 -29 -168 -88 -230s-134 -93 -225 -93c-86 0 -158 28 -216 85zM139 137l416 431
c-53 53 -120 80 -201 80c-84 0 -154 -29 -209 -86s-83 -130 -83 -217c0 -83 26 -153 77 -208zM354 42c83 0 153 29 208 86c55 58 83 130 83 217c0 84 -25 153 -76 208l-417 -431c55 -53 122 -80 202 -80z" />
    <glyph glyph-name="uni2206" unicode="&#x2206;" horiz-adv-x="401" 
d="M374 0h-347l157 703h30zM198 674l-146 -654h296z" />
    <glyph glyph-name="product" unicode="&#x220f;" horiz-adv-x="464" 
d="M91 -155h-22v855h326v-855h-22v834h-282v-834z" />
    <glyph glyph-name="summation" unicode="&#x2211;" horiz-adv-x="407" 
d="M369 -155h-331v21l215 407l-215 406v21h331v-21h-305l214 -406l-214 -407h305v-21z" />
    <glyph glyph-name="minus" unicode="&#x2212;" 
d="M364 290h-328v20h328v-20z" />
    <glyph glyph-name="uni2215" unicode="&#x2215;" 
d="M50 0h-22l322 700h22z" />
    <glyph glyph-name="uni2219" unicode="&#x2219;" horiz-adv-x="127" 
d="M88 326h-49v48h49v-48z" />
    <glyph glyph-name="radical" unicode="&#x221a;" horiz-adv-x="446" 
d="M234 -65h-22l-89 405h-91v20h110l82 -379l168 719h21z" />
    <glyph glyph-name="infinity" unicode="&#x221e;" horiz-adv-x="623" 
d="M168 161c-77 0 -123 57 -123 142c0 83 46 136 123 136c59 0 93 -28 141 -116h3c35 77 82 116 143 116c77 0 123 -57 123 -142c0 -83 -46 -136 -123 -136c-59 0 -93 28 -141 116h-2c-35 -77 -83 -116 -144 -116zM171 182c53 0 96 39 129 118c-25 46 -46 77 -65 93
c-18 17 -40 25 -67 25c-63 0 -101 -44 -101 -115c0 -73 39 -121 104 -121zM455 182c63 0 101 44 101 115c0 73 -39 121 -104 121c-51 0 -94 -39 -129 -118c25 -46 46 -77 64 -94c19 -16 41 -24 68 -24z" />
    <glyph glyph-name="integral" unicode="&#x222b;" 
d="M124 -170c-21 0 -38 3 -52 10v23c12 -8 29 -12 50 -12c47 0 67 24 67 80v719c0 67 29 100 86 100c21 0 39 -3 53 -10v-22c-12 7 -29 11 -50 11c-47 0 -67 -24 -67 -80v-719c0 -67 -29 -100 -87 -100z" />
    <glyph glyph-name="approxequal" unicode="&#x2248;" 
d="M41 326l-16 11c28 51 54 80 97 80c22 0 49 -12 80 -35c32 -22 57 -33 74 -33c29 0 56 23 81 70l16 -11c-28 -51 -54 -80 -97 -80c-22 0 -49 12 -81 35c-31 22 -56 33 -73 33c-29 0 -56 -23 -81 -70zM41 180l-16 11c28 51 54 80 97 80c22 0 49 -12 80 -35
c32 -22 57 -33 74 -33c29 0 56 23 81 70l16 -11c-28 -51 -54 -80 -97 -80c-22 0 -49 12 -81 35c-31 22 -56 33 -73 33c-29 0 -56 -23 -81 -70z" />
    <glyph glyph-name="notequal" unicode="&#x2260;" 
d="M83 97h-22l71 112h-86v20h98l90 142h-188v20h200l71 112h22l-70 -112h85v-20h-98l-90 -142h188v-20h-200z" />
    <glyph glyph-name="lessequal" unicode="&#x2264;" 
d="M341 234v-23l-287 128v20l287 128v-22l-261 -116zM341 129h-287v21h287v-21z" />
    <glyph glyph-name="greaterequal" unicode="&#x2265;" 
d="M346 339l-287 -128v23l261 115l-261 116v22l287 -128v-20zM346 129h-287v21h287v-21z" />
    <glyph glyph-name="lozenge" unicode="&#x25ca;" 
d="M207 -10h-14l-162 360l162 360h14l162 -360zM53 350l147 -330l147 330l-147 330z" />
    <glyph glyph-name="uniE0FF" unicode="&#xe0ff;" horiz-adv-x="588" 
 />
    <glyph glyph-name="uniEFFD" unicode="&#xeffd;" horiz-adv-x="588" 
 />
    <glyph glyph-name="uniF000" unicode="&#xf000;" horiz-adv-x="588" 
 />
    <glyph glyph-name="uniF8FF" unicode="&#xf8ff;" horiz-adv-x="634" 
d="M264 494h59v116h156v-116h132v-152h-132v-60c0 -73 -21 -131 -63 -174s-97 -64 -165 -64s-123 21 -165 62c-42 42 -63 96 -63 163s22 121 65 162c43 42 102 63 176 63zM323 281v61h-60c-27 0 -47 -7 -61 -20c-28 -27 -28 -77 -1 -104c41 -41 128 -18 122 63z" />
    <glyph glyph-name="NULL" horiz-adv-x="0" 
 />
    <glyph glyph-name="uni00A40301" horiz-adv-x="256" 
d="M169 767h-22l71 114h28zM76 -4c-18 0 -35 3 -51 8v21c16 -5 33 -8 50 -8c72 0 104 39 104 124v559h22v-559c0 -99 -40 -145 -125 -145z" />
    <glyph glyph-name="i.loclTRK" horiz-adv-x="138" 
d="M80 579h-22v94h22v-94zM80 0h-22v492h22v-492z" />
    <glyph glyph-name="germandbls.calt" horiz-adv-x="402" 
d="M213 409h2c107 0 149 -49 149 -164v-81c0 -115 -45 -164 -149 -164h-34v21h34c91 0 127 41 127 142v83c0 101 -36 142 -127 142h-27v20l143 271h-251v-679h-22v700h296v-21z" />
    <glyph glyph-name="zero.tf" 
d="M199 -10c-96 0 -148 58 -148 166v388c0 108 52 166 148 166c97 0 150 -58 150 -166v-388c0 -108 -53 -166 -150 -166zM199 11c85 0 128 48 128 144v390c0 96 -43 144 -128 144c-84 0 -126 -48 -126 -144v-390c0 -96 42 -144 126 -144z" />
    <glyph glyph-name="one.tf" 
d="M260 0h-22v659c-25 -46 -68 -72 -129 -79v20c63 5 110 44 130 101h21v-701z" />
    <glyph glyph-name="two.tf" 
d="M346 0h-291v31c0 67 15 123 48 174c17 25 32 46 45 61c13 16 32 37 57 62c28 28 49 50 63 67c28 35 59 92 59 148c0 84 -35 146 -123 146c-85 0 -128 -48 -128 -144v-40h-21v39c0 96 42 166 150 166c101 0 144 -70 144 -166c0 -43 -11 -82 -32 -116
c-21 -33 -52 -71 -94 -114c-32 -31 -57 -58 -74 -79c-35 -41 -72 -118 -72 -199v-15h269v-21z" />
    <glyph glyph-name="three.tf" 
d="M196 -10c-105 0 -149 67 -149 166v44h21v-45c0 -96 43 -144 128 -144s127 49 127 146l-1 69c1 84 -40 129 -117 129h-50l1 21h49c72 0 118 52 117 132l1 36c0 92 -42 145 -126 145c-83 0 -125 -48 -125 -144v-32h-21v31c0 111 49 166 147 166c97 0 147 -62 147 -166
l-1 -33c1 -75 -34 -128 -93 -144v-1c63 -14 94 -61 93 -140l1 -70c0 -111 -50 -166 -149 -166z" />
    <glyph glyph-name="four.tf" 
d="M308 0h-22v165h-256v22l250 514h28v-515h63v-21h-63v-165zM286 665l-234 -479h234v479z" />
    <glyph glyph-name="five.tf" 
d="M200 -10c-105 0 -149 67 -149 166v35h22v-36c0 -96 42 -144 127 -144s127 48 127 144v140c0 92 -37 138 -112 138c-61 0 -106 -30 -133 -90l-1 -6h-21l18 363h258v-21h-237l-16 -303c28 51 73 77 136 77c87 0 130 -52 130 -157v-140c0 -111 -50 -166 -149 -166z" />
    <glyph glyph-name="six.tf" 
d="M55 156v387c0 109 51 167 147 167c99 0 148 -55 148 -166v-12h-21v13c0 96 -42 144 -126 144s-126 -49 -126 -147v-221c21 65 74 105 141 105c91 0 136 -53 136 -159v-111c0 -108 -54 -166 -150 -166s-149 58 -149 166zM204 11c85 0 128 48 128 144v111
c0 93 -39 139 -118 139c-41 0 -75 -15 -100 -46c-25 -30 -37 -67 -37 -111v-93c0 -96 42 -144 127 -144z" />
    <glyph glyph-name="seven.tf" 
d="M123 0h-23l228 679h-280v21h302v-21z" />
    <glyph glyph-name="eight.tf" 
d="M46 156v70c0 79 32 125 96 140v1c-61 18 -92 65 -92 142v39c0 104 50 162 150 162s150 -58 150 -162v-39c0 -77 -31 -124 -92 -142v-1c64 -15 96 -61 96 -140v-70c0 -103 -50 -166 -154 -166s-154 63 -154 166zM328 506v42c0 94 -43 141 -128 141s-128 -47 -128 -141v-42
c0 -81 45 -130 128 -130s128 49 128 130zM332 157v70c0 85 -44 128 -132 128s-132 -43 -132 -128v-70c0 -97 44 -146 132 -146s132 49 132 146z" />
    <glyph glyph-name="nine.tf" 
d="M198 -10c-96 0 -148 57 -148 166v12h22v-13c0 -96 42 -144 126 -144c83 0 125 49 125 147v221c-20 -64 -72 -105 -140 -105c-91 0 -136 53 -136 159v111c0 108 53 166 150 166c96 0 148 -58 148 -166v-387c0 -111 -49 -167 -147 -167zM187 295c41 0 73 15 98 45
c25 31 38 68 38 112v93c0 96 -42 144 -126 144c-85 0 -128 -48 -128 -144v-111c0 -93 39 -139 118 -139z" />
    <glyph glyph-name="zero.dnom" horiz-adv-x="291" 
d="M145 -10c-61 0 -96 38 -96 107v250c0 69 35 107 96 107c63 0 98 -38 98 -107v-250c0 -69 -35 -107 -98 -107zM145 8c52 0 78 29 78 88v252c0 59 -26 88 -78 88c-51 0 -77 -29 -77 -88v-252c0 -59 26 -88 77 -88z" />
    <glyph glyph-name="one.dnom" horiz-adv-x="291" 
d="M180 0h-20v404c-15 -23 -42 -37 -80 -42v18c43 3 71 25 85 64h15v-444z" />
    <glyph glyph-name="two.dnom" horiz-adv-x="291" 
d="M240 0h-187v24c0 79 33 127 93 187c53 55 78 87 78 136c0 59 -25 89 -75 89c-52 0 -78 -29 -78 -88v-26h-18v25c0 61 28 107 96 107c65 0 94 -43 94 -106c0 -56 -26 -91 -83 -150c-59 -59 -88 -103 -88 -171v-9h168v-18z" />
    <glyph glyph-name="three.dnom" horiz-adv-x="291" 
d="M141 -10c-64 0 -96 36 -96 107v29h19v-30c0 -59 26 -88 77 -88c52 0 78 30 78 89v45c0 54 -24 81 -73 81h-31v18h32c44 0 72 31 72 82v24c0 59 -26 89 -77 89s-76 -29 -76 -88v-21h-18v20c0 71 31 107 94 107s97 -40 97 -107v-21c0 -49 -23 -84 -60 -93v-1
c39 -7 59 -37 59 -90v-45c0 -71 -32 -107 -97 -107z" />
    <glyph glyph-name="four.dnom" horiz-adv-x="291" 
d="M217 0h-20v100h-160v20l157 324h23v-326h39v-18h-39v-100zM197 410l-141 -292h141v292z" />
    <glyph glyph-name="five.dnom" horiz-adv-x="291" 
d="M147 -10c-67 0 -96 43 -96 106v23h19v-24c0 -58 26 -87 77 -87s77 29 77 87v91c0 57 -23 85 -68 85c-38 0 -65 -19 -80 -57l-1 -6h-19l12 236h166v-19h-148l-10 -184c18 32 46 48 85 48c55 0 82 -34 82 -102v-91c0 -65 -31 -106 -96 -106z" />
    <glyph glyph-name="six.dnom" horiz-adv-x="291" 
d="M148 -10c-60 0 -96 39 -96 107v250c0 69 35 107 96 107s96 -38 96 -107v-7h-19v8c0 59 -25 88 -76 88s-77 -30 -77 -90v-136c11 37 43 62 86 62c59 0 89 -34 89 -101v-74c0 -69 -36 -107 -99 -107zM148 8c53 0 79 29 79 88v73c0 57 -24 85 -73 85s-82 -40 -82 -95v-63
c0 -59 25 -88 76 -88z" />
    <glyph glyph-name="seven.dnom" horiz-adv-x="291" 
d="M100 0h-21l142 426h-173v18h192v-19z" />
    <glyph glyph-name="eight.dnom" horiz-adv-x="291" 
d="M145 -10c-67 0 -100 35 -100 105v45c0 51 20 81 61 92c-39 12 -58 42 -58 90v27c0 67 34 105 97 105c65 0 98 -35 98 -105v-27c0 -49 -19 -79 -57 -90c40 -11 60 -41 60 -92v-45c0 -70 -34 -105 -101 -105zM146 241c51 0 78 31 78 80v28c0 58 -26 87 -78 87
s-78 -29 -78 -87v-28c0 -49 26 -80 78 -80zM227 95v46c0 55 -27 82 -81 82s-81 -27 -81 -82v-46c0 -58 27 -87 81 -87s81 29 81 87z" />
    <glyph glyph-name="nine.dnom" horiz-adv-x="291" 
d="M143 -10c-61 0 -96 38 -96 107v7h19v-8c0 -59 26 -88 77 -88s77 30 77 90v136c-12 -37 -44 -62 -87 -62c-59 0 -88 34 -88 101v74c0 69 35 107 98 107c61 0 96 -38 96 -107v-250c0 -71 -32 -107 -96 -107zM137 190c49 0 83 40 83 95v63c0 57 -28 88 -77 88
c-53 0 -79 -29 -79 -88v-73c0 -57 24 -85 73 -85z" />
    <glyph glyph-name="zero.numr" horiz-adv-x="291" 
d="M145 246c-61 0 -96 38 -96 107v250c0 69 35 107 96 107c63 0 98 -38 98 -107v-250c0 -69 -35 -107 -98 -107zM145 264c52 0 78 29 78 88v252c0 59 -26 88 -78 88c-51 0 -77 -29 -77 -88v-252c0 -59 26 -88 77 -88z" />
    <glyph glyph-name="one.numr" horiz-adv-x="291" 
d="M180 256h-20v404c-15 -23 -42 -37 -80 -42v18c43 3 71 25 85 64h15v-444z" />
    <glyph glyph-name="two.numr" horiz-adv-x="291" 
d="M240 256h-187v24c0 79 33 127 93 187c53 55 78 87 78 136c0 59 -25 89 -75 89c-52 0 -78 -29 -78 -88v-26h-18v25c0 61 28 107 96 107c65 0 94 -43 94 -106c0 -56 -26 -91 -83 -150c-59 -59 -88 -103 -88 -171v-9h168v-18z" />
    <glyph glyph-name="three.numr" horiz-adv-x="291" 
d="M141 246c-64 0 -96 36 -96 107v29h19v-30c0 -59 26 -88 77 -88c52 0 78 30 78 89v45c0 54 -24 81 -73 81h-31v18h32c44 0 72 31 72 82v24c0 59 -26 89 -77 89s-76 -29 -76 -88v-21h-18v20c0 71 31 107 94 107s97 -40 97 -107v-21c0 -49 -23 -84 -60 -93v-1
c39 -7 59 -37 59 -90v-45c0 -71 -32 -107 -97 -107z" />
    <glyph glyph-name="four.numr" horiz-adv-x="291" 
d="M217 256h-20v100h-160v20l157 324h23v-326h39v-18h-39v-100zM197 666l-141 -292h141v292z" />
    <glyph glyph-name="five.numr" horiz-adv-x="291" 
d="M147 246c-67 0 -96 43 -96 106v23h19v-24c0 -58 26 -87 77 -87s77 29 77 87v91c0 57 -23 85 -68 85c-38 0 -65 -19 -80 -57l-1 -6h-19l12 236h166v-19h-148l-10 -184c18 32 46 48 85 48c55 0 82 -34 82 -102v-91c0 -65 -31 -106 -96 -106z" />
    <glyph glyph-name="six.numr" horiz-adv-x="291" 
d="M148 246c-60 0 -96 39 -96 107v250c0 69 35 107 96 107s96 -38 96 -107v-7h-19v8c0 59 -25 88 -76 88s-77 -30 -77 -90v-136c11 37 43 62 86 62c59 0 89 -34 89 -101v-74c0 -69 -36 -107 -99 -107zM148 264c53 0 79 29 79 88v73c0 57 -24 85 -73 85s-82 -40 -82 -95v-63
c0 -59 25 -88 76 -88z" />
    <glyph glyph-name="seven.numr" horiz-adv-x="291" 
d="M100 256h-21l142 426h-173v18h192v-19z" />
    <glyph glyph-name="eight.numr" horiz-adv-x="291" 
d="M145 246c-67 0 -100 35 -100 105v45c0 51 20 81 61 92c-39 12 -58 42 -58 90v27c0 67 34 105 97 105c65 0 98 -35 98 -105v-27c0 -49 -19 -79 -57 -90c40 -11 60 -41 60 -92v-45c0 -70 -34 -105 -101 -105zM146 497c51 0 78 31 78 80v28c0 58 -26 87 -78 87
s-78 -29 -78 -87v-28c0 -49 26 -80 78 -80zM227 351v46c0 55 -27 82 -81 82s-81 -27 -81 -82v-46c0 -58 27 -87 81 -87s81 29 81 87z" />
    <glyph glyph-name="nine.numr" horiz-adv-x="291" 
d="M143 246c-61 0 -96 38 -96 107v7h19v-8c0 -59 26 -88 77 -88s77 30 77 90v136c-12 -37 -44 -62 -87 -62c-59 0 -88 34 -88 101v74c0 69 35 107 98 107c61 0 96 -38 96 -107v-250c0 -71 -32 -107 -96 -107zM137 446c49 0 83 40 83 95v63c0 57 -28 88 -77 88
c-53 0 -79 -29 -79 -88v-73c0 -57 24 -85 73 -85z" />
    <glyph glyph-name="caroncomb.alt" horiz-adv-x="0" 
d="M-9 543h-11l16 76h-7v81h22v-80z" />
    <glyph glyph-name="caron.alt" horiz-adv-x="500" 
d="M241 543h-11l16 76h-7v81h22v-80z" />
    </font>
</defs>
</svg>
