<svg width="32" height="32" viewBox="0 0 32 32" fill="none" xmlns="http://www.w3.org/2000/svg">
<g id="Vector">
<path d="M22.7945 0C21.9884 0 21.2154 0.337109 20.6454 0.937167C20.0754 1.53722 19.7552 2.35108 19.7552 3.19969C19.7562 3.76039 19.897 4.31099 20.1637 4.79632C20.4304 5.28166 20.8136 5.68469 21.2748 5.96504V7.99922H16.7159V11.1989H22.7945C23.1975 11.1989 23.584 11.0303 23.869 10.7303C24.1539 10.4303 24.3141 10.0234 24.3141 9.59906V5.96817C24.7758 5.68755 25.1592 5.28403 25.426 4.7981C25.6927 4.31216 25.8333 3.76092 25.8337 3.19969C25.8337 2.35108 25.5135 1.53722 24.9436 0.937167C24.3736 0.337109 23.6005 0 22.7945 0Z" fill="#90ECF4"/>
<path fill-rule="evenodd" clip-rule="evenodd" d="M16.8037 14.4017V17.6014H26.334C26.6003 18.087 26.9832 18.4904 27.4442 18.7712C27.9052 19.0519 28.4281 19.2003 28.9607 19.2013C29.7668 19.2013 30.5399 18.8641 31.1098 18.2641C31.6798 17.664 32 16.8502 32 16.0016C32 15.153 31.6798 14.3391 31.1098 13.739C30.5399 13.139 29.7668 12.8019 28.9607 12.8019C28.4276 12.8023 27.904 12.9504 27.4425 13.2312C26.9809 13.512 26.5976 13.9157 26.3311 14.4017H16.8037ZM16.8037 20.8011V24.0008H21.3626V26.0318C20.9009 26.3125 20.5175 26.716 20.2507 27.2019C19.984 27.6878 19.8434 28.2391 19.8429 28.8003C19.8429 29.6489 20.1632 30.4628 20.7331 31.0628C21.3031 31.6629 22.0761 32 22.8822 32C23.6883 32 24.4613 31.6629 25.0313 31.0628C25.6013 30.4628 25.9215 29.6489 25.9215 28.8003C25.9205 28.2396 25.7797 27.689 25.513 27.2037C25.2462 26.7183 24.8631 26.3153 24.4018 26.035V22.4009C24.4018 21.9766 24.2417 21.5697 23.9567 21.2697C23.6717 20.9697 23.2852 20.8011 22.8822 20.8011H16.8037ZM7.86528 6.72345C7.86694 6.71672 7.86859 6.70998 7.87025 6.70325C7.89506 6.60229 7.92032 6.50155 7.95302 6.4025C8.0401 6.1469 8.14531 5.89456 8.27653 5.64945C8.47424 5.27875 8.71996 4.92639 9.02151 4.60893C9.77283 3.81795 10.7088 3.36655 11.6779 3.24656C11.8557 3.22455 12.0335 3.22525 12.2092 3.24344" fill="#90ECF4"/>
<path fill-rule="evenodd" clip-rule="evenodd" d="M16.7159 7.99922V4.79953L16.7189 2.48726C16.719 2.20695 16.6491 1.93154 16.5163 1.6886C16.3835 1.44567 16.1923 1.24373 15.9621 1.10302C14.8729 0.437193 13.6593 0.0793961 12.436 0.0281222C12.0283 0.011031 11.6185 0.0267232 11.2132 0.0781174C9.59214 0.283694 8.02583 1.0371 6.78492 2.34352C6.29752 2.85665 5.91957 3.42472 5.62145 4.02461L5.57693 3.99961C4.65464 5.68058 4.4178 7.57144 4.71323 9.35534C1.93828 10.9954 0 14.0189 0 17.5983C0 20.5097 1.34713 23.0186 3.29155 24.7726C4.01316 28.8486 7.32081 31.9969 11.3972 31.9969C13.1107 31.9969 14.7159 31.445 16.0422 30.5095C16.2494 30.3634 16.4192 30.1658 16.5367 29.9342C16.6542 29.7026 16.7158 29.4441 16.7159 29.1815V27.1973L16.8037 24.0008V20.8011V17.6014V14.4017L16.7159 11.1989V7.99922ZM13.6767 4.79953V3.70276L13.6051 3.67488C13.1166 3.48445 12.7115 3.29545 12.2092 3.24344C12.0335 3.22525 11.8557 3.22455 11.6779 3.24656C10.7088 3.36655 9.77283 3.81795 9.02151 4.60893C8.71996 4.92639 8.47424 5.27875 8.27653 5.64945C8.14531 5.89456 8.0401 6.1469 7.95302 6.4025C7.92032 6.50155 7.89506 6.60229 7.87025 6.70325L7.86528 6.72345L7.76734 6.76184C7.7371 6.87892 7.71465 6.99696 7.69314 7.11493L7.68713 7.15001C7.65982 7.30948 7.63247 7.46914 7.6219 7.6305C7.5786 8.29156 7.66645 8.96305 7.88012 9.59906C7.89376 9.64225 7.90564 9.68604 7.91574 9.7303C8.27815 10.7121 8.93497 11.5823 9.87761 12.1551L8.35797 14.9267C7.26899 14.265 6.42444 13.3394 5.79063 12.2894C4.14044 13.4275 3.03926 15.3566 3.03926 17.5983C3.03926 19.7214 4.02418 21.5698 5.53835 22.7415C5.70619 22.8716 5.84681 23.0367 5.95149 23.2264C6.05616 23.4162 6.12264 23.6266 6.14679 23.8445C6.45789 26.6409 8.65642 28.7972 11.3972 28.7972C12.2446 28.7972 12.969 28.4383 13.6767 28.0691V27.1973V22.6509C13.6496 22.4781 13.6496 22.3019 13.6767 22.1291V18.2982C12.7801 18.853 11.7513 19.1967 10.6434 19.1981L10.6404 15.9984C12.3316 15.9963 13.6698 14.5835 13.6678 12.8019H13.6767V9.85216C13.6496 9.67939 13.6496 9.50311 13.6767 9.33034V4.79953Z" fill="#6068DB"/>
</g>
</svg>
