<svg width="24" height="24" viewBox="0 0 24 24" fill="none" xmlns="http://www.w3.org/2000/svg">
<g id="Group">
<path id="Vector" fill-rule="evenodd" clip-rule="evenodd" d="M12 0.299805C5.4 0.299805 0 5.6998 0 12.2998C0 17.6248 3.45 22.1248 8.175 23.6998C8.775 23.7748 9 23.4748 9 23.0998C9 22.7998 9 22.0498 9 21.0748C5.625 21.8248 4.95 19.4998 4.95 19.4998C4.425 18.1498 3.6 17.7748 3.6 17.7748C2.475 17.0248 3.675 17.0248 3.675 17.0248C4.875 17.0998 5.55 18.2248 5.55 18.2248C6.6 20.0248 8.325 19.4998 9.075 19.1998C9.15 18.4498 9.525 17.9248 9.825 17.6248C7.125 17.3248 4.35 16.2748 4.35 11.6998C4.35 10.4248 4.8 9.29981 5.55 8.47481C5.4 8.17481 5.025 6.9748 5.7 5.3248C5.7 5.3248 6.675 5.02481 9 6.52481C9.975 6.22481 10.95 6.14981 12 6.14981C13.05 6.14981 14.025 6.29981 15 6.52481C17.325 4.94981 18.3 5.2498 18.3 5.2498C18.975 6.89981 18.525 8.09981 18.45 8.39981C19.2 9.22481 19.65 10.2748 19.65 11.6248C19.65 16.1998 16.875 17.2498 14.175 17.5498C14.625 17.9248 15 18.6748 15 19.7998C15 21.3748 15 22.7248 15 23.0998C15 23.3998 15.225 23.7748 15.825 23.6998C20.55 22.1248 24 17.6248 24 12.2998C24 5.6998 18.6 0.299805 12 0.299805Z" fill="black"/>
</g>
</svg>
