<svg width="32" height="32" viewBox="0 0 32 32" fill="none" xmlns="http://www.w3.org/2000/svg">
<g id="Vector">
<path d="M11.3988 16.9137C6.52262 17.4927 0 19.779 0 23.619V27.4286H10.6667V19.8095C10.6667 18.7581 10.9417 17.767 11.3988 16.9137Z" fill="#6068DB"/>
<path fill-rule="evenodd" clip-rule="evenodd" d="M21.3333 12.1905C19.6677 12.1905 18.2857 13.5725 18.2857 15.2381V16.7619H16.7619C15.0857 16.7619 13.7143 18.1333 13.7143 19.8095V22.8571C13.7143 23.6952 14.4 24.381 15.2381 24.381H21.3333V22.8571H24.381V24.381H30.4762C31.3143 24.381 32 23.6952 32 22.8571V19.8095C32 18.1333 30.6286 16.7619 28.9524 16.7619H27.4286V15.2381C27.4286 13.5725 26.0466 12.1905 24.381 12.1905H21.3333ZM21.3333 15.2381H24.381V16.7619H21.3333V15.2381ZM13.7143 27.1548V28.9524C13.7143 30.6286 15.0857 32 16.7619 32H28.9524C30.6286 32 32 30.6286 32 28.9524V27.1548C31.5276 27.3376 31.0095 27.4286 30.4762 27.4286H15.2381C14.7048 27.4286 14.1867 27.3376 13.7143 27.1548Z" fill="#90ECF4"/>
<path d="M13.7143 0C11.8095 0 10.187 0.769151 9.14583 1.94048C8.10466 3.1118 7.61905 4.61376 7.61905 6.09524C7.61905 7.57672 8.10466 9.07868 9.14583 10.25C10.187 11.4213 11.8095 12.1905 13.7143 12.1905C15.619 12.1905 17.2416 11.4213 18.2827 10.25C19.3239 9.07868 19.8095 7.57672 19.8095 6.09524C19.8095 4.61376 19.3239 3.1118 18.2827 1.94048C17.2416 0.769151 15.619 0 13.7143 0Z" fill="#6068DB"/>
</g>
</svg>
