<svg width="24" height="20" viewBox="0 0 24 20" fill="none" xmlns="http://www.w3.org/2000/svg">
<g id="Group">
<path id="Vector" d="M23.9998 2.575C23.0998 2.95 22.1998 3.25 21.1498 3.325C22.1998 2.725 22.9498 1.75 23.3248 0.625C22.3498 1.225 21.2998 1.6 20.1748 1.825C19.2748 0.85 17.9998 0.25 16.6498 0.25C13.9498 0.25 11.6998 2.425 11.6998 5.2C11.6998 5.575 11.7748 5.95 11.8498 6.325C7.7248 6.1 4.1248 4.15 1.6498 1.15C1.1998 1.9 0.974805 2.725 0.974805 3.625C0.974805 5.35 1.8748 6.85 3.1498 7.75C2.3248 7.75 1.5748 7.525 0.899805 7.15V7.225C0.899805 9.625 2.6248 11.575 4.8748 12.025C4.4248 12.1 4.0498 12.175 3.5998 12.175C3.2998 12.175 2.9998 12.175 2.6998 12.1C3.2998 14.05 5.1748 15.475 7.27481 15.55C5.6248 16.9 3.4498 17.65 1.1248 17.65C0.749805 17.65 0.299805 17.65 -0.0751953 17.575C2.1748 18.925 4.79981 19.75 7.57481 19.75C16.6498 19.75 21.5998 12.25 21.5998 5.725C21.5998 5.5 21.5998 5.275 21.5998 5.125C22.4998 4.375 23.3248 3.55 23.9998 2.575Z" fill="black"/>
</g>
</svg>
