<svg id="Layer_1" data-name="Layer 1" xmlns="http://www.w3.org/2000/svg" viewBox="0 0 130.12 100"><defs><style>.cls-1,.cls-3,.cls-5{fill:#007dcc;}.cls-1,.cls-2{stroke:#fff;stroke-width:0.54px;}.cls-1,.cls-2,.cls-3,.cls-4{stroke-miterlimit:10;}.cls-2,.cls-4,.cls-6{fill:#cc002c;}.cls-3{stroke:#007dcc;stroke-width:0.79px;}.cls-4{stroke:#cc002c;stroke-width:0.32px;}</style></defs><title>all-bg</title><g id="_Group_" data-name="&lt;Group&gt;"><polygon id="_Path_" data-name="&lt;Path&gt;" class="cls-1" points="72.81 19.55 61.35 12.93 67.08 9.62 72.81 12.93 72.81 19.55"/><polygon id="_Path_2" data-name="&lt;Path&gt;" class="cls-2" points="95.74 19.55 90 22.86 84.27 19.55 84.27 12.93 95.74 19.55"/><polygon id="_Path_3" data-name="&lt;Path&gt;" class="cls-1" points="84.27 39.4 78.54 42.71 72.81 39.4 72.81 32.78 84.27 39.4"/><polygon id="_Path_4" data-name="&lt;Path&gt;" class="cls-1" points="72.81 19.55 67.08 22.86 61.35 19.55 61.35 12.93 72.81 19.55"/><polygon id="_Path_5" data-name="&lt;Path&gt;" class="cls-1" points="67.19 3.28 61.47 6.6 61.48 13.22 67.21 16.52 67.19 3.28"/><polygon id="_Path_6" data-name="&lt;Path&gt;" class="cls-1" points="78.65 9.9 72.92 13.21 67.19 9.9 67.19 3.28 78.65 9.9"/><polygon id="_Path_7" data-name="&lt;Path&gt;" class="cls-1" points="72.81 19.55 84.27 12.93 78.54 9.62 72.81 12.93 72.81 19.55"/><polygon id="_Path_8" data-name="&lt;Path&gt;" class="cls-1" points="84.27 19.55 90 22.86 95.74 19.55 95.74 12.93 84.27 19.55"/><polygon id="_Path_9" data-name="&lt;Path&gt;" class="cls-1" points="95.74 19.55 107.2 12.93 101.47 9.62 95.74 12.93 95.74 19.55"/><polygon id="_Path_10" data-name="&lt;Path&gt;" class="cls-1" points="95.74 19.55 101.47 22.86 107.2 19.55 107.2 12.93 95.74 19.55"/><polygon id="_Path_11" data-name="&lt;Path&gt;" class="cls-1" points="72.81 19.55 78.54 22.86 84.27 19.55 84.27 12.93 72.81 19.55"/><polygon id="_Path_12" data-name="&lt;Path&gt;" class="cls-1" points="95.74 39.4 101.47 42.71 107.2 39.4 107.2 32.78 95.74 39.4"/><polygon id="_Path_13" data-name="&lt;Path&gt;" class="cls-2" points="61.35 39.4 67.08 42.71 72.81 39.4 72.81 32.78 61.35 39.4"/><polygon id="_Path_14" data-name="&lt;Path&gt;" class="cls-2" points="72.81 39.4 84.27 32.78 78.54 29.47 72.81 32.78 72.81 39.4"/><polygon id="_Path_15" data-name="&lt;Path&gt;" class="cls-2" points="95.74 39.4 90 42.71 84.27 39.4 84.27 32.78 95.74 39.4"/><polygon id="_Path_16" data-name="&lt;Path&gt;" class="cls-1" points="95.74 39.4 107.2 32.78 101.47 29.47 95.74 32.78 95.74 39.4"/><polygon id="_Path_17" data-name="&lt;Path&gt;" class="cls-1" points="67.08 29.47 78.54 22.86 72.81 19.55 67.08 22.86 67.08 29.47"/><polygon id="_Path_18" data-name="&lt;Path&gt;" class="cls-1" points="67.08 29.47 72.81 32.78 78.54 29.47 78.54 22.86 67.08 29.47"/><polygon id="_Path_19" data-name="&lt;Path&gt;" class="cls-1" points="107.2 19.55 112.93 22.86 118.66 19.55 118.66 12.93 107.2 19.55"/><polygon id="_Path_20" data-name="&lt;Path&gt;" class="cls-1" points="95.74 59.25 101.47 62.56 107.2 59.25 107.2 52.63 95.74 59.25"/><polygon id="_Path_21" data-name="&lt;Path&gt;" class="cls-1" points="78.54 49.33 84.27 52.63 90 49.33 90 42.71 78.54 49.33"/><polygon id="_Path_22" data-name="&lt;Path&gt;" class="cls-1" points="118.66 59.25 107.2 52.63 112.93 49.33 118.66 52.63 118.66 59.25"/><polygon id="_Path_23" data-name="&lt;Path&gt;" class="cls-1" points="118.66 59.25 112.93 62.56 107.2 59.25 107.2 52.63 118.66 59.25"/><polygon id="_Path_24" data-name="&lt;Path&gt;" class="cls-1" points="130.12 59.25 118.66 52.63 124.39 49.33 130.12 52.63 130.12 59.25"/><polygon id="_Path_25" data-name="&lt;Path&gt;" class="cls-1" points="130.12 59.25 124.39 62.56 118.66 59.25 118.66 52.63 130.12 59.25"/><polygon id="_Path_26" data-name="&lt;Path&gt;" class="cls-1" points="112.93 49.33 124.39 42.71 118.66 39.4 112.93 42.71 112.93 49.33"/><polygon id="_Path_27" data-name="&lt;Path&gt;" class="cls-1" points="112.93 49.33 118.66 52.63 124.39 49.33 124.39 42.71 112.93 49.33"/><polygon id="_Path_28" data-name="&lt;Path&gt;" class="cls-1" points="78.54 29.47 90 22.86 84.27 19.55 78.54 22.86 78.54 29.47"/><polygon id="_Path_29" data-name="&lt;Path&gt;" class="cls-2" points="78.54 29.47 84.27 32.78 90 29.47 90 22.86 78.54 29.47"/><polygon id="_Path_30" data-name="&lt;Path&gt;" class="cls-2" points="101.47 29.47 90 22.86 95.74 19.55 101.47 22.86 101.47 29.47"/><polygon id="_Path_31" data-name="&lt;Path&gt;" class="cls-2" points="118.66 39.4 107.2 32.78 112.93 29.47 118.66 32.78 118.66 39.4"/><polygon id="_Path_32" data-name="&lt;Path&gt;" class="cls-1" points="112.93 29.47 101.47 22.86 107.2 19.55 112.93 22.86 112.93 29.47"/><polygon id="_Path_33" data-name="&lt;Path&gt;" class="cls-1" points="95.74 39.4 84.27 32.78 90 29.47 95.74 32.78 95.74 39.4"/><polygon id="_Path_34" data-name="&lt;Path&gt;" class="cls-2" points="112.93 29.47 107.2 32.78 101.47 29.47 101.47 22.86 112.93 29.47"/><polygon id="_Path_35" data-name="&lt;Path&gt;" class="cls-1" points="78.54 49.33 90 42.71 84.27 39.4 78.54 42.71 78.54 49.33"/><polygon id="_Path_36" data-name="&lt;Path&gt;" class="cls-2" points="101.47 49.33 90 42.71 95.74 39.4 101.47 42.71 101.47 49.33"/><polygon id="_Path_37" data-name="&lt;Path&gt;" class="cls-1" points="101.47 49.33 95.74 52.63 90 49.33 90 42.71 101.47 49.33"/><polygon id="_Path_38" data-name="&lt;Path&gt;" class="cls-1" points="101.47 29.47 95.74 32.78 90 29.47 90 22.86 101.47 29.47"/><polygon id="_Path_39" data-name="&lt;Path&gt;" class="cls-1" points="118.66 39.4 112.93 42.71 107.2 39.4 107.2 32.78 118.66 39.4"/><polygon id="_Path_40" data-name="&lt;Path&gt;" class="cls-1" points="112.93 49.33 101.47 42.71 107.2 39.4 112.93 42.71 112.93 49.33"/><polygon id="_Path_41" data-name="&lt;Path&gt;" class="cls-2" points="112.93 49.33 107.2 52.63 101.47 49.33 101.47 42.71 112.93 49.33"/><polygon id="_Path_42" data-name="&lt;Path&gt;" class="cls-2" points="84.27 39.4 84.27 32.78 78.65 36.08 84.27 39.4"/></g><path class="cls-3" d="M7.24,46.7H1.82v-2H15v2H9.57V62.56H7.24Z"/><path class="cls-3" d="M19.2,46.17a1.45,1.45,0,0,1-2.89,0,1.42,1.42,0,0,1,1.46-1.46A1.39,1.39,0,0,1,19.2,46.17ZM16.6,62.56V49.76h2.33v12.8Z"/><path class="cls-3" d="M22.79,43.79h2.33V62.56H22.79Z"/><path class="cls-3" d="M30.33,56.59c.05,3.14,2.06,4.44,4.39,4.44a8.41,8.41,0,0,0,3.54-.66l.4,1.66a10.35,10.35,0,0,1-4.26.8c-3.94,0-6.29-2.59-6.29-6.45s2.27-6.91,6-6.91c4.18,0,5.29,3.68,5.29,6a8.17,8.17,0,0,1-.08,1.09Zm6.82-1.67c0-1.48-.61-3.78-3.22-3.78-2.36,0-3.39,2.17-3.57,3.78Z"/><path class="cls-4" d="M46.86,47.78V62.56H45V47.78Z"/><path class="cls-4" d="M50.34,55.26c0-1.25,0-2.32-.08-3.31h1.68L52,54h.09A3.18,3.18,0,0,1,55,51.71a1.77,1.77,0,0,1,.54.07V53.6a2.49,2.49,0,0,0-.65-.07A2.71,2.71,0,0,0,52.34,56a5.82,5.82,0,0,0-.09.9v5.65H50.34Z"/><path class="cls-4" d="M63.28,62.56l-.15-1.33h-.07a4,4,0,0,1-3.24,1.57,3,3,0,0,1-3.25-3c0-2.57,2.28-4,6.38-3.95v-.22a2.19,2.19,0,0,0-2.41-2.46,5.28,5.28,0,0,0-2.76.79l-.44-1.27a6.6,6.6,0,0,1,3.49-.94c3.24,0,4,2.21,4,4.34v4A14,14,0,0,0,65,62.56ZM63,57.15c-2.11,0-4.5.33-4.5,2.39a1.7,1.7,0,0,0,1.82,1.84,2.65,2.65,0,0,0,2.57-1.78A2.12,2.12,0,0,0,63,59Z"/><path class="cls-4" d="M68,54.82c0-1.09,0-2-.08-2.87H69.6l.11,1.75h0a3.92,3.92,0,0,1,3.51-2c1.47,0,3.75.88,3.75,4.52v6.33H75.08V56.45c0-1.71-.64-3.14-2.46-3.14a2.75,2.75,0,0,0-2.59,2,3,3,0,0,0-.13.9v6.38H68Z"/><path class="cls-5" d="M40.56,93.79a11.79,11.79,0,0,1-5.89-1.3,7.82,7.82,0,0,1-3.36-3.91,9.59,9.59,0,0,1-.69-3.76,14.49,14.49,0,0,1,2.5-8.2l2.64,1.92a12.77,12.77,0,0,0-1.82,4.36,8,8,0,0,0-.25,2A4.6,4.6,0,0,0,34.78,88a6.52,6.52,0,0,0,2.78,1.85,7.9,7.9,0,0,0,2.56.41,8.54,8.54,0,0,0,3.65-.75,6.39,6.39,0,0,0,2.51-2,4.6,4.6,0,0,0,.93-2.74,5.53,5.53,0,0,0,0-.71,5.66,5.66,0,0,0-.12-.76c0-.26-.1-.48-.14-.65s-.12-.4-.22-.7-.17-.5-.21-.6-.12-.33-.24-.66S46,80.14,46,80.1a21.2,21.2,0,0,0-1-2.26l-.19-.35L48,75.74a11.84,11.84,0,0,1,.63,1.46,29,29,0,0,1,1.48,5,12.13,12.13,0,0,1,.24,2.33,8.74,8.74,0,0,1-4.45,7.94A10.51,10.51,0,0,1,40.56,93.79Zm0-15.72L38,75.49l2.56-2.56,2.58,2.58Z"/><path class="cls-5" d="M53.6,84.5c.19-3.67.29-6.5.29-8.51q0-4.47-.32-8c0-.43-.2-1.66-.5-3.69l3.45-1.17a6,6,0,0,1,.15.74,5.83,5.83,0,0,1,.09.7c0,.18.05.46.08.84s.07.64.09.81q.41,4.15.41,9.85c0,2.9-.07,5.55-.23,8Z"/><path class="cls-5" d="M69.38,82.82a1.63,1.63,0,0,1-.49,1.23,1.71,1.71,0,0,1-1.25.48h-.42A3.43,3.43,0,0,1,65.33,84a10.72,10.72,0,0,1-3.2,6.15,21.82,21.82,0,0,1-6.22,4.45l-1.51-3.1a22.32,22.32,0,0,0,5.29-3.59,8.59,8.59,0,0,0,2.15-3,4.54,4.54,0,0,0,.32-1.66V83a1,1,0,0,0,0-.21,12.19,12.19,0,0,0-.39-1.87c-.19-.62-.43-1.32-.73-2.09s-.5-1.33-.61-1.65l3.22-1.35c.35,1,.66,1.89.94,2.51a8.37,8.37,0,0,0,1,1.71,3.12,3.12,0,0,0,.88.8,2.34,2.34,0,0,0,1.16.27h.07a1.71,1.71,0,0,1,1.73,1.73Z"/><path class="cls-6" d="M73.86,78.1a5.88,5.88,0,0,0-.07-.92,7,7,0,0,0-.15-.75c0-.17-.13-.45-.25-.82s-.19-.62-.23-.75l3.29-.92A16,16,0,0,1,77,77.13c0,.1,0,.27,0,.52s0,.43,0,.55,0,.29,0,.52.06.41.08.54.07.29.12.48a2.7,2.7,0,0,0,.17.45,4.18,4.18,0,0,0,.23.36.94.94,0,0,0,.31.29,1.76,1.76,0,0,0,.39.18,1.63,1.63,0,0,0,.5.07,1.66,1.66,0,0,1,1.73,1.72A1.67,1.67,0,0,1,80.2,84a1.72,1.72,0,0,1-1.23.49A4.77,4.77,0,0,1,75.23,83q-2.07,1.55-6.78,1.55h-1a1.66,1.66,0,0,1-1.71-1.72,1.64,1.64,0,0,1,1.71-1.72h1c.51,0,1,0,1.36,0s.82-.08,1.26-.15a4.61,4.61,0,0,0,1.13-.31,4,4,0,0,0,.86-.53,2,2,0,0,0,.6-.82A3.09,3.09,0,0,0,73.86,78.1ZM69.77,91.49,67.46,89.2l2.28-2.3,2.31,2.31Zm5.07,0-2.31-2.31,2.28-2.28,2.31,2.29Z"/><path class="cls-6" d="M94.77,84.69H94.5A4,4,0,0,1,91,82.57a5.22,5.22,0,0,1-1.65,1.57,4.87,4.87,0,0,1-2.42.55,3.35,3.35,0,0,1-2-.57,6.3,6.3,0,0,1-1.5-1.54A4.45,4.45,0,0,1,81.81,84a5.7,5.7,0,0,1-2.53.5h-.22a1.69,1.69,0,0,1-1.63-1.72,1.71,1.71,0,0,1,1.63-1.73,3,3,0,0,0,2-.66,5.63,5.63,0,0,0,1.32-1.74,23,23,0,0,0,1.34-4.11l3.36.74c0,.13-.14.39-.26.79l-.3.94c-.07.23-.15.51-.23.85s-.17.65-.22.94a6.36,6.36,0,0,0-.09.91c0,1,.37,1.46,1.11,1.46A2.38,2.38,0,0,0,89,80a13.6,13.6,0,0,0,1.74-5.45l3.14.61c0,.3-.12.9-.29,1.78a12.76,12.76,0,0,0-.25,2.15c0,1.41.59,2.15,1.78,2.2a2.35,2.35,0,0,0,1.57-.5,1.83,1.83,0,0,0,.59-1.46,7.67,7.67,0,0,0-.23-1.76A11,11,0,0,0,96.64,76c-.14-.39-.34-.87-.58-1.45-.16-.37-.34-.76-.54-1.18l2.89-1.61A17.39,17.39,0,0,1,100,76a13.07,13.07,0,0,1,.47,3.21,5.55,5.55,0,0,1-.88,3.24,4.8,4.8,0,0,1-2.46,1.82A7.17,7.17,0,0,1,94.77,84.69ZM89.11,70.86,86.8,68.57l2.28-2.3,2.31,2.31Zm2.52-8.25,2.11,2.11-2.1,2.09-2.1-2.11Zm2.55,8.28-2.31-2.31,2.28-2.28,2.31,2.3Z"/><path class="cls-6" d="M111.6,82.81a1.67,1.67,0,0,1-.5,1.23,1.71,1.71,0,0,1-1.23.49A6.29,6.29,0,0,1,105.28,83,5.39,5.39,0,0,1,104,79c0-.74.05-2,.05-3.82V73.39c0-2.86-.1-5.39-.32-7.6a13.77,13.77,0,0,0-.2-1.45l3.37-1a55.93,55.93,0,0,1,.58,9.22c0,.28,0,.77,0,1.46s0,1.17,0,1.45V76c0,.21,0,.36,0,.46v.87c0,.1,0,.24,0,.42s0,.31,0,.4V79.2a2,2,0,0,0,.3,1.35,2.9,2.9,0,0,0,2,.53h.12a1.72,1.72,0,0,1,1.73,1.73Z"/><path class="cls-6" d="M109.69,84.53a2,2,0,0,1-1.33-.47,1.76,1.76,0,0,1,0-2.5,1.91,1.91,0,0,1,1.33-.47h2.87c.32,0,.72,0,1.22-.08a6.74,6.74,0,0,0,1.2-.2,3.42,3.42,0,0,0,.91-.39,1.88,1.88,0,0,0,.7-.63h0a2.94,2.94,0,0,0,.47-1.64,6,6,0,0,0-.17-1.22,5.7,5.7,0,0,0-.67-1.36A24.27,24.27,0,0,0,111,69.9l.36-3.21,10.93-4.86,1.36,3.2-9.1,3.79a18,18,0,0,1,5.13,6.31,8.15,8.15,0,0,1,.75,3.24,6.77,6.77,0,0,1-.85,3.22,5.81,5.81,0,0,1-4.32,2.86v0a6.31,6.31,0,0,1-1.23.11Z"/></svg>