<?xml version="1.0" encoding="UTF-8"?> <!-- Creator: CorelDRAW 2017 --> <svg xmlns="http://www.w3.org/2000/svg" xmlns:xlink="http://www.w3.org/1999/xlink" xml:space="preserve" width="323px" height="50px" style="shape-rendering:geometricPrecision; text-rendering:geometricPrecision; image-rendering:optimizeQuality; fill-rule:evenodd; clip-rule:evenodd" viewBox="0 0 254173 39389"> <defs> <style type="text/css"> <![CDATA[ .fil2 {fill:#00AA55} .fil3 {fill:#aaaaaa} .fil0 {fill:#00AA55;fill-rule:nonzero} .fil1 {fill:#213D65;fill-rule:nonzero} ]]> </style> </defs> <g id="Layer_x0020_1"> <metadata id="CorelCorpID_0Corel-Layer"></metadata> <path class="fil0" d="M118696 15808l-3161 0c-350,0 -677,-66 -987,-202 -308,-133 -581,-317 -812,-551 -234,-232 -419,-503 -552,-813 -135,-308 -202,-637 -202,-987l0 -2873 1344 0 0 2873c0,340 119,628 357,859 237,234 522,350 852,350l3161 0c249,0 455,-84 618,-249 160,-165 241,-369 241,-610 0,-188 -54,-357 -160,-510 -108,-153 -239,-251 -391,-295l-2994 -766 0 -1263c0,-313 54,-611 160,-891 109,-283 256,-532 448,-746 192,-214 426,-387 697,-517 273,-131 571,-194 894,-194l2149 39 0 1290 -2149 0c-126,0 -244,24 -357,74 -111,49 -207,111 -288,187 -82,76 -146,162 -195,256 -49,93 -74,185 -74,276l0 549c340,64 665,130 975,201 310,72 662,158 1056,256 476,126 857,377 1143,751 288,377 430,810 430,1303 0,315 -56,603 -167,866 -113,266 -268,498 -470,699 -202,202 -436,358 -699,471 -266,110 -554,167 -867,167z"></path> <path id="1" class="fil0" d="M121307 16426l-337 -1155 229 -81c278,-116 549,-231 812,-349 264,-116 495,-259 692,-429 394,-332 591,-788 591,-1371l0 -4510 1344 0 0 4525c-27,509 -118,943 -276,1295 -157,354 -366,657 -632,905 -264,252 -579,464 -946,633 -367,170 -775,323 -1223,456l-254 81zm2017 -10500l1240 0 0 1256 -1240 0 0 -1256z"></path> <path id="2" class="fil0" d="M128734 13149l-658 0c-305,0 -590,-59 -859,-175 -268,-115 -500,-273 -696,-470 -198,-197 -355,-428 -471,-697 -115,-268 -175,-553 -175,-859l0 -5716 1315 0 0 5728c0,232 86,431 256,596 170,165 379,249 630,249l658 0c206,0 371,59 497,175 126,115 187,278 187,485 0,214 -59,381 -180,502 -120,121 -288,182 -504,182z"></path> <path id="3" class="fil0" d="M130202 11805c197,0 360,59 491,175 130,115 194,278 194,485 0,214 -62,381 -182,502 -121,121 -288,182 -503,182l-1393 0c-214,0 -381,-61 -502,-182 -121,-121 -182,-288 -182,-502 0,-207 64,-370 194,-485 131,-116 293,-175 490,-175l1393 0z"></path> <path id="4" class="fil0" d="M139362 13149l-1905 0c-598,0 -1110,-209 -1529,-630 -404,421 -918,630 -1544,630 -285,0 -561,-56 -824,-167 -266,-113 -500,-271 -704,-478 -431,431 -951,645 -1559,645l-1034 0c-207,0 -372,-61 -497,-182 -126,-121 -187,-288 -187,-502 0,-217 61,-377 187,-485 116,-116 283,-175 497,-175l1034 0c259,0 473,-84 638,-249 165,-165 248,-369 248,-610l0 -1881 1345 0 0 2041c0,162 34,288 101,376 66,89 147,160 241,210 94,49 192,79 295,93 104,13 185,20 249,20 241,0 443,-84 603,-249 160,-165 251,-374 269,-625l0 -1866 1302 0 12 1974c0,234 67,419 202,557 133,140 315,209 547,209l669 0 0 -3063 1344 0 0 4407z"></path> <path id="5" class="fil0" d="M143889 13149c-153,0 -305,-12 -463,-34 -155,-22 -320,-69 -490,-141l0 175c-27,502 -118,928 -276,1283 -157,354 -369,657 -637,913 -271,254 -586,468 -948,638 -362,170 -768,322 -1216,455l-269 82 -322 -1155 217 -94c275,-108 546,-221 812,-342 263,-121 495,-263 692,-423 401,-340 603,-798 603,-1372l0 -4606 1344 0 0 2445c0,160 35,295 101,401 66,108 158,195 269,256 110,64 233,108 369,136 135,27 268,39 404,39 214,0 379,59 494,175 126,108 190,268 190,485 0,295 -84,482 -249,564 -165,81 -374,120 -625,120z"></path> <path id="6" class="fil0" d="M144732 11805c197,0 360,59 490,175 131,115 195,278 195,485 0,214 -62,381 -182,502 -121,121 -288,182 -503,182l-1393 0c-214,0 -382,-61 -502,-182 -121,-121 -182,-288 -182,-502 0,-207 64,-370 194,-485 131,-116 293,-175 490,-175l1393 0z"></path> <path id="7" class="fil0" d="M150170 15778l-2447 0c-296,0 -579,-58 -847,-174 -271,-116 -505,-276 -707,-475 -202,-202 -361,-436 -477,-704 -116,-269 -175,-552 -175,-847l0 -429 -721 0c-214,0 -382,-61 -503,-182 -120,-121 -182,-288 -182,-502 0,-217 62,-377 187,-485 119,-116 284,-175 498,-175l618 0 0 -1063c0,-330 64,-643 194,-934 131,-293 305,-544 524,-760 220,-215 473,-387 764,-512 290,-126 598,-187 920,-187 330,0 643,61 938,187 296,125 557,297 781,512 224,216 399,467 529,760 130,291 194,604 194,934 0,440 -108,844 -322,1211 246,-99 480,-148 704,-148l778 0c224,0 394,59 512,175 116,108 172,268 172,485 0,214 -59,381 -179,502 -121,121 -288,182 -505,182l-778 0c-207,0 -382,84 -527,254 -145,170 -219,349 -219,536 0,55 0,114 0,180 0,67 10,133 27,195 10,44 25,83 42,120l207 0 0 1344zm-3309 -2629l0 429c0,115 25,226 74,327 49,103 116,194 202,276 84,79 180,143 288,187 106,44 216,66 335,66l896 0c-27,-125 -45,-236 -54,-335 -8,-98 -13,-169 -13,-214 0,-339 89,-662 269,-965 -330,153 -680,229 -1044,229l-953 0zm-103 -1300l1058 0c293,0 549,-108 763,-322 215,-217 321,-473 321,-771 0,-295 -106,-549 -321,-761 -214,-211 -470,-317 -763,-317 -285,0 -534,106 -743,317 -209,212 -315,466 -315,761l0 1093z"></path> <path id="8" class="fil0" d="M160575 13149l-1905 0c-598,0 -1110,-209 -1529,-630 -404,421 -918,630 -1543,630 -286,0 -562,-56 -825,-167 -266,-113 -500,-271 -704,-478 -431,431 -950,645 -1559,645l-1034 0c-207,0 -372,-61 -497,-182 -125,-121 -187,-288 -187,-502 0,-217 62,-377 187,-485 116,-116 283,-175 497,-175l1034 0c259,0 473,-84 638,-249 165,-165 249,-369 249,-610l0 -1881 1344 0 0 2041c0,162 34,288 101,376 66,89 147,160 241,210 94,49 192,79 295,93 104,13 185,20 249,20 241,0 443,-84 603,-249 160,-165 251,-374 269,-625l0 -1866 1302 0 12 1974c0,234 67,419 202,557 133,140 315,209 547,209l669 0 0 -3063 1344 0 0 4407zm-2791 -7297l-1226 0 0 -1255 1226 0 0 1255zm1063 2068l-1255 0 0 -1270 1255 0 0 1270zm-2097 0l-1256 0 0 -1270 1256 0 0 1270z"></path> <path id="9" class="fil0" d="M163764 16320l-350 -1155 244 -78c52,-20 103,-37 152,-54 50,-20 102,-37 156,-55 261,-81 522,-177 783,-288 263,-113 482,-236 662,-369 182,-145 334,-335 460,-571 126,-239 180,-478 163,-719l-1064 0c-330,0 -643,-64 -933,-189 -293,-126 -544,-299 -761,-518 -214,-218 -384,-475 -509,-765 -126,-293 -190,-603 -190,-936 0,-322 62,-632 187,-928 126,-298 298,-554 512,-775 215,-219 468,-394 761,-525 290,-130 603,-194 933,-194 332,0 645,64 936,194 290,131 546,306 765,525 219,221 394,475 520,768 125,290 187,603 187,935l0 2152c0,502 -84,960 -249,1376 -167,419 -438,795 -817,1135 -136,118 -286,219 -451,303 -167,86 -339,165 -519,236 -180,72 -357,133 -534,187 -175,55 -338,104 -493,148 -52,17 -103,35 -148,47 -44,15 -88,30 -135,47l-268 66zm1206 -6790c-143,0 -283,30 -418,89 -133,57 -249,138 -343,241 -96,104 -172,222 -229,350 -59,130 -88,268 -88,411 0,298 106,549 317,756 212,207 466,310 761,310l1093 0 0 -1066c0,-143 -29,-281 -88,-411 -57,-128 -136,-246 -234,-350 -101,-103 -214,-184 -345,-241 -130,-59 -273,-89 -426,-89z"></path> <path id="10" class="fil0" d="M171869 13371c-320,0 -628,-62 -919,-182 -290,-121 -546,-288 -765,-503 -219,-214 -394,-465 -525,-753 -130,-286 -194,-591 -194,-913 -10,-320 49,-635 175,-938 125,-306 305,-574 536,-808l754 -765 -392 -389 941 -914 2083 2083c231,231 406,495 522,785 118,291 179,594 189,906 0,333 -64,643 -189,933 -124,291 -296,545 -517,759 -220,216 -473,386 -764,512 -293,125 -603,187 -935,187zm-791 -3156c-196,214 -292,467 -283,758 10,293 116,539 323,746 214,214 475,322 778,322 295,0 541,-98 738,-295 109,-108 187,-227 237,-357 49,-128 74,-266 74,-409 0,-143 -25,-280 -74,-408 -50,-131 -128,-249 -237,-357l-765 -766 -227 217c-44,44 -93,91 -143,140 -49,49 -98,101 -152,155 -44,44 -91,89 -136,133 -44,44 -88,86 -133,121z"></path> <polygon id="11" class="fil0" points="176777,13149 175433,13149 175433,5232 176777,5232 "></polygon> <path id="12" class="fil0" d="M176872 16429l-337 -1155 229 -81c278,-119 549,-234 812,-350 264,-116 495,-261 692,-431 394,-332 591,-788 591,-1371l0 -4515 1344 0 0 4530c-27,509 -118,943 -276,1297 -157,352 -367,655 -633,906 -263,251 -578,461 -945,633 -367,170 -775,322 -1224,455l-253 82z"></path> <path id="13" class="fil0" d="M189297 13149l-4160 0c-387,0 -749,-71 -1089,-216 -339,-143 -635,-340 -886,-591 -251,-251 -448,-549 -591,-889 -142,-342 -214,-704 -214,-1091l0 -1629 1315 0 0 1629c0,200 37,387 113,567 76,179 180,332 310,457 131,126 283,227 463,303 180,77 372,116 579,116l4160 0c207,0 399,-39 579,-116 180,-76 332,-179 463,-307 130,-131 234,-284 310,-461 76,-175 113,-364 113,-571l0 -1617 1315 0 0 1629c0,387 -72,749 -215,1091 -142,340 -339,638 -590,889 -251,251 -547,448 -887,591 -339,145 -701,216 -1088,216zm-263 -4416l-1256 0 0 -1271 1256 0 0 1271zm-2083 0l-1256 0 0 -1271 1256 0 0 1271z"></path> <path id="14" class="fil0" d="M192012 16429l-337 -1155 229 -81c278,-119 549,-234 812,-350 264,-116 495,-261 692,-431 394,-332 591,-788 591,-1371l0 -4515 1344 0 0 4530c-27,509 -118,943 -276,1297 -157,352 -366,655 -633,906 -263,251 -578,461 -945,633 -367,170 -775,322 -1223,455l-254 82z"></path> <polygon id="15" class="fil0" points="198153,13149 196809,13149 196809,5232 198153,5232 "></polygon> <path id="16" class="fil0" d="M198101 16426l-337 -1155 228 -81c278,-116 549,-231 813,-349 263,-116 495,-259 692,-429 394,-332 590,-788 590,-1371l0 -4510 1345 0 0 4525c-27,509 -119,943 -276,1295 -158,354 -367,657 -633,905 -263,252 -578,464 -945,633 -367,170 -776,323 -1224,456l-253 81zm2016 -10500l1241 0 0 1256 -1241 0 0 -1256z"></path> <path id="17" class="fil0" d="M203981 16320l-349 -1155 244 -78c51,-20 103,-37 152,-54 49,-20 101,-37 155,-55 261,-81 522,-177 783,-288 263,-113 483,-236 662,-369 183,-145 335,-335 461,-571 125,-239 179,-478 162,-719l-1063 0c-330,0 -643,-64 -933,-189 -293,-126 -544,-299 -761,-518 -214,-218 -384,-475 -510,-765 -125,-293 -189,-603 -189,-936 0,-322 61,-632 187,-928 125,-298 298,-554 512,-775 214,-219 468,-394 761,-525 290,-130 603,-194 933,-194 332,0 645,64 935,194 291,131 547,306 766,525 219,221 394,475 519,768 126,290 187,603 187,935l0 2152c0,502 -83,960 -248,1376 -168,419 -439,795 -818,1135 -135,118 -285,219 -450,303 -168,86 -340,165 -520,236 -179,72 -357,133 -534,187 -175,55 -337,104 -492,148 -52,17 -104,35 -148,47 -44,15 -88,30 -135,47l-269 66zm1207 -6790c-143,0 -283,30 -419,89 -133,57 -249,138 -342,241 -96,104 -172,222 -229,350 -59,130 -89,268 -89,411 0,298 106,549 318,756 212,207 465,310 761,310l1093 0 0 -1066c0,-143 -30,-281 -89,-411 -56,-128 -135,-246 -234,-350 -101,-103 -214,-184 -344,-241 -131,-59 -274,-89 -426,-89z"></path> <path class="fil1" d="M3358 24759c101,156 237,358 408,606 450,678 994,1498 1634,2456 36,53 73,108 111,162 51,70 98,141 145,209 137,188 265,350 384,489 341,405 604,605 785,605l408 0 0 1904 -553 0c-565,0 -1107,-231 -1623,-694 -167,179 -357,327 -570,444 -395,224 -841,337 -1338,337 -548,0 -1227,-92 -2037,-273 -256,-60 -513,-124 -769,-192 -85,-24 -164,-47 -239,-70 -25,-9 -49,-13 -68,-17l-23 -7 -13 -6 565 -1820c133,38 286,83 465,132 229,60 453,111 670,158 598,128 1080,192 1449,192 290,0 482,-88 576,-262 30,-54 47,-111 47,-169 0,-100 -40,-211 -124,-331 -341,-505 -657,-975 -947,-1408 -222,-331 -429,-638 -623,-926l-455 -680 1597 -1042 138 203z"></path> <path id="1" class="fil1" d="M11831 28232c32,188 47,365 47,536 0,529 -152,1001 -455,1421 -484,668 -1273,1001 -2368,1001l-2274 0 0 -1910 2234 0c350,0 595,-45 738,-138 149,-90 222,-231 222,-425 0,-58 -9,-122 -24,-192 -38,-199 -77,-399 -115,-606 -17,-77 -32,-160 -47,-250l-24 -111 -17 -111c-59,-318 -102,-544 -134,-680l1822 -553c115,546 248,1221 395,2018zm-1359 6292l-1142 -1152 1131 -1165 1163 1165 -1152 1152zm-2456 5l-1139 -1152 1122 -1163 1163 1163 -1146 1152z"></path> <path id="2" class="fil1" d="M15806 24759c101,156 237,358 408,606 450,678 994,1498 1634,2456 36,53 73,108 111,162 51,70 98,141 145,209 137,188 265,350 384,489 341,405 604,605 785,605l408 0 0 1904 -553 0c-565,0 -1107,-231 -1623,-694 -167,179 -357,327 -570,444 -395,224 -841,337 -1338,337 -548,0 -1227,-92 -2037,-273 -256,-60 -513,-124 -769,-192 -85,-24 -164,-47 -239,-70 -25,-9 -49,-13 -68,-17l-23 -7 -13 -6 565 -1820c133,38 286,83 465,132 229,60 453,111 670,158 598,128 1080,192 1449,192 290,0 482,-88 576,-262 30,-54 47,-111 47,-169 0,-100 -40,-211 -124,-331 -341,-505 -657,-975 -947,-1408 -222,-331 -429,-638 -623,-926l-454 -680 1596 -1042 138 203z"></path> <path id="3" class="fil1" d="M22568 25766c318,47 1109,246 2375,593 441,122 909,252 1401,391 389,113 687,200 897,262l296 1681c-1500,1101 -2629,1782 -3386,2042 -892,303 -2530,455 -4916,455l0 -1910c1538,0 2652,-53 3339,-162 830,-132 1571,-406 2224,-821l-425 -116 -408 -117c-335,-96 -584,-167 -751,-209 -512,-139 -834,-209 -966,-209 -105,0 -203,60 -297,181 -96,115 -170,275 -220,476l-1845 -482c179,-692 510,-1225 994,-1600 412,-323 854,-485 1327,-485 118,0 237,11 361,30zm-499 7414l1209 -1222 1234 1235 -1223 1221 -1220 -1234z"></path> <path id="4" class="fil1" d="M37908 25790l-485 1845c-286,-75 -559,-119 -819,-134 -28,-5 -66,-7 -117,-7 -493,0 -907,154 -1244,461 -342,314 -512,704 -512,1169 830,233 1453,412 1867,540 298,94 516,184 653,269 232,143 398,322 499,536 38,81 66,166 81,256 17,66 23,134 23,209 5,70 7,138 7,209 0,2118 -1148,3177 -3446,3177l-1733 0c-966,0 -1781,-306 -2445,-913 -749,-687 -1122,-1626 -1122,-2817 0,-1082 305,-2242 913,-3480l1711 839c-478,981 -717,1781 -717,2402 0,260 15,482 43,664 39,264 107,486 203,670 260,484 732,727 1414,727l1733 0c307,0 570,-25 787,-77 282,-66 472,-175 570,-326 94,-143 147,-337 162,-580 -47,-18 -981,-265 -2804,-745 -206,-388 -309,-896 -309,-1525 0,-831 277,-1586 832,-2264 707,-869 1705,-1304 2998,-1304 450,0 868,66 1257,199z"></path> <path id="5" class="fil1" d="M42115 31190l-524 0c-429,0 -815,-77 -1157,-227 -260,-113 -488,-266 -680,-460 -195,-194 -348,-421 -461,-681 -152,-341 -226,-728 -226,-1159l0 -5865 1903 0 0 5865c0,237 43,401 132,489 85,86 250,128 489,128l524 0 0 1910z"></path> <path id="6" class="fil1" d="M45391 29246c597,-205 896,-518 896,-937 0,-311 -111,-555 -337,-734 -175,-138 -361,-209 -559,-209 -87,0 -186,15 -290,47 -120,34 -228,85 -327,152 -256,177 -384,426 -384,744 0,209 105,410 310,600 200,181 433,294 691,337zm5127 -2298c531,721 817,1464 856,2228 4,62 6,125 6,192 0,691 -218,1288 -653,1792 -514,602 -1289,902 -2321,902 -566,0 -1263,-153 -2089,-458 -265,-98 -538,-211 -819,-340 -47,-23 -98,-45 -152,-68 -36,-17 -77,-34 -124,-53 -81,-39 -130,-62 -145,-71 -631,79 -1374,118 -2227,118l-1152 0 0 -1910 1069 0c-167,-414 -250,-738 -250,-971 0,-702 220,-1316 657,-1845 531,-632 1272,-948 2217,-948 828,0 1506,301 2038,903 484,546 727,1176 727,1890 0,419 -109,830 -326,1234 -113,202 -222,360 -331,478 309,127 674,192 1093,192 226,0 415,-58 571,-169 154,-109 261,-258 314,-448 32,-102 47,-207 47,-316 0,-343 -154,-721 -461,-1129 -945,-1267 -1585,-2131 -1920,-2588l1485 -1192c659,892 1288,1749 1890,2577z"></path> <path id="7" class="fil1" d="M55769 27164l0 1587c0,166 86,301 256,401 135,86 273,128 412,128l269 0 0 1910 -269 0c-224,0 -463,-37 -715,-111 -113,858 -401,1549 -868,2072 -679,772 -1671,1158 -2979,1158l-576 0 0 -1910 576 0c715,0 1223,-160 1526,-482 305,-322 458,-862 458,-1617l0 -3136 1910 0z"></path> <path id="8" class="fil1" d="M59859 31219c39,-164 88,-319 145,-471 22,-56 41,-104 60,-152l24 -46c2,-13 6,-19 10,-24 -499,256 -1024,406 -1570,448 53,310 233,625 536,943 258,276 514,465 768,570 -47,-162 -71,-339 -71,-529 0,-226 32,-472 98,-739zm-1425 -2172c698,-96 1182,-279 1449,-546 94,-94 160,-192 198,-296 11,-39 20,-79 24,-118l6 -46 0 -35c0,-143 -47,-264 -141,-367 -108,-111 -262,-168 -458,-168 -312,0 -572,213 -781,640 -73,152 -139,326 -199,525 -21,72 -42,151 -57,232 -15,58 -28,118 -41,179zm2765 -2880c514,423 773,1037 773,1839 0,489 -126,933 -378,1334 167,-41 320,-60 459,-60l1088 0 0 1910 -960 0c-130,0 -250,53 -354,162 -96,104 -165,243 -203,414 -24,94 -36,185 -36,279 0,284 113,544 337,785l-604 1554c-226,32 -431,47 -617,47 -1199,0 -2212,-442 -3038,-1327 -303,-327 -557,-688 -762,-1082 -170,-322 -279,-606 -326,-849 -395,10 -755,17 -1082,17l0 -1910 472 0c185,-2 358,-8 516,-17 90,-873 303,-1600 640,-2183 278,-471 619,-832 1024,-1081 412,-252 866,-378 1364,-378 682,0 1243,181 1687,546z"></path> <path id="9" class="fil1" d="M67530 29159c147,-109 222,-301 222,-577l0 -1414 1907 0 0 1414c0,242 45,412 135,512 104,124 296,186 576,186 441,0 663,-151 663,-459 0,-66 -10,-140 -29,-222 -222,-911 -365,-1521 -431,-1832l1852 -442c110,465 256,1076 435,1833 38,166 57,341 57,523 0,149 -13,300 -40,461 -66,360 -196,688 -388,983 -464,711 -1136,1065 -2021,1065 -399,0 -775,-60 -1122,-182 -237,-87 -453,-204 -647,-347 -461,352 -990,529 -1587,529 -630,0 -1174,-177 -1637,-529 -313,352 -870,529 -1670,529l-1116 0 0 -1910 1116 0c279,0 471,-62 576,-186 89,-100 134,-270 134,-512l0 -1414 1910 0 0 1414c0,276 66,468 196,577 94,80 239,121 437,121 205,0 363,-41 472,-121zm1075 -4562l-1152 1165 -1152 -1152 1152 -1165 1152 1152zm2527 -17l-1140 1152 -1182 -1139 1163 -1166 1159 1153zm-1396 -1500l-1013 1011 -1001 -1000 1011 -1012 1003 1001z"></path> <path id="10" class="fil1" d="M83124 30793c0,1024 -252,1831 -756,2415 -317,365 -731,642 -1239,832 -487,179 -1059,269 -1718,269l-879 0c-666,0 -1267,-124 -1803,-367 -610,-280 -1084,-685 -1425,-1216 -369,-589 -553,-1274 -553,-2055 0,-96 2,-194 4,-290 48,-905 325,-1907 833,-3008l1734 795c-407,877 -627,1648 -663,2311 -5,66 -7,132 -7,199 0,414 88,755 263,1017 170,271 435,465 791,583 137,47 284,79 442,98 126,17 254,23 384,23l879 0c725,0 1218,-134 1479,-401 221,-228 330,-629 330,-1205l0 -3625 1904 0 0 3625zm-5119 -4086l1210 -1221 1233 1234 -1227 1222 -1216 -1235z"></path> <polygon id="11" class="fil1" points="86384,31190 84477,31190 84477,22798 86384,22798 "></polygon> <path id="12" class="fil1" d="M90634 27164l0 1587c0,166 86,301 256,401 135,86 274,128 412,128l269 0 0 1910 -269 0c-224,0 -463,-37 -715,-111 -113,858 -401,1549 -868,2072 -679,772 -1671,1158 -2978,1158l-576 0 0 -1910 576 0c714,0 1222,-160 1525,-482 305,-322 459,-862 459,-1617l0 -3136 1909 0z"></path> <path id="13" class="fil1" d="M97680 31190c-457,0 -860,-88 -1210,-263 -190,226 -416,399 -680,519 -214,94 -431,147 -651,162 -51,4 -103,6 -152,6 -469,0 -971,-113 -1502,-337 -194,-81 -405,-185 -633,-309l-135 -75 -64 -36 -57 -34c-99,-54 -165,-92 -205,-111 -418,315 -1014,471 -1786,471l-186 0 0 -1903 186 0c403,0 681,-81 832,-243 113,-122 243,-412 390,-873 11,-36 24,-68 34,-100 13,-43 28,-85 47,-128 39,-109 84,-216 135,-320 132,-280 286,-529 465,-749 512,-634 1167,-950 1967,-950 884,0 1562,368 2036,1099 183,284 322,606 420,967 81,307 126,604 132,890 0,121 39,213 111,279 98,90 267,134 506,134l0 1904zm-2460 -1677c49,-139 75,-291 75,-453 0,-42 -3,-85 -5,-128 -21,-294 -106,-550 -262,-768 -160,-226 -344,-337 -553,-337 -288,0 -525,171 -710,512 -66,115 -126,258 -181,429 -20,56 -41,122 -65,198l-21 88 -23 75c224,198 512,360 859,484 284,100 513,152 687,152 71,0 137,-84 199,-252z"></path> <path id="14" class="fil1" d="M100887 25452c450,0 890,86 1316,256 259,101 628,291 1106,570l87 47 -956 1651c-640,-379 -1139,-588 -1500,-627l-164 -13c-290,0 -514,92 -674,276 -139,158 -209,354 -209,586 0,331 207,593 623,792 403,194 919,290 1546,290l1183 0 0 1910 -6041 0 0 -1914 990 0c-145,-346 -215,-711 -215,-1095 0,-715 226,-1327 680,-1839 536,-593 1278,-890 2228,-890z"></path> <path id="15" class="fil1" d="M107987 27966c-451,947 -677,1779 -677,2496 0,70 3,143 7,222 8,96 21,192 40,284 43,245 118,463 222,653 299,535 798,802 1500,802l1607 0c802,0 1367,-107 1694,-320 162,-109 245,-216 249,-320 -550,-322 -1310,-574 -2274,-756l0 -1747 5317 0 0 1910 -1402 0c86,136 128,328 128,576 0,89 -4,179 -10,267 -18,125 -41,245 -71,360 -85,322 -233,608 -442,856 -610,719 -1672,1077 -3189,1077l-1607 0c-1291,0 -2266,-452 -2921,-1357 -508,-702 -761,-1536 -761,-2507 0,-715 145,-1483 435,-2304 149,-412 294,-751 437,-1018l1718 826z"></path> <path id="16" class="fil1" d="M126573 31190l-3416 0 0 -7c-39,5 -79,7 -122,7l-3469 0c-621,0 -1158,-165 -1611,-495 -478,330 -1086,495 -1828,495l-907 0 0 -1910 907 0c401,0 657,-62 774,-186 34,-34 58,-85 71,-151 10,-47 17,-100 17,-162l0 -1617 1907 0 0 1536c412,-572 806,-1044 1182,-1415 427,-427 858,-755 1293,-983 542,-289 1097,-431 1664,-431 1044,0 1793,333 2251,996 167,239 288,516 361,832 55,233 81,465 81,698 0,326 -32,621 -98,883l943 0 0 1910zm-3638 -1910c442,0 740,-92 890,-279 59,-73 98,-165 117,-273 15,-73 24,-175 24,-308 0,-431 -278,-646 -833,-646 -392,0 -889,224 -1495,670 -209,153 -416,322 -617,505 -160,148 -269,259 -333,331l2247 0z"></path> <path id="17" class="fil1" d="M136599 31190l-3416 0 0 -7c-38,5 -79,7 -122,7l-3469 0c-621,0 -1158,-165 -1611,-495 -478,330 -1086,495 -1828,495l-907 0 0 -1910 907 0c401,0 657,-62 774,-186 35,-34 58,-85 71,-151 10,-47 17,-100 17,-162l0 -1617 1907 0 0 1536c412,-572 807,-1044 1182,-1415 427,-427 858,-755 1293,-983 542,-289 1097,-431 1664,-431 1044,0 1793,333 2251,996 167,239 288,516 361,832 56,233 81,465 81,698 0,326 -32,621 -98,883l943 0 0 1910zm-3638 -1910c442,0 740,-92 890,-279 60,-73 98,-165 117,-273 15,-73 24,-175 24,-308 0,-431 -278,-646 -832,-646 -393,0 -890,224 -1496,670 -209,153 -416,322 -617,505 -160,148 -268,259 -332,331l2246 0z"></path> <path id="18" class="fil1" d="M139482 25766c318,47 1109,246 2373,593 443,122 910,252 1403,391 386,113 685,200 896,262l297 1681 -168 128 -171 116c-135,102 -239,179 -314,234 199,49 478,84 839,98 128,5 264,9 414,11l300 0 0 1910c-1190,0 -2037,-120 -2541,-354 -296,-137 -537,-321 -727,-549 -327,179 -666,329 -1020,448 -892,303 -2530,455 -4916,455l0 -1910c1541,0 2652,-53 3339,-162 830,-132 1573,-406 2223,-821l-424 -116 -408 -117c-333,-96 -584,-167 -751,-209 -512,-139 -834,-209 -964,-209 -107,0 -205,60 -299,181 -96,115 -171,275 -220,476l-1845 -482c179,-692 510,-1225 996,-1600 410,-323 854,-485 1325,-485 118,0 237,11 363,30zm-1541 -2004l1212 -1220 1234 1233 -1229 1223 -1217 -1236z"></path> <path id="19" class="fil1" d="M149950 28232c32,188 47,365 47,536 0,529 -152,1001 -455,1421 -484,668 -1274,1001 -2368,1001l-2275 0 0 -1910 2234 0c350,0 596,-45 739,-138 149,-90 222,-231 222,-425 0,-58 -9,-122 -24,-192 -38,-199 -77,-399 -115,-606 -17,-77 -32,-160 -47,-250l-24 -111 -17 -111c-59,-318 -102,-544 -134,-680l1822 -553c115,546 248,1221 395,2018zm-1199 -2901l-1140 -1152 1129 -1163 1163 1163 -1152 1152zm-2437 6l-1141 -1152 1122 -1165 1165 1165 -1146 1152z"></path> <path id="20" class="fil1" d="M155921 30304c0,1212 -305,2162 -916,2853 -678,772 -1670,1156 -2978,1156l-576 0 0 -1907 576 0c715,0 1222,-162 1526,-482 305,-322 458,-862 458,-1620l0 -3136 1910 0 0 3136z"></path> <path id="21" class="fil1" d="M159768 24499l105 149c23,36 44,64 64,88 25,40 51,79 74,117 66,94 137,190 209,290 190,275 403,580 636,913 301,427 632,896 988,1404 280,403 440,824 478,1263 8,77 11,154 11,233 0,365 -84,708 -250,1035 -205,392 -499,695 -883,913 -389,222 -824,333 -1304,333 -559,0 -1287,-118 -2183,-350 -269,-71 -537,-147 -808,-233 -86,-23 -167,-49 -246,-75 -25,-8 -49,-14 -68,-19l-19 -10 -11 0 610 -1810c147,49 320,105 519,163 245,70 484,134 721,191 636,156 1131,233 1485,233 252,0 416,-70 493,-215 28,-54 42,-111 42,-175 0,-111 -49,-237 -147,-378 -356,-508 -685,-977 -988,-1408 -230,-327 -443,-630 -640,-913 -311,-438 -465,-660 -465,-664l1577 -1075z"></path> <path id="22" class="fil1" d="M166088 31190l-525 0c-429,0 -815,-77 -1156,-227 -260,-113 -489,-266 -681,-460 -194,-194 -348,-421 -461,-681 -151,-341 -226,-728 -226,-1159l0 -5865 1903 0 0 5865c0,237 43,401 133,489 85,86 249,128 488,128l525 0 0 1910z"></path> <path id="23" class="fil1" d="M170354 29519c51,-139 76,-290 76,-455 0,-42 -2,-85 -6,-127 -19,-299 -107,-555 -263,-773 -158,-222 -343,-332 -552,-332 -288,0 -523,170 -711,511 -66,118 -126,261 -179,431 -19,56 -40,120 -64,199l-23 87 -24 75c224,194 512,356 862,484 286,101 515,150 685,150 70,0 137,-83 199,-250zm-745 -3595c900,0 1587,375 2059,1129 183,290 320,621 414,988 76,315 117,614 117,896 0,943 -237,1649 -710,2118 -180,184 -389,322 -630,421 -194,76 -388,121 -587,132 -38,4 -93,6 -162,6 -486,0 -1003,-119 -1549,-360 -185,-77 -386,-177 -599,-297l-128 -70 -116 -64c-89,-54 -153,-92 -192,-111 -318,318 -849,478 -1589,478l-314 0 0 -1910 239 0c391,0 649,-81 773,-243 55,-75 164,-365 326,-873 13,-36 24,-68 34,-100 13,-43 28,-85 47,-128 39,-109 83,-213 135,-314 132,-283 288,-533 465,-751 516,-631 1171,-947 1967,-947z"></path> <path id="24" class="fil1" d="M176702 27174c-198,706 -331,1285 -395,1735 -4,30 -6,62 -6,92 0,74 13,138 40,192 47,102 130,151 250,151l6872 0c280,0 419,-128 419,-384l0 -1796 1909 0 0 1418c19,248 69,419 145,512 101,124 290,186 566,186l668 0 0 1910 -668 0c-700,0 -1212,-133 -1537,-397 -302,203 -723,335 -1263,397 -392,42 -1088,64 -2088,64l-3301 0c-1093,0 -1792,-28 -2100,-81 -597,-103 -1053,-391 -1367,-869 -199,-299 -322,-640 -374,-1024 -15,-138 -21,-284 -21,-435 0,-167 8,-339 28,-519 28,-241 100,-584 215,-1030 36,-143 75,-288 118,-435 14,-52 27,-99 40,-141 7,-34 13,-56 17,-64l1833 518zm4739 -333l-1142 -1152 1129 -1163 1165 1163 -1152 1152zm-2439 7l-1142 -1152 1125 -1165 1163 1165 -1146 1152z"></path> <path id="25" class="fil1" d="M193786 23462l-3811 1734c333,329 803,813 1402,1449 516,555 879,1071 1088,1547 146,335 216,655 216,960l0 47c-4,250 -51,480 -145,693 -86,201 -207,385 -367,547 -205,209 -465,375 -779,501 -435,166 -964,250 -1590,250l-3083 0 0 -1910 3083 0c602,0 961,-32 1078,-98 -9,-34 -28,-85 -58,-152 -40,-72 -91,-157 -158,-256 -166,-251 -392,-527 -674,-825 -676,-719 -1261,-1317 -1758,-1799 -85,-81 -166,-158 -245,-226 -58,-60 -113,-111 -169,-158 -19,-19 -38,-36 -57,-51l-41 -43 -17 -11 -6 -10 -11 -7 220 -1593 5093 -2328 789 1739z"></path> <path id="26" class="fil1" d="M197582 27164l0 1587c0,166 86,301 256,401 135,86 273,128 412,128l269 0 0 1910 -269 0c-224,0 -463,-37 -715,-111 -113,858 -401,1549 -868,2072 -679,772 -1671,1158 -2979,1158l-576 0 0 -1910 576 0c715,0 1223,-160 1526,-482 305,-322 458,-862 458,-1617l0 -3136 1910 0z"></path> <path id="27" class="fil1" d="M202208 29159c147,-109 222,-301 222,-577l0 -1414 1908 0 0 1414c0,242 44,412 134,512 105,124 297,186 576,186 442,0 664,-151 664,-459 0,-66 -11,-140 -30,-222 -222,-911 -365,-1521 -431,-1832l1852 -442c111,465 256,1076 435,1833 38,166 57,341 57,523 0,149 -12,300 -40,461 -66,360 -196,688 -388,983 -463,711 -1136,1065 -2021,1065 -399,0 -774,-60 -1122,-182 -237,-87 -452,-204 -647,-347 -461,352 -990,529 -1587,529 -630,0 -1174,-177 -1636,-529 -314,352 -871,529 -1671,529l-1116 0 0 -1910 1116 0c279,0 471,-62 576,-186 90,-100 134,-270 134,-512l0 -1414 1910 0 0 1414c0,276 66,468 196,577 94,80 239,121 438,121 204,0 362,-41 471,-121zm1076 -4562l-1153 1165 -1152 -1152 1152 -1165 1153 1152zm2526 -17l-1140 1152 -1182 -1139 1163 -1166 1159 1153zm-1396 -1500l-1013 1011 -1001 -1000 1011 -1012 1003 1001z"></path> <path class="fil2" d="M230287 8898c-654,7080 3447,6611 4406,3239 641,619 1281,1238 1922,1857 92,766 -615,1571 -1332,2191 -3455,3079 -5629,1179 -5436,-1671 29,-657 66,-2665 59,-4451 43,-1686 -1712,-3486 -4073,-1109l-11174 11083 0 -3788c3544,-3651 7088,-7302 10633,-10953 1971,-1810 5076,-2332 4995,3602zm2710 20130l11038 -11600 -127 4046 -9638 9979c-2904,3006 -6245,2874 -5906,-2294 134,-1479 378,-2363 -110,-3983 -603,-1958 -1968,-1563 -3044,-433l-10551 10609 0 -3727 9617 -10018c2125,-2400 4442,-1421 4432,900l195 5117c111,3103 2925,2805 4094,1404zm5448 -13086l-1592 -1639 2029 -2106 3384 3507 -8161 8784c-2024,2012 -4963,2253 -4908,-1952l-29 -4803c3,-1886 -2377,-2551 -3731,-1057l-10778 10907 0 -3888 10816 -11133c1456,-1872 4109,-823 4032,1396l113 5926c95,2309 2104,3023 3731,1358l5094 -5300z"></path> <polygon class="fil3" points="254173,0 214659,0 214659,13042 217457,10244 217457,2789 251375,2789 251375,36601 214698,36601 214698,39389 254173,39389 "></polygon> </g> </svg> 