<svg width="20" height="15" viewBox="0 0 20 15" fill="none" xmlns="http://www.w3.org/2000/svg">
<path d="M2.28125 0.726074C1.29785 0.726074 0.5 1.50993 0.5 2.47607C0.5 3.0266 0.763477 3.5443 1.2125 3.87607L9.2875 9.82607C9.71055 10.136 10.2895 10.136 10.7125 9.82607L18.7875 3.87607C19.2365 3.5443 19.5 3.0266 19.5 2.47607C19.5 1.50993 18.7021 0.726074 17.7188 0.726074H2.28125ZM0.5 4.80941V12.3927C0.5 13.6797 1.56504 14.7261 2.875 14.7261H17.125C18.435 14.7261 19.5 13.6797 19.5 12.3927V4.80941L11.425 10.7594C10.5789 11.3828 9.42109 11.3828 8.575 10.7594L0.5 4.80941Z" fill="#99C9FF"/>
</svg>
