<svg width="16" height="15" viewBox="0 0 16 15" fill="none" xmlns="http://www.w3.org/2000/svg">
<path d="M14.2259 0.726074H2.44015C2.01391 0.726074 1.60513 0.88411 1.30373 1.16541C1.00233 1.44672 0.833008 1.82825 0.833008 2.22607L0.833008 13.2261C0.833008 13.6239 1.00233 14.0054 1.30373 14.2867C1.60513 14.568 2.01391 14.7261 2.44015 14.7261H7.03557V9.96639H4.9262V7.72607H7.03557V6.01857C7.03557 4.07639 8.27441 3.00357 10.1718 3.00357C11.0806 3.00357 12.0308 3.15482 12.0308 3.15482V5.06107H10.9838C9.9522 5.06107 9.63044 5.65857 9.63044 6.27139V7.72607H11.9333L11.565 9.96639H9.63044V14.7261H14.2259C14.6521 14.7261 15.0609 14.568 15.3623 14.2867C15.6637 14.0054 15.833 13.6239 15.833 13.2261V2.22607C15.833 1.82825 15.6637 1.44672 15.3623 1.16541C15.0609 0.88411 14.6521 0.726074 14.2259 0.726074Z" fill="#99C9FF"/>
</svg>
