<svg width="16" height="15" viewBox="0 0 16 15" fill="none" xmlns="http://www.w3.org/2000/svg">
<path d="M7.66699 6.0592C7.3138 6.05932 6.96857 6.15719 6.67496 6.34042C6.38135 6.52366 6.15255 6.78403 6.01748 7.08862C5.88241 7.39321 5.84714 7.72835 5.91612 8.05165C5.98511 8.37495 6.15526 8.6719 6.40505 8.90495C6.65484 9.13801 6.97307 9.2967 7.31949 9.36097C7.66591 9.42523 8.02497 9.39219 8.35126 9.26601C8.67756 9.13983 8.95645 8.92618 9.15266 8.65208C9.34887 8.37797 9.4536 8.05572 9.4536 7.72607C9.45324 7.28398 9.26488 6.86011 8.92988 6.54756C8.59488 6.23501 8.14066 6.05937 7.66699 6.0592ZM11.8426 4.77795C11.7516 4.5629 11.6143 4.36758 11.4392 4.20411C11.264 4.04063 11.0548 3.91249 10.8244 3.82764C10.1212 3.56857 8.44713 3.6267 7.66699 3.6267C6.88686 3.6267 5.21443 3.56639 4.50929 3.82764C4.27888 3.91249 4.06961 4.04063 3.89446 4.20411C3.71931 4.36758 3.58202 4.5629 3.4911 4.77795C3.21387 5.4342 3.27581 6.99826 3.27581 7.72576C3.27581 8.45326 3.21387 10.0154 3.49244 10.6739C3.58336 10.8889 3.72065 11.0843 3.8958 11.2477C4.07095 11.4112 4.28022 11.5393 4.51063 11.6242C5.21376 11.8833 6.88786 11.8251 7.66833 11.8251C8.4488 11.8251 10.1206 11.8854 10.8257 11.6242C11.0561 11.5393 11.2654 11.4112 11.4405 11.2477C11.6157 11.0843 11.753 10.8889 11.8439 10.6739C12.1235 10.0176 12.0592 8.45357 12.0592 7.72607C12.0592 6.99857 12.1235 5.4367 11.8439 4.77826L11.8426 4.77795ZM7.66699 10.2886C7.12398 10.2886 6.59316 10.1383 6.14165 9.85672C5.69015 9.57514 5.33825 9.17494 5.13045 8.7067C4.92265 8.23846 4.86827 7.72323 4.97421 7.22616C5.08015 6.72908 5.34164 6.27249 5.72561 5.91411C6.10958 5.55574 6.59878 5.31169 7.13136 5.21281C7.66395 5.11394 8.21598 5.16468 8.71766 5.35863C9.21935 5.55258 9.64814 5.88102 9.94982 6.30243C10.2515 6.72383 10.4125 7.21926 10.4125 7.72607C10.413 8.0627 10.3423 8.3961 10.2044 8.70719C10.0666 9.01827 9.8644 9.30092 9.60936 9.53895C9.35433 9.77699 9.05149 9.96572 8.71818 10.0944C8.38488 10.223 8.02767 10.289 7.66699 10.2886ZM10.5257 5.6542C10.3989 5.65426 10.275 5.61923 10.1696 5.55355C10.0641 5.48786 9.98195 5.39447 9.93339 5.28518C9.88484 5.1759 9.8721 5.05562 9.89679 4.93958C9.92148 4.82353 9.98248 4.71693 10.0721 4.63325C10.1617 4.54957 10.2759 4.49257 10.4002 4.46947C10.5245 4.44636 10.6534 4.45819 10.7705 4.50345C10.8876 4.54871 10.9878 4.62537 11.0582 4.72374C11.1286 4.82211 11.1662 4.93776 11.1662 5.05607C11.1666 5.13464 11.1503 5.2125 11.1183 5.28518C11.0864 5.35787 11.0394 5.42395 10.98 5.47963C10.9206 5.53532 10.85 5.57952 10.7723 5.60969C10.6946 5.63986 10.6112 5.65541 10.527 5.65545L10.5257 5.6542ZM13.5598 0.726074H1.77413C1.34789 0.726074 0.939111 0.88411 0.637713 1.16541C0.336316 1.44672 0.166992 1.82825 0.166992 2.22607L0.166992 13.2261C0.166992 13.6239 0.336316 14.0054 0.637713 14.2867C0.939111 14.568 1.34789 14.7261 1.77413 14.7261H13.5598C13.9861 14.7261 14.3949 14.568 14.6963 14.2867C14.9977 14.0054 15.167 13.6239 15.167 13.2261V2.22607C15.167 1.82825 14.9977 1.44672 14.6963 1.16541C14.3949 0.88411 13.9861 0.726074 13.5598 0.726074ZM12.9866 9.78857C12.9434 10.5895 12.7476 11.2992 12.1211 11.8823C11.4947 12.4654 10.735 12.652 9.87782 12.6901C8.99356 12.7367 6.34244 12.7367 5.45818 12.6901C4.60003 12.6498 3.84233 12.4667 3.21487 11.8823C2.58742 11.2979 2.39021 10.5879 2.34936 9.78857C2.29947 8.96295 2.29947 6.48826 2.34936 5.66357C2.39255 4.86264 2.58608 4.15295 3.21487 3.56982C3.84367 2.9867 4.60338 2.80232 5.45818 2.7642C6.34244 2.71764 8.99356 2.71764 9.87782 2.7642C10.736 2.80451 11.496 2.98764 12.1211 3.57201C12.7462 4.15639 12.9458 4.86639 12.9866 5.66732C13.0365 6.48982 13.0365 8.96232 12.9866 9.78857Z" fill="#99C9FF"/>
</svg>
