<svg width="16" height="15" viewBox="0 0 16 15" fill="none" xmlns="http://www.w3.org/2000/svg">
<path d="M14.4286 0.726074H1.56808C0.978795 0.726074 0.5 1.1792 0.5 1.73545V13.7167C0.5 14.2729 0.978795 14.7261 1.56808 14.7261H14.4286C15.0179 14.7261 15.5 14.2729 15.5 13.7167V1.73545C15.5 1.1792 15.0179 0.726074 14.4286 0.726074ZM5.03348 12.7261H2.81027V6.04482H5.03683V12.7261H5.03348ZM3.92187 5.13232C3.20871 5.13232 2.63281 4.5917 2.63281 3.9292C2.63281 3.2667 3.20871 2.72607 3.92187 2.72607C4.6317 2.72607 5.21094 3.2667 5.21094 3.9292C5.21094 4.59482 4.63504 5.13232 3.92187 5.13232ZM13.3672 12.7261H11.144V9.47607C11.144 8.70107 11.1272 7.7042 9.98884 7.7042C8.83036 7.7042 8.6529 8.54795 8.6529 9.41982V12.7261H6.42969V6.04482H8.5625V6.95732H8.59263C8.89062 6.43232 9.61719 5.8792 10.6987 5.8792C12.9487 5.8792 13.3672 7.26357 13.3672 9.06357V12.7261Z" fill="#99C9FF"/>
</svg>
